CharisSIL-Bold.ufo
<glyph name="DollarSgn" format="2">
  <advance width="1202"/>
  <unicode hex="0024"/>
  <outline>
    <contour>
      <point x="1094" y="420" type="curve" smooth="yes"/>
      <point x="1094" y="707"/>
      <point x="786" y="784"/>
      <point x="651" y="821" type="curve"/>
      <point x="651" y="1243" type="line"/>
      <point x="682" y="1243"/>
      <point x="838" y="1212"/>
      <point x="842" y="1194" type="curve" smooth="yes"/>
      <point x="881" y="967" type="line"/>
      <point x="1022" y="967" type="line"/>
      <point x="1022" y="1309" type="line"/>
      <point x="1022" y="1309"/>
      <point x="817" y="1368"/>
      <point x="651" y="1368" type="curve"/>
      <point x="651" y="1520" type="line"/>
      <point x="530" y="1520" type="line"/>
      <point x="530" y="1368" type="line"/>
      <point x="530" y="1368"/>
      <point x="123" y="1352"/>
      <point x="123" y="977" type="curve" smooth="yes"/>
      <point x="123" y="700"/>
      <point x="377" y="623"/>
      <point x="530" y="578" type="curve"/>
      <point x="530" y="127" type="line"/>
      <point x="530" y="127"/>
      <point x="383" y="129"/>
      <point x="299" y="182" type="curve"/>
      <point x="256" y="422" type="line"/>
      <point x="111" y="422" type="line"/>
      <point x="111" y="68" type="line"/>
      <point x="287" y="10"/>
      <point x="530" y="0"/>
      <point x="530" y="0" type="curve"/>
      <point x="530" y="-209" type="line"/>
      <point x="651" y="-209" type="line"/>
      <point x="651" y="2" type="line"/>
      <point x="911" y="39"/>
      <point x="1094" y="186"/>
    </contour>
    <contour>
      <point x="530" y="850" type="line"/>
      <point x="530" y="850"/>
      <point x="383" y="885"/>
      <point x="383" y="1051" type="curve" smooth="yes"/>
      <point x="383" y="1227"/>
      <point x="530" y="1237"/>
      <point x="530" y="1237" type="curve"/>
    </contour>
    <contour>
      <point x="834" y="346" type="curve" smooth="yes"/>
      <point x="834" y="147"/>
      <point x="651" y="133"/>
      <point x="651" y="133" type="curve"/>
      <point x="651" y="547" type="line"/>
      <point x="721" y="528"/>
      <point x="834" y="481"/>
    </contour>
  </outline>
</glyph>
<glyph name="Ampersand" format="2">
  <advance width="1505"/>
  <unicode hex="0026"/>
  <outline>
    <contour>
      <point x="1473" y="0" type="line"/>
      <point x="1473" y="104" type="line"/>
      <point x="1307" y="121" type="line"/>
      <point x="1114" y="328" type="line"/>
      <point x="1114" y="328"/>
      <point x="1239" y="453"/>
      <point x="1305" y="668" type="curve"/>
      <point x="1446" y="696" type="line"/>
      <point x="1446" y="793" type="line"/>
      <point x="1016" y="793" type="line"/>
      <point x="1016" y="696" type="line"/>
      <point x="1122" y="678" type="line" smooth="yes"/>
      <point x="1130" y="676"/>
      <point x="1145" y="655"/>
      <point x="1143" y="643" type="curve" smooth="yes"/>
      <point x="1118" y="516"/>
      <point x="1034" y="414"/>
      <point x="1034" y="414" type="curve"/>
      <point x="719" y="741" type="line"/>
      <point x="745" y="745"/>
      <point x="1026" y="805"/>
      <point x="1026" y="1079" type="curve" smooth="yes"/>
      <point x="1026" y="1333"/>
      <point x="780" y="1401"/>
      <point x="621" y="1401" type="curve" smooth="yes"/>
      <point x="379" y="1401"/>
      <point x="176" y="1280"/>
      <point x="176" y="1053" type="curve" smooth="yes"/>
      <point x="176" y="848"/>
      <point x="367" y="729"/>
      <point x="367" y="729" type="curve"/>
      <point x="193" y="674"/>
      <point x="78" y="571"/>
      <point x="78" y="377" type="curve" smooth="yes"/>
      <point x="78" y="135"/>
      <point x="256" y="-25"/>
      <point x="520" y="-25" type="curve" smooth="yes"/>
      <point x="784" y="-25"/>
      <point x="940" y="145"/>
      <point x="940" y="145" type="curve"/>
      <point x="1026" y="49" type="line"/>
      <point x="1026" y="0" type="line"/>
    </contour>
    <contour>
      <point x="772" y="1075" type="curve" smooth="yes"/>
      <point x="772" y="959"/>
      <point x="725" y="890"/>
      <point x="641" y="815" type="curve"/>
      <point x="500" y="944"/>
      <point x="446" y="1028"/>
      <point x="446" y="1118" type="curve" smooth="yes"/>
      <point x="446" y="1212"/>
      <point x="516" y="1278"/>
      <point x="610" y="1278" type="curve" smooth="yes"/>
      <point x="711" y="1278"/>
      <point x="772" y="1188"/>
    </contour>
    <contour>
      <point x="856" y="233" type="line"/>
      <point x="856" y="233"/>
      <point x="793" y="152"/>
      <point x="655" y="152" type="curve" smooth="yes"/>
      <point x="510" y="152"/>
      <point x="354" y="238"/>
      <point x="354" y="471" type="curve" smooth="yes"/>
      <point x="354" y="600"/>
      <point x="451" y="657"/>
      <point x="451" y="657" type="curve"/>
    </contour>
  </outline>
</glyph>
<glyph name="LftParen" format="2">
  <advance width="803"/>
  <unicode hex="0028"/>
  <outline>
    <contour>
      <point x="733" y="-291" type="curve"/>
      <point x="733" y="-180" type="line"/>
      <point x="444" y="-141"/>
      <point x="381" y="170"/>
      <point x="381" y="590" type="curve" smooth="yes"/>
      <point x="381" y="1010"/>
      <point x="444" y="1319"/>
      <point x="733" y="1358" type="curve"/>
      <point x="733" y="1468" type="line"/>
      <point x="330" y="1456"/>
      <point x="121" y="1124"/>
      <point x="121" y="590" type="curve" smooth="yes"/>
      <point x="121" y="55"/>
      <point x="330" y="-281"/>
    </contour>
  </outline>
</glyph>
<glyph name="RtParen" format="2">
  <advance width="803"/>
  <unicode hex="0029"/>
  <outline>
    <contour>
      <point x="682" y="590" type="curve" smooth="yes"/>
      <point x="682" y="1124"/>
      <point x="471" y="1456"/>
      <point x="70" y="1468" type="curve"/>
      <point x="70" y="1358" type="line"/>
      <point x="356" y="1319"/>
      <point x="422" y="1010"/>
      <point x="422" y="590" type="curve" smooth="yes"/>
      <point x="422" y="170"/>
      <point x="356" y="-141"/>
      <point x="70" y="-180" type="curve"/>
      <point x="70" y="-291" type="line"/>
      <point x="471" y="-281"/>
      <point x="682" y="55"/>
    </contour>
  </outline>
</glyph>
<glyph name="Asterisk" format="2">
  <advance width="1024"/>
  <unicode hex="002A"/>
  <outline>
    <contour>
      <point x="915" y="1169" type="line"/>
      <point x="764" y="1229" type="line"/>
      <point x="547" y="1069" type="line"/>
      <point x="561" y="1038" type="line"/>
      <point x="825" y="1036" type="line"/>
    </contour>
    <contour>
      <point x="614" y="1348" type="line"/>
      <point x="512" y="1470" type="line"/>
      <point x="410" y="1348" type="line"/>
      <point x="494" y="1092" type="line"/>
      <point x="528" y="1092" type="line"/>
    </contour>
    <contour>
      <point x="768" y="852" type="line"/>
      <point x="549" y="1012" type="line"/>
      <point x="524" y="987" type="line"/>
      <point x="606" y="733" type="line"/>
      <point x="762" y="692" type="line"/>
    </contour>
    <contour>
      <point x="475" y="1067" type="line"/>
      <point x="256" y="1229" type="line"/>
      <point x="109" y="1169" type="line"/>
      <point x="197" y="1036" type="line"/>
      <point x="463" y="1038" type="line"/>
    </contour>
    <contour>
      <point x="500" y="987" type="line"/>
      <point x="475" y="1012" type="line"/>
      <point x="256" y="852" type="line"/>
      <point x="262" y="692" type="line"/>
      <point x="418" y="733" type="line"/>
    </contour>
  </outline>
</glyph>
<glyph name="DigitZero" format="2">
  <advance width="1202"/>
  <unicode hex="0030"/>
  <anchor x="602" y="-100" name="L"/>
  <anchor x="602" y="1500" name="U"/>
  <outline>
    <contour>
      <point x="1130" y="686" type="curve" smooth="yes"/>
      <point x="1130" y="1069"/>
      <point x="973" y="1399"/>
      <point x="600" y="1399" type="curve" smooth="yes"/>
      <point x="229" y="1399"/>
      <point x="74" y="1069"/>
      <point x="74" y="686" type="curve" smooth="yes"/>
      <point x="74" y="301"/>
      <point x="229" y="-25"/>
      <point x="600" y="-25" type="curve" smooth="yes"/>
      <point x="973" y="-25"/>
      <point x="1130" y="301"/>
    </contour>
    <contour>
      <point x="831" y="686" type="curve" smooth="yes"/>
      <point x="831" y="508"/>
      <point x="821" y="96"/>
      <point x="600" y="96" type="curve" smooth="yes"/>
      <point x="381" y="96"/>
      <point x="373" y="508"/>
      <point x="373" y="686" type="curve" smooth="yes"/>
      <point x="373" y="864"/>
      <point x="381" y="1280"/>
      <point x="600" y="1280" type="curve" smooth="yes"/>
      <point x="821" y="1280"/>
      <point x="831" y="864"/>
    </contour>
  </outline>
</glyph>
<glyph name="DigitSix" format="2">
  <advance width="1202"/>
  <unicode hex="0036"/>
  <anchor x="602" y="-100" name="L"/>
  <anchor x="602" y="1500" name="U"/>
  <outline>
    <contour>
      <point x="1130" y="494" type="curve" smooth="yes"/>
      <point x="1130" y="688"/>
      <point x="987" y="909"/>
      <point x="700" y="909" type="curve" smooth="yes"/>
      <point x="526" y="909"/>
      <point x="383" y="807"/>
      <point x="383" y="807" type="curve"/>
      <point x="424" y="1073"/>
      <point x="569" y="1237"/>
      <point x="866" y="1257" type="curve"/>
      <point x="956" y="1247" type="line"/>
      <point x="956" y="1407" type="line"/>
      <point x="428" y="1413"/>
      <point x="74" y="1133"/>
      <point x="74" y="596" type="curve" smooth="yes"/>
      <point x="74" y="190"/>
      <point x="276" y="-33"/>
      <point x="621" y="-33" type="curve" smooth="yes"/>
      <point x="897" y="-33"/>
      <point x="1130" y="176"/>
    </contour>
    <contour>
      <point x="838" y="432" type="curve" smooth="yes"/>
      <point x="838" y="258"/>
      <point x="766" y="100"/>
      <point x="623" y="100" type="curve" smooth="yes"/>
      <point x="442" y="100"/>
      <point x="369" y="330"/>
      <point x="369" y="520" type="curve" smooth="yes"/>
      <point x="369" y="520"/>
      <point x="362" y="600"/>
      <point x="371" y="692" type="curve"/>
      <point x="371" y="692"/>
      <point x="453" y="735"/>
      <point x="569" y="735" type="curve" smooth="yes"/>
      <point x="754" y="735"/>
      <point x="838" y="612"/>
    </contour>
  </outline>
</glyph>
<glyph name="DigitSeven" format="2">
  <advance width="1202"/>
  <unicode hex="0037"/>
  <anchor x="475" y="-100" name="L"/>
  <anchor x="475" y="1500" name="U"/>
  <outline>
    <contour>
      <point x="1126" y="1229" type="line"/>
      <point x="1126" y="1374" type="line"/>
      <point x="76" y="1374" type="line"/>
      <point x="76" y="938" type="line"/>
      <point x="219" y="938" type="line"/>
      <point x="250" y="1128" type="line"/>
      <point x="842" y="1128" type="line"/>
      <point x="174" y="-33" type="line"/>
      <point x="436" y="-33" type="line"/>
      <point x="436" y="29" type="line"/>
    </contour>
  </outline>
</glyph>
<glyph name="DigitEight" format="2">
  <advance width="1202"/>
  <unicode hex="0038"/>
  <anchor x="601" y="-100" name="L"/>
  <anchor x="601" y="1500" name="U"/>
  <outline>
    <contour>
      <point x="1128" y="377" type="curve" smooth="yes"/>
      <point x="1128" y="640"/>
      <point x="878" y="715"/>
      <point x="821" y="731" type="curve"/>
      <point x="924" y="779"/>
      <point x="1075" y="852"/>
      <point x="1075" y="1047" type="curve" smooth="yes"/>
      <point x="1075" y="1290"/>
      <point x="846" y="1407"/>
      <point x="631" y="1407" type="curve" smooth="yes"/>
      <point x="391" y="1407"/>
      <point x="129" y="1303"/>
      <point x="129" y="993" type="curve" smooth="yes"/>
      <point x="129" y="823"/>
      <point x="276" y="717"/>
      <point x="358" y="686" type="curve"/>
      <point x="256" y="655"/>
      <point x="74" y="592"/>
      <point x="74" y="371" type="curve" smooth="yes"/>
      <point x="74" y="139"/>
      <point x="291" y="-33"/>
      <point x="588" y="-33" type="curve" smooth="yes"/>
      <point x="864" y="-33"/>
      <point x="1128" y="98"/>
    </contour>
    <contour>
      <point x="823" y="1030" type="curve" smooth="yes"/>
      <point x="823" y="909"/>
      <point x="764" y="823"/>
      <point x="723" y="780" type="curve"/>
      <point x="569" y="847"/>
      <point x="410" y="918"/>
      <point x="410" y="1081" type="curve" smooth="yes"/>
      <point x="410" y="1190"/>
      <point x="498" y="1278"/>
      <point x="606" y="1278" type="curve" smooth="yes"/>
      <point x="737" y="1278"/>
      <point x="823" y="1157"/>
    </contour>
    <contour>
      <point x="850" y="305" type="curve" smooth="yes"/>
      <point x="850" y="172"/>
      <point x="731" y="98"/>
      <point x="604" y="98" type="curve" smooth="yes"/>
      <point x="457" y="98"/>
      <point x="336" y="231"/>
      <point x="336" y="391" type="curve" smooth="yes"/>
      <point x="336" y="528"/>
      <point x="430" y="602"/>
      <point x="455" y="635" type="curve"/>
      <point x="582" y="575"/>
      <point x="850" y="506"/>
    </contour>
  </outline>
</glyph>
<glyph name="Colon" format="2">
  <advance width="651"/>
  <unicode hex="003A"/>
  <outline>
    <contour>
      <point x="471" y="852" type="curve" smooth="yes"/>
      <point x="471" y="946"/>
      <point x="397" y="1024"/>
      <point x="301" y="1024" type="curve" smooth="yes"/>
      <point x="207" y="1024"/>
      <point x="129" y="946"/>
      <point x="129" y="852" type="curve" smooth="yes"/>
      <point x="129" y="756"/>
      <point x="207" y="682"/>
      <point x="301" y="682" type="curve" smooth="yes"/>
      <point x="397" y="682"/>
      <point x="471" y="756"/>
    </contour>
    <contour>
      <point x="471" y="145" type="curve" smooth="yes"/>
      <point x="471" y="240"/>
      <point x="397" y="317"/>
      <point x="301" y="317" type="curve" smooth="yes"/>
      <point x="207" y="317"/>
      <point x="129" y="240"/>
      <point x="129" y="145" type="curve" smooth="yes"/>
      <point x="129" y="51"/>
      <point x="207" y="-25"/>
      <point x="301" y="-25" type="curve" smooth="yes"/>
      <point x="397" y="-25"/>
      <point x="471" y="51"/>
    </contour>
  </outline>
</glyph>
<glyph name="Semicolon" format="2">
  <advance width="651"/>
  <unicode hex="003B"/>
  <outline>
    <contour>
      <point x="496" y="121" type="curve" smooth="yes"/>
      <point x="496" y="240"/>
      <point x="424" y="317"/>
      <point x="301" y="317" type="curve" smooth="yes"/>
      <point x="213" y="317"/>
      <point x="129" y="248"/>
      <point x="129" y="145" type="curve" smooth="yes"/>
      <point x="129" y="104"/>
      <point x="143" y="53"/>
      <point x="193" y="14" type="curve"/>
      <point x="317" y="14" type="line"/>
      <point x="317" y="-178"/>
      <point x="207" y="-230"/>
      <point x="72" y="-260" type="curve"/>
      <point x="72" y="-360" type="line"/>
      <point x="268" y="-346"/>
      <point x="496" y="-133"/>
    </contour>
    <contour>
      <point x="471" y="852" type="curve" smooth="yes"/>
      <point x="471" y="946"/>
      <point x="397" y="1024"/>
      <point x="301" y="1024" type="curve" smooth="yes"/>
      <point x="207" y="1024"/>
      <point x="129" y="946"/>
      <point x="129" y="852" type="curve" smooth="yes"/>
      <point x="129" y="756"/>
      <point x="207" y="682"/>
      <point x="301" y="682" type="curve" smooth="yes"/>
      <point x="397" y="682"/>
      <point x="471" y="756"/>
    </contour>
  </outline>
</glyph>
<glyph name="LtnCapF" format="2">
  <advance width="1145"/>
  <unicode hex="0046"/>
  <anchor x="569" y="-100" name="L"/>
  <anchor x="569" y="1500" name="U"/>
  <outline>
    <contour>
      <point x="1090" y="1024" type="line"/>
      <point x="1090" y="1374" type="line"/>
      <point x="49" y="1374" type="line"/>
      <point x="49" y="1270" type="line"/>
      <point x="166" y="1260" type="line" smooth="yes"/>
      <point x="190" y="1257"/>
      <point x="213" y="1241"/>
      <point x="213" y="1214" type="curve" smooth="yes"/>
      <point x="213" y="160" type="line" smooth="yes"/>
      <point x="213" y="133"/>
      <point x="190" y="117"/>
      <point x="166" y="115" type="curve" smooth="yes"/>
      <point x="55" y="104" type="line"/>
      <point x="55" y="0" type="line"/>
      <point x="684" y="0" type="line"/>
      <point x="684" y="104" type="line"/>
      <point x="551" y="115" type="line" smooth="yes"/>
      <point x="526" y="117"/>
      <point x="506" y="133"/>
      <point x="506" y="160" type="curve" smooth="yes"/>
      <point x="506" y="614" type="line"/>
      <point x="760" y="614" type="line" smooth="yes"/>
      <point x="776" y="614"/>
      <point x="793" y="592"/>
      <point x="795" y="578" type="curve" smooth="yes"/>
      <point x="815" y="438" type="line"/>
      <point x="942" y="438" type="line"/>
      <point x="942" y="922" type="line"/>
      <point x="815" y="922" type="line"/>
      <point x="795" y="782" type="line" smooth="yes"/>
      <point x="793" y="768"/>
      <point x="778" y="745"/>
      <point x="760" y="745" type="curve" smooth="yes"/>
      <point x="506" y="745" type="line"/>
      <point x="506" y="1249" type="line"/>
      <point x="877" y="1249" type="line" smooth="yes"/>
      <point x="895" y="1249"/>
      <point x="909" y="1231"/>
      <point x="913" y="1210" type="curve" smooth="yes"/>
      <point x="942" y="1024" type="line"/>
    </contour>
  </outline>
</glyph>
<glyph name="LtnCapJ" format="2">
  <advance width="1049"/>
  <unicode hex="004A"/>
  <anchor x="434" y="-100" name="L"/>
  <anchor x="742" y="60" name="O"/>
  <anchor x="719" y="1500" name="U"/>
  <outline>
    <contour>
      <point x="1004" y="1270" type="line"/>
      <point x="1004" y="1374" type="line"/>
      <point x="371" y="1374" type="line"/>
      <point x="371" y="1270" type="line"/>
      <point x="498" y="1260" type="line" smooth="yes"/>
      <point x="520" y="1257"/>
      <point x="543" y="1241"/>
      <point x="543" y="1214" type="curve" smooth="yes"/>
      <point x="543" y="502" type="line" smooth="yes"/>
      <point x="543" y="193"/>
      <point x="461" y="90"/>
      <point x="309" y="90" type="curve" smooth="yes"/>
      <point x="266" y="90"/>
      <point x="256" y="125"/>
      <point x="256" y="125" type="curve"/>
      <point x="209" y="399" type="line"/>
      <point x="49" y="399" type="line"/>
      <point x="49" y="25" type="line"/>
      <point x="113" y="2"/>
      <point x="242" y="-33"/>
      <point x="354" y="-33" type="curve" smooth="yes"/>
      <point x="690" y="-33"/>
      <point x="834" y="180"/>
      <point x="834" y="496" type="curve" smooth="yes"/>
      <point x="834" y="1214" type="line" smooth="yes"/>
      <point x="834" y="1241"/>
      <point x="854" y="1257"/>
      <point x="879" y="1260" type="curve" smooth="yes"/>
    </contour>
  </outline>
</glyph>
<glyph name="LtnCapO" format="2">
  <advance width="1548"/>
  <unicode hex="004F"/>
  <anchor x="775" y="0" name="H"/>
  <anchor x="775" y="-100" name="L"/>
  <anchor x="1043" y="0" name="O"/>
  <anchor x="1508" y="1250" name="R"/>
  <anchor x="775" y="1500" name="U"/>
  <outline>
    <contour>
      <point x="1475" y="680" type="curve" smooth="yes"/>
      <point x="1475" y="1077"/>
      <point x="1194" y="1407"/>
      <point x="768" y="1407" type="curve" smooth="yes"/>
      <point x="332" y="1407"/>
      <point x="76" y="1100"/>
      <point x="76" y="696" type="curve" smooth="yes"/>
      <point x="76" y="231"/>
      <point x="377" y="-33"/>
      <point x="786" y="-33" type="curve" smooth="yes"/>
      <point x="1198" y="-33"/>
      <point x="1475" y="289"/>
    </contour>
    <contour>
      <point x="1145" y="672" type="curve" smooth="yes"/>
      <point x="1145" y="408"/>
      <point x="1040" y="96"/>
      <point x="766" y="96" type="curve" smooth="yes"/>
      <point x="514" y="96"/>
      <point x="403" y="399"/>
      <point x="403" y="690" type="curve" smooth="yes"/>
      <point x="403" y="965"/>
      <point x="502" y="1270"/>
      <point x="786" y="1270" type="curve" smooth="yes"/>
      <point x="1024" y="1270"/>
      <point x="1145" y="993"/>
    </contour>
  </outline>
</glyph>
<glyph name="LtnCapP" format="2">
  <advance width="1253"/>
  <unicode hex="0050"/>
  <anchor x="612" y="-100" name="L"/>
  <anchor x="612" y="1500" name="U"/>
  <outline>
    <contour>
      <point x="1178" y="958" type="curve" smooth="yes"/>
      <point x="1178" y="1319"/>
      <point x="897" y="1374"/>
      <point x="621" y="1374" type="curve" smooth="yes"/>
      <point x="47" y="1374" type="line"/>
      <point x="47" y="1270" type="line"/>
      <point x="166" y="1260" type="line" smooth="yes"/>
      <point x="190" y="1257"/>
      <point x="213" y="1241"/>
      <point x="213" y="1214" type="curve" smooth="yes"/>
      <point x="213" y="160" type="line" smooth="yes"/>
      <point x="213" y="133"/>
      <point x="190" y="117"/>
      <point x="166" y="115" type="curve" smooth="yes"/>
      <point x="53" y="104" type="line"/>
      <point x="53" y="0" type="line"/>
      <point x="680" y="0" type="line"/>
      <point x="680" y="104" type="line"/>
      <point x="551" y="115" type="line" smooth="yes"/>
      <point x="526" y="117"/>
      <point x="506" y="133"/>
      <point x="506" y="160" type="curve" smooth="yes"/>
      <point x="506" y="508" type="line"/>
      <point x="561" y="502"/>
      <point x="602" y="504"/>
      <point x="641" y="504" type="curve" smooth="yes"/>
      <point x="903" y="504"/>
      <point x="1178" y="608"/>
    </contour>
    <contour>
      <point x="872" y="948" type="curve" smooth="yes"/>
      <point x="872" y="715"/>
      <point x="750" y="631"/>
      <point x="561" y="629" type="curve" smooth="yes"/>
      <point x="543" y="629"/>
      <point x="537" y="629"/>
      <point x="506" y="631" type="curve"/>
      <point x="506" y="1249" type="line"/>
      <point x="506" y="1249"/>
      <point x="608" y="1249"/>
      <point x="621" y="1249" type="curve" smooth="yes"/>
      <point x="772" y="1249"/>
      <point x="872" y="1139"/>
    </contour>
  </outline>
</glyph>
<glyph name="LtnCapW" format="2">
  <advance width="1978"/>
  <unicode hex="0057"/>
  <anchor x="1009" y="-100" name="L"/>
  <anchor x="1020" y="1500" name="U"/>
  <outline>
    <contour>
      <point x="1958" y="1270" type="line"/>
      <point x="1958" y="1374" type="line"/>
      <point x="1505" y="1374" type="line"/>
      <point x="1505" y="1270" type="line"/>
      <point x="1636" y="1257" type="line"/>
      <point x="1665" y="1253"/>
      <point x="1669" y="1231"/>
      <point x="1665" y="1214" type="curve" smooth="yes"/>
      <point x="1460" y="381" type="line"/>
      <point x="1163" y="1374" type="line"/>
      <point x="942" y="1374" type="line"/>
      <point x="655" y="403" type="line"/>
      <point x="438" y="1214" type="line" smooth="yes"/>
      <point x="434" y="1231"/>
      <point x="432" y="1255"/>
      <point x="457" y="1257" type="curve" smooth="yes"/>
      <point x="578" y="1270" type="line"/>
      <point x="578" y="1374" type="line"/>
      <point x="20" y="1374" type="line"/>
      <point x="20" y="1270" type="line"/>
      <point x="145" y="1253" type="line"/>
      <point x="487" y="-33" type="line"/>
      <point x="684" y="-33" type="line"/>
      <point x="997" y="1032" type="line"/>
      <point x="1317" y="-33" type="line"/>
      <point x="1511" y="-33" type="line"/>
      <point x="1833" y="1253" type="line"/>
    </contour>
  </outline>
</glyph>
<glyph name="ReverseSolidus" format="2">
  <advance width="1012"/>
  <unicode hex="005C"/>
  <outline>
    <contour>
      <point x="1012" y="-190" type="line"/>
      <point x="160" y="1374" type="line"/>
      <point x="0" y="1374" type="line"/>
      <point x="852" y="-190" type="line"/>
    </contour>
  </outline>
</glyph>
<glyph name="LowLine" format="2">
  <advance width="696"/>
  <unicode hex="005F"/>
  <outline>
    <contour>
      <point x="696" y="-340" type="line"/>
      <point x="696" y="-175" type="line"/>
      <point x="0" y="-175" type="line"/>
      <point x="0" y="-340" type="line"/>
    </contour>
  </outline>
</glyph>
<glyph name="LtnSmB" format="2">
  <advance width="1225"/>
  <unicode hex="0062"/>
  <anchor x="613" y="0" name="H"/>
  <anchor x="656" y="-100" name="L"/>
  <anchor x="1225" y="1000" name="R"/>
  <anchor x="656" y="1540" name="U"/>
  <outline>
    <contour>
      <point x="1159" y="561" type="curve" smooth="yes"/>
      <point x="1159" y="854"/>
      <point x="975" y="1024"/>
      <point x="756" y="1024" type="curve" smooth="yes"/>
      <point x="644" y="1024"/>
      <point x="520" y="970"/>
      <point x="459" y="930" type="curve"/>
      <point x="459" y="1516" type="line"/>
      <point x="354" y="1516" type="line"/>
      <point x="41" y="1413" type="line"/>
      <point x="41" y="1329" type="line"/>
      <point x="184" y="1329" type="line"/>
      <point x="184" y="0" type="line"/>
      <point x="559" y="0" type="line" smooth="yes"/>
      <point x="942" y="0"/>
      <point x="1159" y="246"/>
    </contour>
    <contour>
      <point x="862" y="500" type="curve" smooth="yes"/>
      <point x="862" y="209"/>
      <point x="729" y="113"/>
      <point x="502" y="113" type="curve" smooth="yes"/>
      <point x="489" y="113"/>
      <point x="473" y="114"/>
      <point x="459" y="115" type="curve"/>
      <point x="459" y="842" type="line"/>
      <point x="484" y="847"/>
      <point x="531" y="854"/>
      <point x="567" y="854" type="curve" smooth="yes"/>
      <point x="760" y="854"/>
      <point x="862" y="721"/>
    </contour>
  </outline>
</glyph>
<glyph name="LtnSmK" format="2">
  <advance width="1212"/>
  <unicode hex="006B"/>
  <anchor x="321" y="0" name="H"/>
  <anchor x="617" y="-100" name="L"/>
  <anchor x="1212" y="1000" name="R"/>
  <anchor x="617" y="1540" name="U"/>
  <outline>
    <contour>
      <point x="1194" y="0" type="line"/>
      <point x="1194" y="96" type="line"/>
      <point x="1073" y="106" type="line"/>
      <point x="758" y="637" type="line"/>
      <point x="977" y="887" type="line"/>
      <point x="1112" y="903" type="line"/>
      <point x="1112" y="999" type="line"/>
      <point x="686" y="999" type="line"/>
      <point x="686" y="903" type="line"/>
      <point x="764" y="895" type="line" smooth="yes"/>
      <point x="784" y="893"/>
      <point x="791" y="874"/>
      <point x="778" y="860" type="curve" smooth="yes"/>
      <point x="504" y="532" type="line"/>
      <point x="459" y="532" type="line"/>
      <point x="459" y="1516" type="line"/>
      <point x="354" y="1516" type="line"/>
      <point x="41" y="1413" type="line"/>
      <point x="41" y="1329" type="line"/>
      <point x="184" y="1329" type="line"/>
      <point x="184" y="150" type="line" smooth="yes"/>
      <point x="184" y="125"/>
      <point x="164" y="104"/>
      <point x="139" y="102" type="curve" smooth="yes"/>
      <point x="53" y="96" type="line"/>
      <point x="53" y="0" type="line"/>
      <point x="586" y="0" type="line"/>
      <point x="586" y="96" type="line"/>
      <point x="504" y="102" type="line" smooth="yes"/>
      <point x="477" y="104"/>
      <point x="459" y="125"/>
      <point x="459" y="150" type="curve" smooth="yes"/>
      <point x="459" y="463" type="line"/>
      <point x="555" y="463" type="line"/>
      <point x="780" y="84" type="line"/>
      <point x="780" y="0" type="line"/>
    </contour>
  </outline>
</glyph>
<glyph name="LtnSmM" format="2">
  <advance width="1855"/>
  <unicode hex="006D"/>
  <anchor x="1543" y="0" name="H"/>
  <anchor x="921" y="-100" name="L"/>
  <anchor x="1059" y="0" name="O"/>
  <anchor x="921" y="1100" name="U"/>
  <outline>
    <contour>
      <point x="1798" y="0" type="line"/>
      <point x="1798" y="96" type="line"/>
      <point x="1724" y="102" type="line" smooth="yes"/>
      <point x="1700" y="104"/>
      <point x="1679" y="125"/>
      <point x="1679" y="150" type="curve" smooth="yes"/>
      <point x="1679" y="711" type="line" smooth="yes"/>
      <point x="1679" y="807"/>
      <point x="1645" y="1024"/>
      <point x="1397" y="1024" type="curve" smooth="yes"/>
      <point x="1280" y="1024"/>
      <point x="1120" y="945"/>
      <point x="1032" y="885" type="curve"/>
      <point x="1007" y="935"/>
      <point x="940" y="1024"/>
      <point x="784" y="1024" type="curve" smooth="yes"/>
      <point x="668" y="1024"/>
      <point x="525" y="953"/>
      <point x="449" y="899" type="curve"/>
      <point x="449" y="1024" type="line"/>
      <point x="346" y="1024" type="line"/>
      <point x="45" y="920" type="line"/>
      <point x="45" y="836" type="line"/>
      <point x="176" y="836" type="line"/>
      <point x="176" y="150" type="line" smooth="yes"/>
      <point x="176" y="125"/>
      <point x="156" y="104"/>
      <point x="131" y="102" type="curve" smooth="yes"/>
      <point x="55" y="96" type="line"/>
      <point x="55" y="0" type="line"/>
      <point x="559" y="0" type="line"/>
      <point x="559" y="96" type="line"/>
      <point x="496" y="102" type="line" smooth="yes"/>
      <point x="471" y="104"/>
      <point x="449" y="125"/>
      <point x="449" y="150" type="curve" smooth="yes"/>
      <point x="449" y="803" type="line"/>
      <point x="472" y="817"/>
      <point x="532" y="836"/>
      <point x="614" y="836" type="curve" smooth="yes"/>
      <point x="741" y="836"/>
      <point x="791" y="743"/>
      <point x="791" y="643" type="curve" smooth="yes"/>
      <point x="791" y="150" type="line" smooth="yes"/>
      <point x="791" y="125"/>
      <point x="770" y="104"/>
      <point x="745" y="102" type="curve" smooth="yes"/>
      <point x="682" y="96" type="line"/>
      <point x="682" y="0" type="line"/>
      <point x="1174" y="0" type="line"/>
      <point x="1174" y="96" type="line"/>
      <point x="1110" y="102" type="line" smooth="yes"/>
      <point x="1085" y="104"/>
      <point x="1065" y="125"/>
      <point x="1065" y="150" type="curve" smooth="yes"/>
      <point x="1065" y="803" type="line"/>
      <point x="1098" y="817"/>
      <point x="1165" y="836"/>
      <point x="1229" y="836" type="curve" smooth="yes"/>
      <point x="1364" y="836"/>
      <point x="1407" y="743"/>
      <point x="1407" y="643" type="curve" smooth="yes"/>
      <point x="1407" y="150" type="line" smooth="yes"/>
      <point x="1407" y="125"/>
      <point x="1384" y="104"/>
      <point x="1360" y="102" type="curve" smooth="yes"/>
      <point x="1296" y="96" type="line"/>
      <point x="1296" y="0" type="line"/>
    </contour>
  </outline>
</glyph>
<glyph name="LtnSmP" format="2">
  <advance width="1237"/>
  <unicode hex="0070"/>
  <anchor x="329" y="-435" name="H"/>
  <anchor x="849" y="-100" name="L"/>
  <anchor x="1237" y="1000" name="R"/>
  <anchor x="610" y="1100" name="U"/>
  <outline>
    <contour>
      <point x="1171" y="528" type="curve" smooth="yes"/>
      <point x="1171" y="772"/>
      <point x="1038" y="1024"/>
      <point x="788" y="1024" type="curve" smooth="yes"/>
      <point x="678" y="1024"/>
      <point x="559" y="968"/>
      <point x="459" y="895" type="curve"/>
      <point x="459" y="1024" type="line"/>
      <point x="352" y="1024" type="line"/>
      <point x="49" y="920" type="line"/>
      <point x="49" y="836" type="line"/>
      <point x="184" y="836" type="line"/>
      <point x="184" y="-299" type="line" smooth="yes"/>
      <point x="184" y="-326"/>
      <point x="164" y="-344"/>
      <point x="139" y="-346" type="curve"/>
      <point x="49" y="-352" type="line"/>
      <point x="49" y="-449" type="line"/>
      <point x="612" y="-449" type="line"/>
      <point x="612" y="-352" type="line"/>
      <point x="504" y="-346" type="line"/>
      <point x="477" y="-345"/>
      <point x="459" y="-326"/>
      <point x="459" y="-299" type="curve" smooth="yes"/>
      <point x="459" y="-4" type="line"/>
      <point x="511" y="-15"/>
      <point x="565" y="-25"/>
      <point x="618" y="-25" type="curve" smooth="yes"/>
      <point x="956" y="-25"/>
      <point x="1171" y="197"/>
    </contour>
    <contour>
      <point x="868" y="498" type="curve" smooth="yes"/>
      <point x="868" y="268"/>
      <point x="768" y="86"/>
      <point x="571" y="86" type="curve" smooth="yes"/>
      <point x="534" y="86"/>
      <point x="496" y="98"/>
      <point x="459" y="111" type="curve"/>
      <point x="459" y="807" type="line"/>
      <point x="507" y="823"/>
      <point x="560" y="838"/>
      <point x="610" y="838" type="curve"/>
      <point x="788" y="838"/>
      <point x="868" y="678"/>
    </contour>
  </outline>
</glyph>
<glyph name="LtnSmS" format="2">
  <advance width="911"/>
  <unicode hex="0073"/>
  <anchor x="460" y="0" name="H"/>
  <anchor x="460" y="-100" name="L"/>
  <anchor x="480" y="1100" name="U"/>
  <outline>
    <contour>
      <point x="815" y="686" type="line"/>
      <point x="815" y="969" type="line"/>
      <point x="762" y="993"/>
      <point x="637" y="1024"/>
      <point x="489" y="1024" type="curve" smooth="yes"/>
      <point x="250" y="1024"/>
      <point x="78" y="903"/>
      <point x="78" y="713" type="curve" smooth="yes"/>
      <point x="78" y="581"/>
      <point x="170" y="505"/>
      <point x="374" y="409" type="curve" smooth="yes"/>
      <point x="498" y="351"/>
      <point x="586" y="309"/>
      <point x="586" y="227" type="curve" smooth="yes"/>
      <point x="586" y="180"/>
      <point x="549" y="96"/>
      <point x="410" y="96" type="curve" smooth="yes"/>
      <point x="344" y="96"/>
      <point x="225" y="141"/>
      <point x="219" y="154" type="curve"/>
      <point x="195" y="342" type="line"/>
      <point x="66" y="342" type="line"/>
      <point x="66" y="31" type="line"/>
      <point x="136" y="7"/>
      <point x="283" y="-25"/>
      <point x="430" y="-25" type="curve" smooth="yes"/>
      <point x="633" y="-25"/>
      <point x="848" y="61"/>
      <point x="848" y="299" type="curve" smooth="yes"/>
      <point x="848" y="452"/>
      <point x="696" y="529"/>
      <point x="559" y="598" type="curve" smooth="yes"/>
      <point x="451" y="652"/>
      <point x="352" y="707"/>
      <point x="352" y="788" type="curve" smooth="yes"/>
      <point x="352" y="860"/>
      <point x="410" y="901"/>
      <point x="506" y="901" type="curve" smooth="yes"/>
      <point x="580" y="901"/>
      <point x="639" y="881"/>
      <point x="666" y="850" type="curve"/>
      <point x="688" y="686" type="line"/>
    </contour>
  </outline>
</glyph>
<glyph name="LtnSmU" format="2">
  <advance width="1270"/>
  <unicode hex="0075"/>
  <anchor x="637" y="0" name="H"/>
  <anchor x="637" y="-100" name="L"/>
  <anchor x="1083" y="0" name="O"/>
  <anchor x="1270" y="1000" name="R"/>
  <anchor x="637" y="1100" name="U"/>
  <outline>
    <contour>
      <point x="1223" y="0" type="line"/>
      <point x="1223" y="96" type="line"/>
      <point x="1133" y="102" type="line" smooth="yes"/>
      <point x="1108" y="104"/>
      <point x="1085" y="125"/>
      <point x="1085" y="150" type="curve" smooth="yes"/>
      <point x="1085" y="1024" type="line"/>
      <point x="981" y="1024" type="line"/>
      <point x="682" y="922" type="line"/>
      <point x="682" y="838" type="line"/>
      <point x="811" y="838" type="line"/>
      <point x="811" y="197" type="line"/>
      <point x="811" y="197"/>
      <point x="733" y="162"/>
      <point x="647" y="162" type="curve" smooth="yes"/>
      <point x="473" y="162"/>
      <point x="459" y="289"/>
      <point x="459" y="389" type="curve" smooth="yes"/>
      <point x="459" y="1024" type="line"/>
      <point x="352" y="1024" type="line"/>
      <point x="51" y="922" type="line"/>
      <point x="51" y="838" type="line"/>
      <point x="184" y="838" type="line"/>
      <point x="184" y="309" type="line" smooth="yes"/>
      <point x="184" y="100"/>
      <point x="254" y="-25"/>
      <point x="487" y="-25" type="curve" smooth="yes"/>
      <point x="637" y="-25"/>
      <point x="811" y="113"/>
      <point x="811" y="113" type="curve"/>
      <point x="811" y="0" type="line"/>
    </contour>
  </outline>
</glyph>
<glyph name="LtnSmW" format="2">
  <advance width="1722"/>
  <unicode hex="0077"/>
  <anchor x="862" y="-100" name="L"/>
  <anchor x="892" y="1100" name="U"/>
  <outline>
    <contour>
      <point x="1704" y="903" type="line"/>
      <point x="1704" y="999" type="line"/>
      <point x="1311" y="999" type="line"/>
      <point x="1311" y="903" type="line"/>
      <point x="1401" y="897" type="line" smooth="yes"/>
      <point x="1423" y="895"/>
      <point x="1436" y="872"/>
      <point x="1430" y="852" type="curve" smooth="yes"/>
      <point x="1260" y="285" type="line"/>
      <point x="1040" y="999" type="line"/>
      <point x="815" y="999" type="line"/>
      <point x="586" y="289" type="line"/>
      <point x="426" y="852" type="line" smooth="yes"/>
      <point x="420" y="874"/>
      <point x="434" y="895"/>
      <point x="457" y="897" type="curve" smooth="yes"/>
      <point x="545" y="903" type="line"/>
      <point x="545" y="999" type="line"/>
      <point x="20" y="999" type="line"/>
      <point x="20" y="903" type="line"/>
      <point x="141" y="891" type="line"/>
      <point x="406" y="0" type="line"/>
      <point x="629" y="0" type="line"/>
      <point x="864" y="727" type="line"/>
      <point x="1087" y="0" type="line"/>
      <point x="1315" y="0" type="line"/>
      <point x="1589" y="889" type="line"/>
    </contour>
  </outline>
</glyph>
<glyph name="LtnSmX" format="2">
  <advance width="1118"/>
  <unicode hex="0078"/>
  <anchor x="842" y="0" name="H"/>
  <anchor x="560" y="-100" name="L"/>
  <anchor x="560" y="1100" name="U"/>
  <outline>
    <contour>
      <point x="1100" y="0" type="line"/>
      <point x="1100" y="96" type="line"/>
      <point x="991" y="113" type="line"/>
      <point x="676" y="553" type="line"/>
      <point x="948" y="889" type="line"/>
      <point x="1063" y="903" type="line"/>
      <point x="1063" y="999" type="line"/>
      <point x="682" y="999" type="line"/>
      <point x="682" y="903" type="line"/>
      <point x="748" y="897" type="line" smooth="yes"/>
      <point x="768" y="895"/>
      <point x="772" y="874"/>
      <point x="762" y="860" type="curve" smooth="yes"/>
      <point x="598" y="662" type="line"/>
      <point x="455" y="860" type="line"/>
      <point x="442" y="874"/>
      <point x="446" y="895"/>
      <point x="469" y="897" type="curve" smooth="yes"/>
      <point x="528" y="903" type="line"/>
      <point x="528" y="999" type="line"/>
      <point x="25" y="999" type="line"/>
      <point x="25" y="903" type="line"/>
      <point x="133" y="889" type="line"/>
      <point x="436" y="467" type="line"/>
      <point x="143" y="113" type="line"/>
      <point x="20" y="96" type="line"/>
      <point x="20" y="0" type="line"/>
      <point x="420" y="0" type="line"/>
      <point x="420" y="96" type="line"/>
      <point x="348" y="104" type="line" smooth="yes"/>
      <point x="328" y="106"/>
      <point x="322" y="125"/>
      <point x="334" y="139" type="curve" smooth="yes"/>
      <point x="514" y="360" type="line"/>
      <point x="676" y="139" type="line" smooth="yes"/>
      <point x="686" y="123"/>
      <point x="680" y="106"/>
      <point x="659" y="104" type="curve" smooth="yes"/>
      <point x="580" y="96" type="line"/>
      <point x="580" y="0" type="line"/>
    </contour>
  </outline>
</glyph>
<glyph name="LftCurlyBrac" format="2">
  <advance width="1014"/>
  <unicode hex="007B"/>
  <outline>
    <contour>
      <point x="864" y="-250" type="curve"/>
      <point x="864" y="-137" type="line"/>
      <point x="805" y="-137"/>
      <point x="717" y="-128"/>
      <point x="670" y="-82" type="curve" smooth="yes"/>
      <point x="610" y="-23"/>
      <point x="614" y="80"/>
      <point x="614" y="188" type="curve" smooth="yes"/>
      <point x="614" y="311"/>
      <point x="607" y="421"/>
      <point x="528" y="502" type="curve" smooth="yes"/>
      <point x="463" y="568"/>
      <point x="366" y="596"/>
      <point x="303" y="598" type="curve"/>
      <point x="365" y="600"/>
      <point x="451" y="619"/>
      <point x="524" y="688" type="curve" smooth="yes"/>
      <point x="615" y="774"/>
      <point x="614" y="903"/>
      <point x="614" y="1023" type="curve" smooth="yes"/>
      <point x="614" y="1126"/>
      <point x="613" y="1222"/>
      <point x="670" y="1278" type="curve" smooth="yes"/>
      <point x="719" y="1326"/>
      <point x="809" y="1333"/>
      <point x="864" y="1333" type="curve"/>
      <point x="864" y="1446" type="line"/>
      <point x="727" y="1446"/>
      <point x="546" y="1440"/>
      <point x="459" y="1362" type="curve" smooth="yes"/>
      <point x="361" y="1274"/>
      <point x="357" y="1133"/>
      <point x="359" y="1002" type="curve" smooth="yes"/>
      <point x="360" y="883"/>
      <point x="366" y="770"/>
      <point x="309" y="715" type="curve" smooth="yes"/>
      <point x="261" y="669"/>
      <point x="220" y="659"/>
      <point x="84" y="659" type="curve"/>
      <point x="84" y="537" type="line"/>
      <point x="215" y="537"/>
      <point x="257" y="527"/>
      <point x="309" y="479" type="curve" smooth="yes"/>
      <point x="370" y="422"/>
      <point x="360" y="305"/>
      <point x="359" y="184" type="curve" smooth="yes"/>
      <point x="357" y="55"/>
      <point x="363" y="-81"/>
      <point x="459" y="-166" type="curve" smooth="yes"/>
      <point x="561" y="-258"/>
      <point x="817" y="-250"/>
    </contour>
  </outline>
</glyph>
<glyph name="InvExclamationMrk" format="2">
  <advance width="696"/>
  <unicode hex="00A1"/>
  <outline>
    <contour>
      <point x="512" y="856" type="curve" smooth="yes"/>
      <point x="512" y="977"/>
      <point x="414" y="1024"/>
      <point x="346" y="1024" type="curve" smooth="yes"/>
      <point x="258" y="1024"/>
      <point x="182" y="950"/>
      <point x="182" y="856" type="curve" smooth="yes"/>
      <point x="182" y="756"/>
      <point x="270" y="694"/>
      <point x="346" y="694" type="curve" smooth="yes"/>
      <point x="424" y="694"/>
      <point x="512" y="750"/>
    </contour>
    <contour>
      <point x="514" y="-242" type="curve"/>
      <point x="401" y="573" type="line"/>
      <point x="291" y="573" type="line"/>
      <point x="180" y="-242" type="line"/>
      <point x="180" y="-356"/>
      <point x="256" y="-408"/>
      <point x="346" y="-408" type="curve" smooth="yes"/>
      <point x="438" y="-408"/>
      <point x="514" y="-354"/>
    </contour>
  </outline>
</glyph>
<glyph name="CentSgn" format="2">
  <advance width="1202"/>
  <unicode hex="00A2"/>
  <outline>
    <contour>
      <point x="659" y="-211" type="line"/>
      <point x="776" y="-211" type="line"/>
      <point x="776" y="0" type="line"/>
      <point x="821" y="0"/>
      <point x="1040" y="27"/>
      <point x="1067" y="55" type="curve"/>
      <point x="1067" y="360" type="line"/>
      <point x="940" y="360" type="line"/>
      <point x="915" y="197" type="line"/>
      <point x="915" y="183"/>
      <point x="915" y="170"/>
      <point x="915" y="156" type="curve"/>
      <point x="915" y="156"/>
      <point x="870" y="123"/>
      <point x="776" y="123" type="curve"/>
      <point x="776" y="932" type="line"/>
      <point x="829" y="932"/>
      <point x="899" y="905"/>
      <point x="918" y="891" type="curve"/>
      <point x="918" y="875"/>
      <point x="918" y="860"/>
      <point x="918" y="844" type="curve"/>
      <point x="940" y="696" type="line"/>
      <point x="1067" y="696" type="line"/>
      <point x="1067" y="991" type="line"/>
      <point x="997" y="1024"/>
      <point x="866" y="1053"/>
      <point x="776" y="1053" type="curve"/>
      <point x="776" y="1260" type="line"/>
      <point x="659" y="1260" type="line"/>
      <point x="659" y="1049" type="line"/>
      <point x="373" y="1049"/>
      <point x="135" y="827"/>
      <point x="135" y="516" type="curve" smooth="yes"/>
      <point x="135" y="227"/>
      <point x="375" y="2"/>
      <point x="659" y="2" type="curve"/>
    </contour>
    <contour>
      <point x="659" y="127" type="line"/>
      <point x="537" y="158"/>
      <point x="418" y="297"/>
      <point x="418" y="516" type="curve" smooth="yes"/>
      <point x="418" y="793"/>
      <point x="549" y="905"/>
      <point x="659" y="928" type="curve"/>
    </contour>
  </outline>
</glyph>
<glyph name="NotSgn" format="2">
  <advance width="1270"/>
  <unicode hex="00AC"/>
  <outline>
    <contour>
      <point x="1188" y="387" type="line"/>
      <point x="1188" y="860" type="line"/>
      <point x="82" y="860" type="line"/>
      <point x="82" y="737" type="line"/>
      <point x="1065" y="737" type="line"/>
      <point x="1065" y="387" type="line"/>
    </contour>
  </outline>
</glyph>
<glyph name="DegreeSgn" format="2">
  <advance width="655"/>
  <unicode hex="00B0"/>
  <outline>
    <contour>
      <point x="553" y="1249" type="curve" smooth="yes"/>
      <point x="553" y="1374"/>
      <point x="453" y="1475"/>
      <point x="328" y="1475" type="curve" smooth="yes"/>
      <point x="203" y="1475"/>
      <point x="102" y="1374"/>
      <point x="102" y="1249" type="curve" smooth="yes"/>
      <point x="102" y="1124"/>
      <point x="203" y="1024"/>
      <point x="328" y="1024" type="curve" smooth="yes"/>
      <point x="453" y="1024"/>
      <point x="553" y="1124"/>
    </contour>
    <contour>
      <point x="471" y="1249" type="curve" smooth="yes"/>
      <point x="471" y="1169"/>
      <point x="408" y="1106"/>
      <point x="328" y="1106" type="curve" smooth="yes"/>
      <point x="248" y="1106"/>
      <point x="184" y="1169"/>
      <point x="184" y="1249" type="curve" smooth="yes"/>
      <point x="184" y="1329"/>
      <point x="248" y="1393"/>
      <point x="328" y="1393" type="curve" smooth="yes"/>
      <point x="408" y="1393"/>
      <point x="471" y="1329"/>
    </contour>
  </outline>
</glyph>
<glyph name="SupTwo" format="2">
  <advance width="780"/>
  <unicode hex="00B2"/>
  <anchor x="390" y="725" name="L"/>
  <anchor x="390" y="1650" name="U"/>
  <outline>
    <contour>
      <point x="723" y="784" type="line"/>
      <point x="723" y="1024" type="line"/>
      <point x="637" y="1024" type="line"/>
      <point x="612" y="918" type="line"/>
      <point x="233" y="918" type="line"/>
      <point x="498" y="1077"/>
      <point x="694" y="1208"/>
      <point x="694" y="1384" type="curve" smooth="yes"/>
      <point x="694" y="1532"/>
      <point x="561" y="1628"/>
      <point x="393" y="1628" type="curve" smooth="yes"/>
      <point x="276" y="1628"/>
      <point x="68" y="1585"/>
      <point x="68" y="1432" type="curve" smooth="yes"/>
      <point x="68" y="1376"/>
      <point x="102" y="1341"/>
      <point x="168" y="1341" type="curve" smooth="yes"/>
      <point x="209" y="1341"/>
      <point x="258" y="1364"/>
      <point x="258" y="1364" type="curve"/>
      <point x="258" y="1530" type="line"/>
      <point x="289" y="1538"/>
      <point x="299" y="1546"/>
      <point x="336" y="1546" type="curve" smooth="yes"/>
      <point x="434" y="1546"/>
      <point x="500" y="1470"/>
      <point x="500" y="1374" type="curve" smooth="yes"/>
      <point x="500" y="1157"/>
      <point x="164" y="969"/>
      <point x="57" y="887" type="curve"/>
      <point x="57" y="784" type="line"/>
    </contour>
  </outline>
</glyph>
<glyph name="PilcrowSgn" format="2">
  <advance width="1065"/>
  <unicode hex="00B6"/>
  <outline>
    <contour>
      <point x="733" y="-162" type="line"/>
      <point x="883" y="-162" type="line"/>
      <point x="883" y="1239" type="line"/>
      <point x="1010" y="1257" type="line"/>
      <point x="1010" y="1374" type="line"/>
      <point x="559" y="1374" type="line" smooth="yes"/>
      <point x="248" y="1374"/>
      <point x="55" y="1272"/>
      <point x="55" y="961" type="curve" smooth="yes"/>
      <point x="55" y="633"/>
      <point x="283" y="551"/>
      <point x="606" y="551" type="curve"/>
      <point x="606" y="1245" type="line"/>
      <point x="733" y="1245" type="line"/>
    </contour>
  </outline>
</glyph>
<glyph name="SupOne" format="2">
  <advance width="780"/>
  <unicode hex="00B9"/>
  <anchor x="358" y="725" name="L"/>
  <anchor x="358" y="1650" name="U"/>
  <outline>
    <contour>
      <point x="618" y="784" type="line"/>
      <point x="618" y="848" type="line"/>
      <point x="512" y="852" type="line" smooth="yes"/>
      <point x="498" y="852"/>
      <point x="483" y="864"/>
      <point x="483" y="879" type="curve" smooth="yes"/>
      <point x="483" y="1628" type="line"/>
      <point x="385" y="1628" type="line"/>
      <point x="98" y="1532" type="line"/>
      <point x="98" y="1466" type="line"/>
      <point x="297" y="1493" type="line"/>
      <point x="297" y="879" type="line" smooth="yes"/>
      <point x="297" y="864"/>
      <point x="285" y="852"/>
      <point x="268" y="852" type="curve" smooth="yes"/>
      <point x="154" y="848" type="line"/>
      <point x="154" y="784" type="line"/>
    </contour>
  </outline>
</glyph>
<glyph name="MascOrdIndicator" format="2">
  <advance width="778"/>
  <unicode hex="00BA"/>
  <outline>
    <contour>
      <point x="735" y="1079" type="curve" smooth="yes"/>
      <point x="735" y="1268"/>
      <point x="614" y="1399"/>
      <point x="395" y="1399" type="curve" smooth="yes"/>
      <point x="188" y="1399"/>
      <point x="43" y="1282"/>
      <point x="43" y="1081" type="curve" smooth="yes"/>
      <point x="43" y="887"/>
      <point x="182" y="770"/>
      <point x="385" y="770" type="curve" smooth="yes"/>
      <point x="606" y="770"/>
      <point x="735" y="897"/>
    </contour>
    <contour>
      <point x="696" y="612" type="line"/>
      <point x="696" y="684" type="line"/>
      <point x="84" y="684" type="line"/>
      <point x="84" y="612" type="line"/>
    </contour>
    <contour>
      <point x="539" y="1081" type="curve" smooth="yes"/>
      <point x="539" y="973"/>
      <point x="512" y="838"/>
      <point x="391" y="838" type="curve" smooth="yes"/>
      <point x="266" y="838"/>
      <point x="242" y="981"/>
      <point x="242" y="1085" type="curve" smooth="yes"/>
      <point x="242" y="1192"/>
      <point x="268" y="1329"/>
      <point x="389" y="1329" type="curve" smooth="yes"/>
      <point x="510" y="1329"/>
      <point x="539" y="1186"/>
    </contour>
  </outline>
</glyph>
<glyph name="RtPtngDblAngQuotMrk" format="2">
  <advance width="920"/>
  <unicode hex="00BB"/>
  <outline>
    <contour>
      <point x="540" y="987" type="line"/>
      <point x="390" y="987" type="line"/>
      <point x="645" y="494" type="line"/>
      <point x="390" y="0" type="line"/>
      <point x="540" y="0" type="line"/>
      <point x="870" y="443" type="line"/>
      <point x="870" y="546" type="line"/>
    </contour>
    <contour>
      <point x="160" y="987" type="line"/>
      <point x="10" y="987" type="line"/>
      <point x="265" y="494" type="line"/>
      <point x="10" y="0" type="line"/>
      <point x="160" y="0" type="line"/>
      <point x="490" y="443" type="line"/>
      <point x="490" y="546" type="line"/>
    </contour>
  </outline>
</glyph>
<glyph name="VulgFracThreeQuarters" format="2">
  <advance width="1858"/>
  <unicode hex="00BE"/>
  <outline>
    <contour>
      <point x="1786" y="219" type="line"/>
      <point x="1786" y="319" type="line"/>
      <point x="1636" y="319" type="line"/>
      <point x="1636" y="831" type="line"/>
      <point x="1493" y="831" type="line"/>
      <point x="1057" y="324" type="line"/>
      <point x="1057" y="219" type="line"/>
      <point x="1466" y="219" type="line"/>
      <point x="1466" y="-37" type="line"/>
      <point x="1636" y="-37" type="line"/>
      <point x="1636" y="219" type="line"/>
    </contour>
    <contour>
      <point x="1489" y="1423" type="line"/>
      <point x="1339" y="1423" type="line"/>
      <point x="434" y="0" type="line"/>
      <point x="584" y="0" type="line"/>
    </contour>
    <contour>
      <point x="723" y="842" type="curve" smooth="yes"/>
      <point x="723" y="1024"/>
      <point x="498" y="1040"/>
      <point x="463" y="1038" type="curve" smooth="yes"/>
      <point x="500" y="1042"/>
      <point x="690" y="1079"/>
      <point x="690" y="1235" type="curve" smooth="yes"/>
      <point x="690" y="1382"/>
      <point x="539" y="1444"/>
      <point x="393" y="1444" type="curve" smooth="yes"/>
      <point x="225" y="1444"/>
      <point x="94" y="1374"/>
      <point x="94" y="1272" type="curve" smooth="yes"/>
      <point x="94" y="1212"/>
      <point x="143" y="1184"/>
      <point x="199" y="1184" type="curve" smooth="yes"/>
      <point x="221" y="1184"/>
      <point x="246" y="1186"/>
      <point x="270" y="1200" type="curve"/>
      <point x="270" y="1352" type="line"/>
      <point x="270" y="1352"/>
      <point x="307" y="1362"/>
      <point x="332" y="1362" type="curve" smooth="yes"/>
      <point x="430" y="1362"/>
      <point x="496" y="1298"/>
      <point x="496" y="1221" type="curve" smooth="yes"/>
      <point x="496" y="1104"/>
      <point x="397" y="1069"/>
      <point x="299" y="1069" type="curve" smooth="yes"/>
      <point x="287" y="1069"/>
      <point x="276" y="1067"/>
      <point x="262" y="1069" type="curve"/>
      <point x="262" y="977" type="line"/>
      <point x="262" y="977"/>
      <point x="307" y="983"/>
      <point x="348" y="983" type="curve" smooth="yes"/>
      <point x="471" y="983"/>
      <point x="528" y="911"/>
      <point x="528" y="834" type="curve" smooth="yes"/>
      <point x="528" y="737"/>
      <point x="453" y="668"/>
      <point x="360" y="668" type="curve" smooth="yes"/>
      <point x="324" y="668"/>
      <point x="299" y="676"/>
      <point x="270" y="684" type="curve"/>
      <point x="227" y="823" type="line"/>
      <point x="213" y="829"/>
      <point x="195" y="836"/>
      <point x="170" y="836" type="curve" smooth="yes"/>
      <point x="129" y="836"/>
      <point x="74" y="819"/>
      <point x="74" y="750" type="curve" smooth="yes"/>
      <point x="74" y="670"/>
      <point x="174" y="592"/>
      <point x="348" y="592" type="curve" smooth="yes"/>
      <point x="545" y="592"/>
      <point x="723" y="682"/>
    </contour>
    <contour>
      <point x="1466" y="319" type="line"/>
      <point x="1184" y="319" type="line"/>
      <point x="1466" y="653" type="line"/>
    </contour>
  </outline>
</glyph>
<glyph name="InvQstnMrk" format="2">
  <advance width="1069"/>
  <unicode hex="00BF"/>
  <outline>
    <contour>
      <point x="801" y="858" type="curve" smooth="yes"/>
      <point x="801" y="946"/>
      <point x="733" y="1024"/>
      <point x="645" y="1024" type="curve" smooth="yes"/>
      <point x="555" y="1024"/>
      <point x="477" y="956"/>
      <point x="477" y="866" type="curve" smooth="yes"/>
      <point x="477" y="774"/>
      <point x="545" y="694"/>
      <point x="643" y="694" type="curve" smooth="yes"/>
      <point x="731" y="694"/>
      <point x="801" y="768"/>
    </contour>
    <contour>
      <point x="979" y="-164" type="curve" smooth="yes"/>
      <point x="979" y="-37"/>
      <point x="856" y="-33"/>
      <point x="803" y="-33" type="curve" smooth="yes"/>
      <point x="782" y="-33"/>
      <point x="778" y="-37"/>
      <point x="778" y="-37" type="curve"/>
      <point x="686" y="-283" type="line"/>
      <point x="506" y="-283"/>
      <point x="418" y="-174"/>
      <point x="418" y="-23" type="curve" smooth="yes"/>
      <point x="418" y="258"/>
      <point x="715" y="322"/>
      <point x="715" y="322" type="curve"/>
      <point x="715" y="594" type="line"/>
      <point x="575" y="594" type="line"/>
      <point x="575" y="420" type="line"/>
      <point x="575" y="420"/>
      <point x="131" y="330"/>
      <point x="131" y="-18" type="curve" smooth="yes"/>
      <point x="131" y="-256"/>
      <point x="332" y="-408"/>
      <point x="596" y="-408" type="curve" smooth="yes"/>
      <point x="762" y="-408"/>
      <point x="979" y="-342"/>
    </contour>
  </outline>
</glyph>
<glyph name="LtnSmSharpS" format="2">
  <advance width="1386"/>
  <unicode hex="00DF"/>
  <anchor x="689" y="-100" name="L"/>
  <anchor x="689" y="1540" name="U"/>
  <outline>
    <contour>
      <point x="920" y="-25" type="curve" smooth="yes"/>
      <point x="1133" y="-25"/>
      <point x="1323" y="109"/>
      <point x="1323" y="322" type="curve" smooth="yes"/>
      <point x="1323" y="608"/>
      <point x="911" y="649"/>
      <point x="911" y="825" type="curve" smooth="yes"/>
      <point x="911" y="928"/>
      <point x="1006" y="969"/>
      <point x="1096" y="971" type="curve" smooth="yes"/>
      <point x="1110" y="971"/>
      <point x="1133" y="973"/>
      <point x="1157" y="969" type="curve"/>
      <point x="1171" y="1020"/>
      <point x="1178" y="1081"/>
      <point x="1178" y="1147" type="curve" smooth="yes"/>
      <point x="1178" y="1407"/>
      <point x="969" y="1530"/>
      <point x="762" y="1530" type="curve" smooth="yes"/>
      <point x="268" y="1530"/>
      <point x="184" y="1102"/>
      <point x="184" y="907" type="curve" smooth="yes"/>
      <point x="184" y="147" type="line" smooth="yes"/>
      <point x="184" y="119"/>
      <point x="162" y="104"/>
      <point x="137" y="102" type="curve" smooth="yes"/>
      <point x="55" y="96" type="line"/>
      <point x="55" y="0" type="line"/>
      <point x="588" y="0" type="line"/>
      <point x="588" y="96" type="line"/>
      <point x="506" y="102" type="line" smooth="yes"/>
      <point x="481" y="104"/>
      <point x="459" y="119"/>
      <point x="459" y="147" type="curve" smooth="yes"/>
      <point x="459" y="1012" type="line" smooth="yes"/>
      <point x="459" y="1061"/>
      <point x="453" y="1405"/>
      <point x="711" y="1405" type="curve" smooth="yes"/>
      <point x="840" y="1405"/>
      <point x="895" y="1268"/>
      <point x="895" y="1167" type="curve" smooth="yes"/>
      <point x="895" y="1122"/>
      <point x="877" y="1010"/>
      <point x="877" y="1010" type="curve"/>
      <point x="745" y="977"/>
      <point x="645" y="889"/>
      <point x="645" y="735" type="curve" smooth="yes"/>
      <point x="645" y="451"/>
      <point x="1067" y="475"/>
      <point x="1067" y="248" type="curve" smooth="yes"/>
      <point x="1067" y="174"/>
      <point x="1008" y="92"/>
      <point x="909" y="92" type="curve" smooth="yes"/>
      <point x="834" y="92"/>
      <point x="803" y="121"/>
      <point x="803" y="121" type="curve"/>
      <point x="786" y="313" type="line"/>
      <point x="651" y="313" type="line"/>
      <point x="651" y="16" type="line"/>
      <point x="651" y="16"/>
      <point x="774" y="-25"/>
    </contour>
  </outline>
</glyph>
<glyph name="LtnCapDStrk" format="2">
  <advance width="1483"/>
  <unicode hex="0110"/>
  <anchor x="718" y="-100" name="L"/>
  <anchor x="718" y="1500" name="U"/>
  <outline>
    <component base="LtnCapD"/>
    <contour>
      <point x="29" y="653" type="line"/>
      <point x="812" y="653" type="line"/>
      <point x="812" y="786" type="line"/>
      <point x="29" y="786" type="line"/>
    </contour>
  </outline>
</glyph>
<glyph name="LtnSmDotlessI" format="2">
  <advance width="682"/>
  <unicode hex="0131"/>
  <anchor x="344" y="0" name="H"/>
  <anchor x="344" y="-100" name="L"/>
  <anchor x="525" y="0" name="O"/>
  <anchor x="682" y="1000" name="R"/>
  <anchor x="344" y="1100" name="U"/>
  <outline>
    <contour>
      <point x="623" y="0" type="line"/>
      <point x="623" y="96" type="line"/>
      <point x="524" y="102" type="line" smooth="yes"/>
      <point x="500" y="104"/>
      <point x="477" y="125"/>
      <point x="477" y="150" type="curve" smooth="yes"/>
      <point x="477" y="1024" type="line"/>
      <point x="373" y="1024" type="line"/>
      <point x="74" y="922" type="line"/>
      <point x="74" y="838" type="line"/>
      <point x="205" y="838" type="line"/>
      <point x="205" y="150" type="line" smooth="yes"/>
      <point x="205" y="125"/>
      <point x="184" y="104"/>
      <point x="160" y="102" type="curve" smooth="yes"/>
      <point x="66" y="96" type="line"/>
      <point x="66" y="0" type="line"/>
    </contour>
  </outline>
</glyph>
<glyph name="LtnSmLCaron" format="2">
  <advance width="947"/>
  <unicode hex="013E"/>
  <anchor x="366" y="0" name="H"/>
  <anchor x="365" y="-100" name="L"/>
  <anchor x="365" y="1580" name="U"/>
  <outline>
    <contour>
      <point x="625" y="0" type="line"/>
      <point x="625" y="96" type="line"/>
      <point x="522" y="102" type="line" smooth="yes"/>
      <point x="496" y="104"/>
      <point x="477" y="123"/>
      <point x="477" y="150" type="curve" smooth="yes"/>
      <point x="477" y="1516" type="line"/>
      <point x="373" y="1516" type="line"/>
      <point x="59" y="1413" type="line"/>
      <point x="59" y="1329" type="line"/>
      <point x="205" y="1329" type="line"/>
      <point x="205" y="150" type="line" smooth="yes"/>
      <point x="205" y="123"/>
      <point x="186" y="104"/>
      <point x="160" y="102" type="curve" smooth="yes"/>
      <point x="59" y="96" type="line"/>
      <point x="59" y="0" type="line"/>
    </contour>
    <contour>
      <point x="882" y="1389" type="curve" smooth="yes"/>
      <point x="882" y="1485"/>
      <point x="811" y="1561"/>
      <point x="706" y="1561" type="curve" smooth="yes"/>
      <point x="635" y="1561"/>
      <point x="567" y="1524"/>
      <point x="567" y="1442" type="curve" smooth="yes"/>
      <point x="567" y="1409"/>
      <point x="581" y="1376"/>
      <point x="608" y="1352" type="curve"/>
      <point x="737" y="1352" type="line"/>
      <point x="737" y="1286"/>
      <point x="671" y="1223"/>
      <point x="592" y="1200" type="curve"/>
      <point x="592" y="1118" type="line"/>
      <point x="749" y="1149"/>
      <point x="882" y="1247"/>
    </contour>
  </outline>
</glyph>
<glyph name="LtnCapLigOe" format="2">
  <advance width="2073"/>
  <unicode hex="0152"/>
  <anchor x="1042" y="-100" name="L"/>
  <anchor x="1042" y="1500" name="U"/>
  <outline>
    <contour>
      <point x="2009" y="0" type="line"/>
      <point x="2009" y="375" type="line"/>
      <point x="1862" y="375" type="line"/>
      <point x="1831" y="162" type="line"/>
      <point x="1827" y="147"/>
      <point x="1808" y="123"/>
      <point x="1792" y="123" type="curve" smooth="yes"/>
      <point x="1364" y="123" type="line"/>
      <point x="1364" y="645" type="line"/>
      <point x="1587" y="645" type="line" smooth="yes"/>
      <point x="1606" y="645"/>
      <point x="1624" y="623"/>
      <point x="1624" y="608" type="curve"/>
      <point x="1642" y="469" type="line"/>
      <point x="1767" y="469" type="line"/>
      <point x="1767" y="950" type="line"/>
      <point x="1640" y="950" type="line"/>
      <point x="1624" y="811" type="line"/>
      <point x="1624" y="797"/>
      <point x="1608" y="774"/>
      <point x="1589" y="774" type="curve" smooth="yes"/>
      <point x="1364" y="774" type="line"/>
      <point x="1364" y="1255" type="line"/>
      <point x="1733" y="1255" type="line" smooth="yes"/>
      <point x="1751" y="1255"/>
      <point x="1763" y="1237"/>
      <point x="1767" y="1217" type="curve" smooth="yes"/>
      <point x="1794" y="1047" type="line"/>
      <point x="1946" y="1047" type="line"/>
      <point x="1946" y="1374" type="line"/>
      <point x="1096" y="1374" type="line"/>
      <point x="1096" y="1200" type="line"/>
      <point x="1096" y="1200"/>
      <point x="997" y="1397"/>
      <point x="725" y="1397" type="curve" smooth="yes"/>
      <point x="190" y="1397"/>
      <point x="76" y="961"/>
      <point x="76" y="686" type="curve" smooth="yes"/>
      <point x="76" y="328"/>
      <point x="287" y="-25"/>
      <point x="682" y="-25" type="curve" smooth="yes"/>
      <point x="967" y="-25"/>
      <point x="1096" y="190"/>
      <point x="1096" y="190" type="curve"/>
      <point x="1096" y="0" type="line"/>
    </contour>
    <contour>
      <point x="1100" y="676" type="curve" smooth="yes"/>
      <point x="1100" y="352"/>
      <point x="969" y="119"/>
      <point x="748" y="119" type="curve" smooth="yes"/>
      <point x="500" y="119"/>
      <point x="397" y="420"/>
      <point x="397" y="690" type="curve" smooth="yes"/>
      <point x="397" y="940"/>
      <point x="477" y="1257"/>
      <point x="762" y="1257" type="curve" smooth="yes"/>
      <point x="987" y="1257"/>
      <point x="1100" y="981"/>
    </contour>
  </outline>
</glyph>
<glyph name="LtnSmLigOe" format="2">
  <advance width="1774"/>
  <unicode hex="0153"/>
  <anchor x="887" y="0" name="H"/>
  <anchor x="887" y="-100" name="L"/>
  <anchor x="1545" y="0" name="O"/>
  <anchor x="1774" y="1000" name="R"/>
  <anchor x="887" y="1100" name="U"/>
  <outline>
    <contour>
      <point x="553" y="-14" type="curve" smooth="yes"/>
      <point x="879" y="-14"/>
      <point x="940" y="182"/>
      <point x="940" y="182" type="curve"/>
      <point x="940" y="182"/>
      <point x="1004" y="-14"/>
      <point x="1315" y="-14" type="curve" smooth="yes"/>
      <point x="1565" y="-14"/>
      <point x="1708" y="102"/>
      <point x="1708" y="102" type="curve"/>
      <point x="1708" y="264" type="line"/>
      <point x="1708" y="264"/>
      <point x="1579" y="156"/>
      <point x="1386" y="156" type="curve" smooth="yes"/>
      <point x="1155" y="156"/>
      <point x="1069" y="354"/>
      <point x="1069" y="518" type="curve"/>
      <point x="1708" y="518" type="line"/>
      <point x="1708" y="533"/>
      <point x="1708" y="548"/>
      <point x="1708" y="563" type="curve" smooth="yes"/>
      <point x="1708" y="811"/>
      <point x="1589" y="1026"/>
      <point x="1311" y="1026" type="curve" smooth="yes"/>
      <point x="1038" y="1026"/>
      <point x="952" y="838"/>
      <point x="952" y="838" type="curve"/>
      <point x="952" y="838"/>
      <point x="846" y="1026"/>
      <point x="573" y="1026" type="curve" smooth="yes"/>
      <point x="238" y="1026"/>
      <point x="66" y="788"/>
      <point x="66" y="498" type="curve" smooth="yes"/>
      <point x="66" y="225"/>
      <point x="229" y="-14"/>
    </contour>
    <contour>
      <point x="582" y="98" type="curve" smooth="yes"/>
      <point x="395" y="98"/>
      <point x="362" y="322"/>
      <point x="362" y="522" type="curve" smooth="yes"/>
      <point x="362" y="668"/>
      <point x="393" y="913"/>
      <point x="584" y="913" type="curve" smooth="yes"/>
      <point x="743" y="913"/>
      <point x="793" y="709"/>
      <point x="793" y="479" type="curve" smooth="yes"/>
      <point x="793" y="319"/>
      <point x="756" y="98"/>
    </contour>
    <contour>
      <point x="1079" y="633" type="line"/>
      <point x="1079" y="743"/>
      <point x="1122" y="913"/>
      <point x="1257" y="913" type="curve" smooth="yes"/>
      <point x="1382" y="913"/>
      <point x="1419" y="795"/>
      <point x="1419" y="672" type="curve" smooth="yes"/>
      <point x="1419" y="633" type="line"/>
    </contour>
  </outline>
</glyph>
<glyph name="LtnSmTCaron" format="2">
  <advance width="768"/>
  <unicode hex="0165"/>
  <anchor x="404" y="0" name="H"/>
  <anchor x="404" y="-100" name="L"/>
  <anchor x="392" y="1363" name="U"/>
  <outline>
    <contour>
      <point x="760" y="45" type="curve"/>
      <point x="760" y="147" type="line"/>
      <point x="760" y="147"/>
      <point x="692" y="133"/>
      <point x="627" y="133" type="curve" smooth="yes"/>
      <point x="518" y="133"/>
      <point x="459" y="180"/>
      <point x="459" y="311" type="curve" smooth="yes"/>
      <point x="459" y="868" type="line"/>
      <point x="743" y="868" type="line"/>
      <point x="743" y="999" type="line"/>
      <point x="459" y="999" type="line"/>
      <point x="459" y="1262" type="line"/>
      <point x="317" y="1262" type="line"/>
      <point x="207" y="1044" type="line"/>
      <point x="49" y="950" type="line"/>
      <point x="49" y="868" type="line"/>
      <point x="184" y="868" type="line"/>
      <point x="184" y="227" type="line" smooth="yes"/>
      <point x="184" y="55"/>
      <point x="250" y="-25"/>
      <point x="432" y="-25" type="curve" smooth="yes"/>
      <point x="598" y="-25"/>
      <point x="760" y="45"/>
    </contour>
    <contour>
      <point x="853" y="1389" type="curve" smooth="yes"/>
      <point x="853" y="1485"/>
      <point x="782" y="1561"/>
      <point x="677" y="1561" type="curve" smooth="yes"/>
      <point x="606" y="1561"/>
      <point x="538" y="1524"/>
      <point x="538" y="1442" type="curve" smooth="yes"/>
      <point x="538" y="1409"/>
      <point x="552" y="1376"/>
      <point x="579" y="1352" type="curve"/>
      <point x="708" y="1352" type="line"/>
      <point x="708" y="1286"/>
      <point x="642" y="1223"/>
      <point x="563" y="1200" type="curve"/>
      <point x="563" y="1118" type="line"/>
      <point x="720" y="1149"/>
      <point x="853" y="1247"/>
    </contour>
  </outline>
</glyph>
<glyph name="LtnSmTStrk" format="2">
  <advance width="768"/>
  <unicode hex="0167"/>
  <anchor x="404" y="-100" name="L"/>
  <anchor x="404" y="1363" name="U"/>
  <outline>
    <contour>
      <point x="743" y="455" type="line"/>
      <point x="743" y="576" type="line"/>
      <point x="49" y="576" type="line"/>
      <point x="49" y="455" type="line"/>
    </contour>
    <contour>
      <point x="760" y="45" type="curve"/>
      <point x="760" y="147" type="line"/>
      <point x="731" y="141"/>
      <point x="674" y="133"/>
      <point x="627" y="133" type="curve" smooth="yes"/>
      <point x="518" y="133"/>
      <point x="459" y="180"/>
      <point x="459" y="311" type="curve" smooth="yes"/>
      <point x="459" y="868" type="line"/>
      <point x="743" y="868" type="line"/>
      <point x="743" y="999" type="line"/>
      <point x="459" y="999" type="line"/>
      <point x="459" y="1262" type="line"/>
      <point x="317" y="1262" type="line"/>
      <point x="207" y="1044" type="line"/>
      <point x="49" y="950" type="line"/>
      <point x="49" y="868" type="line"/>
      <point x="184" y="868" type="line"/>
      <point x="184" y="227" type="line" smooth="yes"/>
      <point x="184" y="55"/>
      <point x="250" y="-25"/>
      <point x="432" y="-25" type="curve" smooth="yes"/>
      <point x="553" y="-25"/>
      <point x="690" y="15"/>
    </contour>
  </outline>
</glyph>
<glyph name="LtnCapTnSix" format="2">
  <advance width="1349"/>
  <unicode hex="0184"/>
  <anchor x="668" y="-100" name="L"/>
  <anchor x="668" y="1500" name="U"/>
  <outline>
    <contour>
      <point x="1273" y="399" type="curve" smooth="yes"/>
      <point x="1273" y="679"/>
      <point x="1009" y="766"/>
      <point x="652" y="766" type="curve" smooth="yes"/>
      <point x="620" y="766"/>
      <point x="579" y="763"/>
      <point x="546" y="760" type="curve"/>
      <point x="546" y="1404" type="line"/>
      <point x="336" y="1404" type="line"/>
      <point x="-67" y="944" type="line"/>
      <point x="51" y="847" type="line"/>
      <point x="253" y="1014" type="line"/>
      <point x="253" y="160" type="line" smooth="yes"/>
      <point x="253" y="133"/>
      <point x="233" y="117"/>
      <point x="208" y="115" type="curve" smooth="yes"/>
      <point x="83" y="104" type="line"/>
      <point x="83" y="0" type="line"/>
      <point x="618" y="0" type="line"/>
      <point x="1084" y="0"/>
      <point x="1273" y="120"/>
    </contour>
    <contour>
      <point x="966" y="385" type="curve" smooth="yes"/>
      <point x="966" y="180"/>
      <point x="841" y="113"/>
      <point x="607" y="113" type="curve" smooth="yes"/>
      <point x="585" y="113"/>
      <point x="562" y="115"/>
      <point x="546" y="115" type="curve"/>
      <point x="546" y="641" type="line"/>
      <point x="572" y="645"/>
      <point x="613" y="650"/>
      <point x="634" y="650" type="curve" smooth="yes"/>
      <point x="804" y="650"/>
      <point x="966" y="612"/>
    </contour>
  </outline>
</glyph>
<glyph name="LtnSmTnSix" format="2">
  <advance width="1287"/>
  <unicode hex="0185"/>
  <anchor x="647" y="-100" name="L"/>
  <anchor x="647" y="1540" name="U"/>
  <outline>
    <contour>
      <point x="1221" y="561" type="curve" smooth="yes"/>
      <point x="1221" y="854"/>
      <point x="1037" y="1024"/>
      <point x="818" y="1024" type="curve" smooth="yes"/>
      <point x="706" y="1024"/>
      <point x="582" y="970"/>
      <point x="521" y="930" type="curve"/>
      <point x="521" y="1556" type="line"/>
      <point x="379" y="1556" type="line"/>
      <point x="-65" y="987" type="line"/>
      <point x="40" y="900" type="line"/>
      <point x="246" y="1083" type="line"/>
      <point x="246" y="0" type="line"/>
      <point x="621" y="0" type="line" smooth="yes"/>
      <point x="1004" y="0"/>
      <point x="1221" y="246"/>
    </contour>
    <contour>
      <point x="924" y="500" type="curve" smooth="yes"/>
      <point x="924" y="209"/>
      <point x="791" y="113"/>
      <point x="564" y="113" type="curve" smooth="yes"/>
      <point x="551" y="113"/>
      <point x="535" y="114"/>
      <point x="521" y="115" type="curve"/>
      <point x="521" y="842" type="line"/>
      <point x="546" y="847"/>
      <point x="593" y="854"/>
      <point x="629" y="854" type="curve" smooth="yes"/>
      <point x="822" y="854"/>
      <point x="924" y="721"/>
    </contour>
  </outline>
</glyph>
<glyph name="LtnCapCHook" format="2">
  <advance width="1303"/>
  <unicode hex="0187"/>
  <anchor x="749" y="-100" name="L"/>
  <anchor x="749" y="1500" name="U"/>
  <outline>
    <contour>
      <point x="1642" y="1577" type="curve" smooth="yes"/>
      <point x="1642" y="1651"/>
      <point x="1516" y="1743"/>
      <point x="1436" y="1743" type="curve" smooth="yes"/>
      <point x="1219" y="1743"/>
      <point x="1026" y="1612"/>
      <point x="1026" y="1380" type="curve"/>
      <point x="950" y="1399"/>
      <point x="885" y="1407"/>
      <point x="797" y="1407" type="curve" smooth="yes"/>
      <point x="391" y="1407"/>
      <point x="76" y="1114"/>
      <point x="76" y="688" type="curve" smooth="yes"/>
      <point x="76" y="266"/>
      <point x="375" y="-33"/>
      <point x="795" y="-33" type="curve" smooth="yes"/>
      <point x="1006" y="-33"/>
      <point x="1178" y="29"/>
      <point x="1229" y="49" type="curve"/>
      <point x="1229" y="408" type="line"/>
      <point x="1067" y="408" type="line"/>
      <point x="1022" y="166" type="line"/>
      <point x="1018" y="154"/>
      <point x="997" y="131"/>
      <point x="987" y="127" type="curve" smooth="yes"/>
      <point x="965" y="117"/>
      <point x="918" y="100"/>
      <point x="868" y="100" type="curve" smooth="yes"/>
      <point x="524" y="100"/>
      <point x="397" y="397"/>
      <point x="397" y="684" type="curve" smooth="yes"/>
      <point x="397" y="1038"/>
      <point x="571" y="1268"/>
      <point x="852" y="1268" type="curve" smooth="yes"/>
      <point x="903" y="1268"/>
      <point x="975" y="1245"/>
      <point x="997" y="1235" type="curve" smooth="yes"/>
      <point x="1012" y="1229"/>
      <point x="1024" y="1208"/>
      <point x="1024" y="1202" type="curve" smooth="yes"/>
      <point x="1069" y="973" type="line"/>
      <point x="1229" y="973" type="line"/>
      <point x="1229" y="1399" type="line" smooth="yes"/>
      <point x="1229" y="1513"/>
      <point x="1274" y="1597"/>
      <point x="1327" y="1618" type="curve"/>
      <point x="1542" y="1419" type="line"/>
      <point x="1597" y="1440"/>
      <point x="1642" y="1503"/>
    </contour>
  </outline>
</glyph>
<glyph name="LtnCapDHook" format="2">
  <advance width="1632"/>
  <unicode hex="018A"/>
  <anchor x="762" y="-100" name="L"/>
  <anchor x="762" y="1500" name="U"/>
  <outline>
    <contour>
      <point x="1559" y="702" type="curve" smooth="yes"/>
      <point x="1559" y="1102"/>
      <point x="1298" y="1374"/>
      <point x="831" y="1374" type="curve" smooth="yes"/>
      <point x="299" y="1374" type="line" smooth="yes"/>
      <point x="84" y="1374"/>
      <point x="-35" y="1305"/>
      <point x="-35" y="1153" type="curve" smooth="yes"/>
      <point x="-35" y="1059"/>
      <point x="18" y="997"/>
      <point x="78" y="997" type="curve" smooth="yes"/>
      <point x="178" y="997"/>
      <point x="193" y="1006"/>
      <point x="248" y="1061" type="curve"/>
      <point x="164" y="1206" type="line"/>
      <point x="186" y="1245"/>
      <point x="211" y="1253"/>
      <point x="254" y="1253" type="curve" smooth="yes"/>
      <point x="322" y="1253" type="line" smooth="yes"/>
      <point x="348" y="1253"/>
      <point x="365" y="1237"/>
      <point x="365" y="1210" type="curve" smooth="yes"/>
      <point x="365" y="143" type="line" smooth="yes"/>
      <point x="365" y="133"/>
      <point x="350" y="119"/>
      <point x="336" y="117" type="curve" smooth="yes"/>
      <point x="205" y="104" type="line"/>
      <point x="205" y="0" type="line"/>
      <point x="844" y="0" type="line" smooth="yes"/>
      <point x="1278" y="0"/>
      <point x="1559" y="233"/>
    </contour>
    <contour>
      <point x="1229" y="680" type="curve" smooth="yes"/>
      <point x="1229" y="242"/>
      <point x="1004" y="129"/>
      <point x="827" y="125" type="curve" smooth="yes"/>
      <point x="657" y="121" type="line"/>
      <point x="657" y="1255" type="line"/>
      <point x="786" y="1255" type="line" smooth="yes"/>
      <point x="997" y="1255"/>
      <point x="1229" y="1151"/>
    </contour>
  </outline>
</glyph>
<glyph name="LtnCapDTopbar" format="2">
  <advance width="1286"/>
  <unicode hex="018B"/>
  <anchor x="649" y="-100" name="L"/>
  <anchor x="649" y="1500" name="U"/>
  <outline>
    <contour>
      <point x="708" y="0" type="curve"/>
      <point x="1243" y="0" type="line"/>
      <point x="1243" y="104" type="line"/>
      <point x="1118" y="115" type="line" smooth="yes"/>
      <point x="1093" y="117"/>
      <point x="1073" y="133"/>
      <point x="1073" y="160" type="curve" smooth="yes"/>
      <point x="1073" y="1214" type="line" smooth="yes"/>
      <point x="1073" y="1241"/>
      <point x="1093" y="1257"/>
      <point x="1118" y="1260" type="curve"/>
      <point x="1243" y="1270" type="line"/>
      <point x="1243" y="1374" type="line"/>
      <point x="219" y="1374" type="line"/>
      <point x="219" y="1038" type="line"/>
      <point x="366" y="1038" type="line"/>
      <point x="393" y="1212" type="line"/>
      <point x="399" y="1245"/>
      <point x="412" y="1257"/>
      <point x="438" y="1257" type="curve" smooth="yes"/>
      <point x="749" y="1257" type="line" smooth="yes"/>
      <point x="770" y="1257"/>
      <point x="780" y="1239"/>
      <point x="780" y="1227" type="curve" smooth="yes"/>
      <point x="780" y="760" type="line"/>
      <point x="780" y="760"/>
      <point x="716" y="770"/>
      <point x="674" y="770" type="curve"/>
      <point x="317" y="770"/>
      <point x="56" y="668"/>
      <point x="56" y="368" type="curve" smooth="yes"/>
      <point x="56" y="69"/>
      <point x="322" y="0"/>
    </contour>
    <contour>
      <point x="719" y="115" type="curve"/>
      <point x="485" y="115"/>
      <point x="361" y="187"/>
      <point x="361" y="378" type="curve" smooth="yes"/>
      <point x="361" y="622"/>
      <point x="522" y="650"/>
      <point x="692" y="650" type="curve" smooth="yes"/>
      <point x="725" y="650"/>
      <point x="754" y="644"/>
      <point x="780" y="640" type="curve"/>
      <point x="780" y="115" type="line"/>
      <point x="760" y="115"/>
      <point x="739" y="115"/>
    </contour>
  </outline>
</glyph>
<glyph name="LtnSmTrndDelta" format="2">
  <advance width="1224"/>
  <unicode hex="018D"/>
  <anchor x="620" y="-500" name="L"/>
  <anchor x="620" y="1100" name="U"/>
  <outline>
    <contour>
      <point x="630" y="-517" type="curve" smooth="yes"/>
      <point x="856" y="-517"/>
      <point x="1032" y="-411"/>
      <point x="1032" y="-223" type="curve" smooth="yes"/>
      <point x="1032" y="-95"/>
      <point x="855" y="2"/>
      <point x="685" y="122" type="curve"/>
      <point x="920" y="195"/>
      <point x="1161" y="324"/>
      <point x="1161" y="580" type="curve" smooth="yes"/>
      <point x="1161" y="922"/>
      <point x="874" y="1024"/>
      <point x="605" y="1024" type="curve" smooth="yes"/>
      <point x="360" y="1024"/>
      <point x="66" y="880"/>
      <point x="66" y="539" type="curve" smooth="yes"/>
      <point x="66" y="63"/>
      <point x="800" y="-77"/>
      <point x="800" y="-260" type="curve" smooth="yes"/>
      <point x="800" y="-353"/>
      <point x="719" y="-399"/>
      <point x="637" y="-399" type="curve" smooth="yes"/>
      <point x="584" y="-399"/>
      <point x="539" y="-380"/>
      <point x="479" y="-338" type="curve"/>
      <point x="431" y="-176" type="line"/>
      <point x="412" y="-164"/>
      <point x="353" y="-160"/>
      <point x="334" y="-160" type="curve" smooth="yes"/>
      <point x="242" y="-160"/>
      <point x="186" y="-226"/>
      <point x="186" y="-282" type="curve" smooth="yes"/>
      <point x="186" y="-382"/>
      <point x="321" y="-517"/>
    </contour>
    <contour>
      <point x="588" y="194" type="curve"/>
      <point x="469" y="290"/>
      <point x="373" y="402"/>
      <point x="373" y="553" type="curve" smooth="yes"/>
      <point x="373" y="768"/>
      <point x="459" y="909"/>
      <point x="621" y="909" type="curve" smooth="yes"/>
      <point x="774" y="909"/>
      <point x="855" y="782"/>
      <point x="855" y="582" type="curve" smooth="yes"/>
      <point x="855" y="397"/>
      <point x="720" y="265"/>
    </contour>
  </outline>
</glyph>
<glyph name="LtnCapOpnE" format="2">
  <advance width="1266"/>
  <unicode hex="0190"/>
  <anchor x="678" y="-100" name="L"/>
  <anchor x="678" y="1500" name="U"/>
  <outline>
    <contour>
      <point x="588" y="-33" type="curve" smooth="yes"/>
      <point x="836" y="-33"/>
      <point x="1196" y="80"/>
      <point x="1196" y="266" type="curve" smooth="yes"/>
      <point x="1196" y="373"/>
      <point x="1130" y="414"/>
      <point x="1061" y="414" type="curve" smooth="yes"/>
      <point x="1014" y="414"/>
      <point x="977" y="403"/>
      <point x="977" y="403" type="curve"/>
      <point x="881" y="141" type="line"/>
      <point x="850" y="109"/>
      <point x="821" y="92"/>
      <point x="737" y="94" type="curve" smooth="yes"/>
      <point x="422" y="98"/>
      <point x="385" y="227"/>
      <point x="385" y="358" type="curve" smooth="yes"/>
      <point x="385" y="541"/>
      <point x="477" y="647"/>
      <point x="702" y="647" type="curve" smooth="yes"/>
      <point x="713" y="647"/>
      <point x="836" y="643"/>
      <point x="836" y="643" type="curve"/>
      <point x="836" y="766" type="line"/>
      <point x="811" y="765"/>
      <point x="785" y="763"/>
      <point x="760" y="762" type="curve"/>
      <point x="516" y="762"/>
      <point x="457" y="901"/>
      <point x="457" y="1040" type="curve" smooth="yes"/>
      <point x="457" y="1196"/>
      <point x="528" y="1294"/>
      <point x="723" y="1294" type="curve" smooth="yes"/>
      <point x="764" y="1294"/>
      <point x="823" y="1288"/>
      <point x="881" y="1247" type="curve"/>
      <point x="881" y="1044" type="line"/>
      <point x="881" y="1044"/>
      <point x="965" y="1026"/>
      <point x="989" y="1026" type="curve" smooth="yes"/>
      <point x="1065" y="1026"/>
      <point x="1139" y="1059"/>
      <point x="1139" y="1163" type="curve" smooth="yes"/>
      <point x="1139" y="1309"/>
      <point x="1001" y="1407"/>
      <point x="688" y="1407" type="curve" smooth="yes"/>
      <point x="371" y="1407"/>
      <point x="156" y="1335"/>
      <point x="156" y="1061" type="curve" smooth="yes"/>
      <point x="156" y="864"/>
      <point x="291" y="780"/>
      <point x="451" y="731" type="curve"/>
      <point x="233" y="723"/>
      <point x="76" y="627"/>
      <point x="76" y="387" type="curve" smooth="yes"/>
      <point x="76" y="156"/>
      <point x="227" y="-33"/>
    </contour>
  </outline>
</glyph>
<glyph name="LtnCapGHook" format="2">
  <advance width="1466"/>
  <unicode hex="0193"/>
  <anchor x="764" y="-100" name="L"/>
  <anchor x="764" y="1500" name="U"/>
  <outline>
    <contour>
      <point x="1683" y="1577" type="curve" smooth="yes"/>
      <point x="1683" y="1651"/>
      <point x="1556" y="1743"/>
      <point x="1477" y="1743" type="curve" smooth="yes"/>
      <point x="1260" y="1743"/>
      <point x="1067" y="1614"/>
      <point x="1067" y="1382" type="curve"/>
      <point x="991" y="1401"/>
      <point x="897" y="1407"/>
      <point x="809" y="1407" type="curve" smooth="yes"/>
      <point x="385" y="1407"/>
      <point x="76" y="1133"/>
      <point x="76" y="690" type="curve" smooth="yes"/>
      <point x="76" y="254"/>
      <point x="383" y="-33"/>
      <point x="793" y="-33" type="curve" smooth="yes"/>
      <point x="1067" y="-33"/>
      <point x="1268" y="63"/>
      <point x="1268" y="63" type="curve"/>
      <point x="1268" y="520" type="line" smooth="yes"/>
      <point x="1268" y="547"/>
      <point x="1290" y="563"/>
      <point x="1315" y="565" type="curve" smooth="yes"/>
      <point x="1419" y="575" type="line"/>
      <point x="1419" y="680" type="line"/>
      <point x="801" y="680" type="line"/>
      <point x="801" y="575" type="line"/>
      <point x="938" y="565" type="line"/>
      <point x="963" y="565"/>
      <point x="985" y="547"/>
      <point x="985" y="520" type="curve" smooth="yes"/>
      <point x="985" y="121" type="line"/>
      <point x="936" y="117"/>
      <point x="911" y="121"/>
      <point x="893" y="121" type="curve" smooth="yes"/>
      <point x="571" y="121"/>
      <point x="393" y="346"/>
      <point x="393" y="698" type="curve" smooth="yes"/>
      <point x="393" y="989"/>
      <point x="528" y="1272"/>
      <point x="885" y="1272" type="curve" smooth="yes"/>
      <point x="936" y="1272"/>
      <point x="1016" y="1245"/>
      <point x="1038" y="1235" type="curve" smooth="yes"/>
      <point x="1053" y="1229"/>
      <point x="1067" y="1210"/>
      <point x="1067" y="1202" type="curve"/>
      <point x="1110" y="975" type="line"/>
      <point x="1270" y="975" type="line"/>
      <point x="1270" y="1401" type="line" smooth="yes"/>
      <point x="1270" y="1513"/>
      <point x="1315" y="1599"/>
      <point x="1368" y="1618" type="curve"/>
      <point x="1583" y="1419" type="line"/>
      <point x="1638" y="1440"/>
      <point x="1683" y="1505"/>
    </contour>
  </outline>
</glyph>
<glyph name="LtnCapKHook" format="2">
  <advance width="1397"/>
  <unicode hex="0198"/>
  <anchor x="788" y="-100" name="L"/>
  <anchor x="788" y="1500" name="U"/>
  <outline>
    <contour>
      <point x="1518" y="1227" type="curve" smooth="yes"/>
      <point x="1518" y="1335"/>
      <point x="1411" y="1389"/>
      <point x="1298" y="1389" type="curve" smooth="yes"/>
      <point x="1151" y="1389"/>
      <point x="1026" y="1264"/>
      <point x="973" y="1198" type="curve" smooth="yes"/>
      <point x="563" y="698" type="line"/>
      <point x="506" y="698" type="line"/>
      <point x="506" y="1214" type="line" smooth="yes"/>
      <point x="506" y="1241"/>
      <point x="528" y="1257"/>
      <point x="551" y="1260" type="curve" smooth="yes"/>
      <point x="659" y="1270" type="line"/>
      <point x="659" y="1374" type="line"/>
      <point x="59" y="1374" type="line"/>
      <point x="59" y="1270" type="line"/>
      <point x="168" y="1260" type="line" smooth="yes"/>
      <point x="193" y="1257"/>
      <point x="213" y="1241"/>
      <point x="213" y="1214" type="curve" smooth="yes"/>
      <point x="213" y="160" type="line" smooth="yes"/>
      <point x="213" y="133"/>
      <point x="193" y="117"/>
      <point x="168" y="115" type="curve" smooth="yes"/>
      <point x="59" y="104" type="line"/>
      <point x="59" y="0" type="line"/>
      <point x="659" y="0" type="line"/>
      <point x="659" y="104" type="line"/>
      <point x="551" y="115" type="line" smooth="yes"/>
      <point x="526" y="117"/>
      <point x="506" y="133"/>
      <point x="506" y="160" type="curve" smooth="yes"/>
      <point x="506" y="600" type="line"/>
      <point x="618" y="600" type="line"/>
      <point x="952" y="76" type="line"/>
      <point x="952" y="0" type="line"/>
      <point x="1395" y="0" type="line"/>
      <point x="1395" y="104" type="line"/>
      <point x="1251" y="117" type="line"/>
      <point x="821" y="803" type="line"/>
      <point x="1128" y="1171" type="line" smooth="yes"/>
      <point x="1149" y="1194"/>
      <point x="1210" y="1247"/>
      <point x="1210" y="1247" type="curve"/>
      <point x="1399" y="1081" type="line"/>
      <point x="1430" y="1098"/>
      <point x="1518" y="1126"/>
    </contour>
  </outline>
</glyph>
<glyph name="LtnSmKHook" format="2">
  <advance width="1212"/>
  <unicode hex="0199"/>
  <anchor x="623" y="-100" name="L"/>
  <anchor x="623" y="1540" name="U"/>
  <outline>
    <contour>
      <point x="1194" y="0" type="line"/>
      <point x="1194" y="96" type="line"/>
      <point x="1073" y="106" type="line"/>
      <point x="758" y="637" type="line"/>
      <point x="977" y="887" type="line"/>
      <point x="1112" y="903" type="line"/>
      <point x="1112" y="999" type="line"/>
      <point x="686" y="999" type="line"/>
      <point x="686" y="903" type="line"/>
      <point x="764" y="895" type="line" smooth="yes"/>
      <point x="784" y="893"/>
      <point x="791" y="874"/>
      <point x="778" y="860" type="curve" smooth="yes"/>
      <point x="504" y="532" type="line"/>
      <point x="459" y="532" type="line"/>
      <point x="459" y="1102" type="line" smooth="yes"/>
      <point x="459" y="1288"/>
      <point x="485" y="1354"/>
      <point x="526" y="1415" type="curve"/>
      <point x="729" y="1225" type="line"/>
      <point x="795" y="1247"/>
      <point x="856" y="1296"/>
      <point x="856" y="1360" type="curve" smooth="yes"/>
      <point x="856" y="1477"/>
      <point x="741" y="1516"/>
      <point x="659" y="1516" type="curve" smooth="yes"/>
      <point x="377" y="1516"/>
      <point x="184" y="1249"/>
      <point x="184" y="985" type="curve" smooth="yes"/>
      <point x="184" y="150" type="line" smooth="yes"/>
      <point x="184" y="125"/>
      <point x="164" y="104"/>
      <point x="139" y="102" type="curve" smooth="yes"/>
      <point x="53" y="96" type="line"/>
      <point x="53" y="0" type="line"/>
      <point x="586" y="0" type="line"/>
      <point x="586" y="96" type="line"/>
      <point x="504" y="102" type="line" smooth="yes"/>
      <point x="477" y="104"/>
      <point x="459" y="125"/>
      <point x="459" y="150" type="curve" smooth="yes"/>
      <point x="459" y="463" type="line"/>
      <point x="555" y="463" type="line"/>
      <point x="780" y="84" type="line"/>
      <point x="780" y="0" type="line"/>
    </contour>
  </outline>
</glyph>
<glyph name="LtnSmLBar" format="2">
  <advance width="682"/>
  <unicode hex="019A"/>
  <anchor x="341" y="-100" name="L"/>
  <anchor x="341" y="1540" name="U"/>
  <outline>
    <contour>
      <point x="682" y="653" type="line"/>
      <point x="682" y="782" type="line"/>
      <point x="477" y="782" type="line"/>
      <point x="477" y="1516" type="line"/>
      <point x="373" y="1516" type="line"/>
      <point x="59" y="1413" type="line"/>
      <point x="59" y="1329" type="line"/>
      <point x="205" y="1329" type="line"/>
      <point x="205" y="782" type="line"/>
      <point x="0" y="782" type="line"/>
      <point x="0" y="653" type="line"/>
      <point x="205" y="653" type="line"/>
      <point x="205" y="150" type="line" smooth="yes"/>
      <point x="205" y="123"/>
      <point x="186" y="104"/>
      <point x="160" y="102" type="curve" smooth="yes"/>
      <point x="59" y="96" type="line"/>
      <point x="59" y="0" type="line"/>
      <point x="625" y="0" type="line"/>
      <point x="625" y="96" type="line"/>
      <point x="522" y="102" type="line" smooth="yes"/>
      <point x="496" y="104"/>
      <point x="477" y="123"/>
      <point x="477" y="150" type="curve" smooth="yes"/>
      <point x="477" y="653" type="line"/>
    </contour>
  </outline>
</glyph>
<glyph name="LtnCapTrndM" format="2">
  <advance width="2245"/>
  <unicode hex="019C"/>
  <anchor x="1118" y="-100" name="L"/>
  <anchor x="1118" y="1500" name="U"/>
  <outline>
    <contour>
      <point x="682" y="-33" type="curve" smooth="yes"/>
      <point x="844" y="-33"/>
      <point x="957" y="33"/>
      <point x="1067" y="108" type="curve"/>
      <point x="1135" y="28"/>
      <point x="1239" y="-33"/>
      <point x="1397" y="-33" type="curve" smooth="yes"/>
      <point x="1575" y="-33"/>
      <point x="1616" y="14"/>
      <point x="1739" y="114" type="curve"/>
      <point x="1739" y="0" type="line"/>
      <point x="2192" y="0" type="line"/>
      <point x="2192" y="104" type="line"/>
      <point x="2057" y="114" type="line"/>
      <point x="2038" y="117"/>
      <point x="2032" y="123"/>
      <point x="2032" y="143" type="curve" smooth="yes"/>
      <point x="2032" y="1214" type="line" smooth="yes"/>
      <point x="2032" y="1241"/>
      <point x="2052" y="1257"/>
      <point x="2077" y="1259" type="curve" smooth="yes"/>
      <point x="2184" y="1270" type="line"/>
      <point x="2184" y="1374" type="line"/>
      <point x="1586" y="1374" type="line"/>
      <point x="1586" y="1270" type="line"/>
      <point x="1694" y="1259" type="line" smooth="yes"/>
      <point x="1719" y="1257"/>
      <point x="1739" y="1241"/>
      <point x="1739" y="1214" type="curve" smooth="yes"/>
      <point x="1739" y="291" type="line"/>
      <point x="1659" y="229"/>
      <point x="1583" y="155"/>
      <point x="1477" y="155" type="curve" smooth="yes"/>
      <point x="1350" y="155"/>
      <point x="1262" y="262"/>
      <point x="1262" y="450" type="curve" smooth="yes"/>
      <point x="1262" y="1214" type="line" smooth="yes"/>
      <point x="1262" y="1241"/>
      <point x="1282" y="1257"/>
      <point x="1307" y="1259" type="curve" smooth="yes"/>
      <point x="1414" y="1270" type="line"/>
      <point x="1414" y="1374" type="line"/>
      <point x="815" y="1374" type="line"/>
      <point x="815" y="1270" type="line"/>
      <point x="924" y="1259" type="line" smooth="yes"/>
      <point x="949" y="1257"/>
      <point x="969" y="1241"/>
      <point x="969" y="1214" type="curve" smooth="yes"/>
      <point x="969" y="409" type="line" smooth="yes"/>
      <point x="969" y="348"/>
      <point x="977" y="291"/>
      <point x="992" y="241" type="curve"/>
      <point x="922" y="205"/>
      <point x="836" y="155"/>
      <point x="762" y="155" type="curve" smooth="yes"/>
      <point x="633" y="155"/>
      <point x="492" y="264"/>
      <point x="492" y="450" type="curve"/>
      <point x="492" y="1214" type="line"/>
      <point x="492" y="1241"/>
      <point x="512" y="1257"/>
      <point x="537" y="1259" type="curve" smooth="yes"/>
      <point x="644" y="1270" type="line"/>
      <point x="644" y="1374" type="line"/>
      <point x="45" y="1374" type="line"/>
      <point x="45" y="1270" type="line"/>
      <point x="154" y="1259" type="line" smooth="yes"/>
      <point x="179" y="1257"/>
      <point x="199" y="1241"/>
      <point x="199" y="1214" type="curve"/>
      <point x="199" y="409" type="line"/>
      <point x="199" y="141"/>
      <point x="400" y="-33"/>
    </contour>
  </outline>
</glyph>
<glyph name="LtnSmNLngRtLeg" format="2">
  <advance width="1280"/>
  <unicode hex="019E"/>
  <anchor x="624" y="-500" name="L"/>
  <anchor x="624" y="1100" name="U"/>
  <outline>
    <contour>
      <point x="1206" y="-449" type="line"/>
      <point x="1206" y="-352" type="line"/>
      <point x="1143" y="-346" type="line" smooth="yes"/>
      <point x="1118" y="-344"/>
      <point x="1096" y="-324"/>
      <point x="1096" y="-299" type="curve" smooth="yes"/>
      <point x="1096" y="668" type="line" smooth="yes"/>
      <point x="1096" y="846"/>
      <point x="1053" y="1024"/>
      <point x="817" y="1024" type="curve" smooth="yes"/>
      <point x="641" y="1024"/>
      <point x="459" y="899"/>
      <point x="459" y="899" type="curve"/>
      <point x="459" y="1024" type="line"/>
      <point x="352" y="1024" type="line"/>
      <point x="43" y="920" type="line"/>
      <point x="43" y="836" type="line"/>
      <point x="184" y="836" type="line"/>
      <point x="184" y="150" type="line" smooth="yes"/>
      <point x="184" y="125"/>
      <point x="164" y="104"/>
      <point x="139" y="102" type="curve" smooth="yes"/>
      <point x="66" y="96" type="line"/>
      <point x="66" y="0" type="line"/>
      <point x="567" y="0" type="line"/>
      <point x="567" y="96" type="line"/>
      <point x="506" y="102" type="line" smooth="yes"/>
      <point x="481" y="104"/>
      <point x="459" y="125"/>
      <point x="459" y="150" type="curve" smooth="yes"/>
      <point x="459" y="809" type="line"/>
      <point x="459" y="809"/>
      <point x="543" y="836"/>
      <point x="655" y="836" type="curve" smooth="yes"/>
      <point x="778" y="836"/>
      <point x="823" y="735"/>
      <point x="823" y="631" type="curve" smooth="yes"/>
      <point x="823" y="-299" type="line" smooth="yes"/>
      <point x="823" y="-324"/>
      <point x="803" y="-344"/>
      <point x="778" y="-346" type="curve" smooth="yes"/>
      <point x="702" y="-352" type="line"/>
      <point x="702" y="-449" type="line"/>
    </contour>
  </outline>
</glyph>
<glyph name="LtnCapOMiddleTilde" format="2">
  <advance width="1548"/>
  <unicode hex="019F"/>
  <anchor x="775" y="-100" name="L"/>
  <anchor x="775" y="1500" name="U"/>
  <outline>
    <contour>
      <point x="1475" y="680" type="curve" smooth="yes"/>
      <point x="1475" y="1077"/>
      <point x="1194" y="1407"/>
      <point x="768" y="1407" type="curve" smooth="yes"/>
      <point x="332" y="1407"/>
      <point x="76" y="1100"/>
      <point x="76" y="696" type="curve" smooth="yes"/>
      <point x="76" y="231"/>
      <point x="377" y="-33"/>
      <point x="786" y="-33" type="curve" smooth="yes"/>
      <point x="1198" y="-33"/>
      <point x="1475" y="289"/>
    </contour>
    <contour>
      <point x="1139" y="786" type="curve"/>
      <point x="408" y="786" type="line"/>
      <point x="428" y="1032"/>
      <point x="535" y="1270"/>
      <point x="786" y="1270" type="curve" smooth="yes"/>
      <point x="995" y="1270"/>
      <point x="1114" y="1057"/>
    </contour>
    <contour>
      <point x="1145" y="653" type="line"/>
      <point x="1139" y="393"/>
      <point x="1034" y="96"/>
      <point x="766" y="96" type="curve" smooth="yes"/>
      <point x="524" y="96"/>
      <point x="414" y="375"/>
      <point x="403" y="653" type="curve"/>
    </contour>
  </outline>
</glyph>
<glyph name="LtnSmOHorn" format="2">
  <advance width="1382"/>
  <unicode hex="01A1"/>
  <anchor x="593" y="-100" name="L"/>
  <anchor x="593" y="1100" name="U"/>
  <outline>
    <contour>
      <point x="1352" y="1016" type="curve" smooth="yes"/>
      <point x="1352" y="1149"/>
      <point x="1268" y="1255"/>
      <point x="1167" y="1255" type="curve" smooth="yes"/>
      <point x="1096" y="1255"/>
      <point x="1012" y="1223"/>
      <point x="1012" y="1122" type="curve" smooth="yes"/>
      <point x="1012" y="1065"/>
      <point x="1057" y="1008"/>
      <point x="1057" y="1008" type="curve"/>
      <point x="1231" y="1008" type="line"/>
      <point x="1231" y="913"/>
      <point x="1157" y="821"/>
      <point x="1067" y="774" type="curve"/>
      <point x="987" y="928"/>
      <point x="829" y="1024"/>
      <point x="606" y="1024" type="curve" smooth="yes"/>
      <point x="289" y="1024"/>
      <point x="66" y="831"/>
      <point x="66" y="496" type="curve" smooth="yes"/>
      <point x="66" y="172"/>
      <point x="281" y="-25"/>
      <point x="592" y="-25" type="curve" smooth="yes"/>
      <point x="932" y="-25"/>
      <point x="1133" y="188"/>
      <point x="1133" y="494" type="curve" smooth="yes"/>
      <point x="1133" y="567"/>
      <point x="1122" y="637"/>
      <point x="1102" y="698" type="curve"/>
      <point x="1247" y="762"/>
      <point x="1352" y="881"/>
    </contour>
    <contour>
      <point x="827" y="496" type="curve" smooth="yes"/>
      <point x="827" y="313"/>
      <point x="786" y="90"/>
      <point x="600" y="90" type="curve" smooth="yes"/>
      <point x="410" y="90"/>
      <point x="373" y="328"/>
      <point x="373" y="504" type="curve" smooth="yes"/>
      <point x="373" y="680"/>
      <point x="414" y="907"/>
      <point x="598" y="907" type="curve" smooth="yes"/>
      <point x="786" y="907"/>
      <point x="827" y="670"/>
    </contour>
  </outline>
</glyph>
<glyph name="LtnSmPHook" format="2">
  <advance width="1237"/>
  <unicode hex="01A5"/>
  <anchor x="849" y="-100" name="L"/>
  <anchor x="610" y="1540" name="U"/>
  <outline>
    <contour>
      <point x="1171" y="528" type="curve" smooth="yes"/>
      <point x="1171" y="772"/>
      <point x="1038" y="1024"/>
      <point x="788" y="1024" type="curve" smooth="yes"/>
      <point x="668" y="1024"/>
      <point x="530" y="950"/>
      <point x="459" y="895" type="curve"/>
      <point x="459" y="1024" type="line" smooth="yes"/>
      <point x="459" y="1280"/>
      <point x="586" y="1389"/>
      <point x="698" y="1389" type="curve" smooth="yes"/>
      <point x="722" y="1389"/>
      <point x="758" y="1380"/>
      <point x="778" y="1374" type="curve"/>
      <point x="860" y="1180" type="line"/>
      <point x="874" y="1170"/>
      <point x="902" y="1157"/>
      <point x="928" y="1157" type="curve" smooth="yes"/>
      <point x="987" y="1157"/>
      <point x="1034" y="1233"/>
      <point x="1034" y="1300" type="curve" smooth="yes"/>
      <point x="1034" y="1425"/>
      <point x="831" y="1516"/>
      <point x="653" y="1516" type="curve" smooth="yes"/>
      <point x="315" y="1516"/>
      <point x="184" y="1260"/>
      <point x="184" y="1024" type="curve" smooth="yes"/>
      <point x="184" y="-299" type="line" smooth="yes"/>
      <point x="184" y="-326"/>
      <point x="164" y="-346"/>
      <point x="139" y="-346" type="curve"/>
      <point x="49" y="-352" type="line"/>
      <point x="49" y="-449" type="line"/>
      <point x="612" y="-449" type="line"/>
      <point x="612" y="-352" type="line"/>
      <point x="504" y="-346" type="line"/>
      <point x="479" y="-346"/>
      <point x="459" y="-326"/>
      <point x="459" y="-299" type="curve" smooth="yes"/>
      <point x="459" y="-4" type="line"/>
      <point x="493" y="-13"/>
      <point x="559" y="-25"/>
      <point x="618" y="-25" type="curve" smooth="yes"/>
      <point x="956" y="-25"/>
      <point x="1171" y="197"/>
    </contour>
    <contour>
      <point x="868" y="498" type="curve" smooth="yes"/>
      <point x="868" y="268"/>
      <point x="768" y="86"/>
      <point x="571" y="86" type="curve" smooth="yes"/>
      <point x="540" y="86"/>
      <point x="489" y="100"/>
      <point x="459" y="111" type="curve"/>
      <point x="459" y="807" type="line"/>
      <point x="493" y="820"/>
      <point x="558" y="838"/>
      <point x="610" y="838" type="curve" smooth="yes"/>
      <point x="788" y="838"/>
      <point x="868" y="678"/>
    </contour>
  </outline>
</glyph>
<glyph name="LtnSmTPalHook" format="2">
  <advance width="768"/>
  <unicode hex="01AB"/>
  <anchor x="392" y="-500" name="L"/>
  <anchor x="392" y="1363" name="U"/>
  <outline>
    <contour>
      <point x="760" y="-219" type="curve"/>
      <point x="760" y="147" type="line"/>
      <point x="731" y="141"/>
      <point x="674" y="133"/>
      <point x="627" y="133" type="curve" smooth="yes"/>
      <point x="518" y="133"/>
      <point x="459" y="180"/>
      <point x="459" y="311" type="curve" smooth="yes"/>
      <point x="459" y="868" type="line"/>
      <point x="743" y="868" type="line"/>
      <point x="743" y="999" type="line"/>
      <point x="459" y="999" type="line"/>
      <point x="459" y="1262" type="line"/>
      <point x="317" y="1262" type="line"/>
      <point x="207" y="1044" type="line"/>
      <point x="49" y="950" type="line"/>
      <point x="49" y="868" type="line"/>
      <point x="184" y="868" type="line"/>
      <point x="184" y="227" type="line" smooth="yes"/>
      <point x="184" y="55"/>
      <point x="250" y="-25"/>
      <point x="432" y="-25" type="curve" smooth="yes"/>
      <point x="479" y="-25"/>
      <point x="588" y="-3"/>
      <point x="631" y="6" type="curve"/>
      <point x="631" y="-223" type="line" smooth="yes"/>
      <point x="631" y="-311"/>
      <point x="588" y="-330"/>
      <point x="508" y="-330" type="curve"/>
      <point x="311" y="-143" type="line"/>
      <point x="246" y="-180"/>
      <point x="195" y="-223"/>
      <point x="195" y="-332" type="curve" smooth="yes"/>
      <point x="195" y="-430"/>
      <point x="346" y="-473"/>
      <point x="449" y="-473" type="curve" smooth="yes"/>
      <point x="575" y="-473"/>
      <point x="760" y="-401"/>
    </contour>
  </outline>
</glyph>
<glyph name="LtnCapUpsilon" format="2">
  <advance width="1495"/>
  <unicode hex="01B1"/>
  <anchor x="747" y="-100" name="L"/>
  <anchor x="747" y="1500" name="U"/>
  <outline>
    <contour>
      <point x="1425" y="641" type="curve" smooth="yes"/>
      <point x="1425" y="881"/>
      <point x="1286" y="1130"/>
      <point x="1182" y="1219" type="curve" smooth="yes"/>
      <point x="1157" y="1239"/>
      <point x="1159" y="1262"/>
      <point x="1192" y="1264" type="curve" smooth="yes"/>
      <point x="1354" y="1272" type="line"/>
      <point x="1354" y="1374" type="line"/>
      <point x="899" y="1374" type="line"/>
      <point x="1028" y="1128"/>
      <point x="1092" y="983"/>
      <point x="1092" y="700" type="curve" smooth="yes"/>
      <point x="1092" y="305"/>
      <point x="948" y="100"/>
      <point x="748" y="100" type="curve" smooth="yes"/>
      <point x="549" y="100"/>
      <point x="406" y="305"/>
      <point x="406" y="700" type="curve" smooth="yes"/>
      <point x="406" y="995"/>
      <point x="469" y="1128"/>
      <point x="598" y="1374" type="curve"/>
      <point x="141" y="1374" type="line"/>
      <point x="141" y="1272" type="line"/>
      <point x="305" y="1264" type="line" smooth="yes"/>
      <point x="338" y="1262"/>
      <point x="340" y="1239"/>
      <point x="315" y="1219" type="curve" smooth="yes"/>
      <point x="211" y="1130"/>
      <point x="70" y="881"/>
      <point x="70" y="641" type="curve" smooth="yes"/>
      <point x="70" y="307"/>
      <point x="311" y="-33"/>
      <point x="748" y="-33" type="curve" smooth="yes"/>
      <point x="1186" y="-33"/>
      <point x="1425" y="307"/>
    </contour>
  </outline>
</glyph>
<glyph name="LtnCapVHook" format="2">
  <advance width="1464"/>
  <unicode hex="01B2"/>
  <anchor x="718" y="-100" name="L"/>
  <anchor x="718" y="1500" name="U"/>
  <outline>
    <contour>
      <point x="1391" y="750" type="curve" smooth="yes"/>
      <point x="1391" y="1040"/>
      <point x="1182" y="1407"/>
      <point x="963" y="1407" type="curve" smooth="yes"/>
      <point x="836" y="1407"/>
      <point x="770" y="1354"/>
      <point x="770" y="1262" type="curve" smooth="yes"/>
      <point x="770" y="1204"/>
      <point x="817" y="1147"/>
      <point x="852" y="1120" type="curve"/>
      <point x="1069" y="1120" type="line"/>
      <point x="1143" y="1057"/>
      <point x="1243" y="920"/>
      <point x="1243" y="727" type="curve" smooth="yes"/>
      <point x="1243" y="342"/>
      <point x="1004" y="145"/>
      <point x="770" y="145" type="curve" smooth="yes"/>
      <point x="582" y="145"/>
      <point x="498" y="225"/>
      <point x="498" y="469" type="curve" smooth="yes"/>
      <point x="498" y="1374" type="line"/>
      <point x="45" y="1374" type="line"/>
      <point x="45" y="1290" type="line"/>
      <point x="160" y="1280" type="line" smooth="yes"/>
      <point x="188" y="1278"/>
      <point x="203" y="1255"/>
      <point x="203" y="1237" type="curve" smooth="yes"/>
      <point x="203" y="426" type="line" smooth="yes"/>
      <point x="203" y="92"/>
      <point x="471" y="-33"/>
      <point x="707" y="-33" type="curve" smooth="yes"/>
      <point x="1176" y="-33"/>
      <point x="1391" y="319"/>
    </contour>
  </outline>
</glyph>
<glyph name="LtnCapYHook.RtHook" format="2">
  <advance width="1358"/>
  <unicode hex="01B3"/>
  <anchor x="676" y="-100" name="L"/>
  <anchor x="676" y="1500" name="U"/>
  <outline>
    <contour>
      <point x="1628" y="1317" type="curve" smooth="yes"/>
      <point x="1628" y="1444"/>
      <point x="1483" y="1479"/>
      <point x="1376" y="1479" type="curve" smooth="yes"/>
      <point x="1194" y="1479"/>
      <point x="1128" y="1393"/>
      <point x="991" y="1157" type="curve" smooth="yes"/>
      <point x="741" y="725" type="line"/>
      <point x="483" y="1210" type="line" smooth="yes"/>
      <point x="469" y="1237"/>
      <point x="479" y="1260"/>
      <point x="494" y="1260" type="curve"/>
      <point x="602" y="1270" type="line"/>
      <point x="602" y="1374" type="line"/>
      <point x="20" y="1374" type="line"/>
      <point x="20" y="1270" type="line"/>
      <point x="152" y="1251" type="line"/>
      <point x="547" y="537" type="line"/>
      <point x="547" y="160" type="line" smooth="yes"/>
      <point x="547" y="133"/>
      <point x="522" y="117"/>
      <point x="500" y="115" type="curve" smooth="yes"/>
      <point x="375" y="104" type="line"/>
      <point x="375" y="0" type="line"/>
      <point x="1010" y="0" type="line"/>
      <point x="1010" y="104" type="line"/>
      <point x="885" y="115" type="line" smooth="yes"/>
      <point x="860" y="117"/>
      <point x="840" y="133"/>
      <point x="840" y="160" type="curve" smooth="yes"/>
      <point x="840" y="594" type="line"/>
      <point x="1202" y="1212" type="line" smooth="yes"/>
      <point x="1245" y="1286"/>
      <point x="1284" y="1339"/>
      <point x="1333" y="1339" type="curve"/>
      <point x="1520" y="1169" type="line"/>
      <point x="1579" y="1184"/>
      <point x="1628" y="1221"/>
    </contour>
  </outline>
</glyph>
<glyph name="LtnSmYHook.RtHook" format="2">
  <advance width="1328"/>
  <unicode hex="01B4"/>
  <anchor x="870" y="-100" name="L"/>
  <anchor x="646" y="1100" name="U"/>
  <outline>
    <contour>
      <point x="242" y="-473" type="curve" smooth="yes"/>
      <point x="324" y="-473"/>
      <point x="392" y="-437"/>
      <point x="449" y="-381" type="curve" smooth="yes"/>
      <point x="558" y="-276"/>
      <point x="628" y="-102"/>
      <point x="678" y="20" type="curve" smooth="yes"/>
      <point x="971" y="737" type="line"/>
      <point x="1024" y="872"/>
      <point x="1067" y="1014"/>
      <point x="1176" y="1114" type="curve"/>
      <point x="1350" y="981" type="line"/>
      <point x="1409" y="1010"/>
      <point x="1468" y="1057"/>
      <point x="1468" y="1135" type="curve" smooth="yes"/>
      <point x="1468" y="1233"/>
      <point x="1368" y="1298"/>
      <point x="1288" y="1298" type="curve" smooth="yes"/>
      <point x="1049" y="1298"/>
      <point x="928" y="1012"/>
      <point x="852" y="827" type="curve" smooth="yes"/>
      <point x="645" y="326" type="line"/>
      <point x="434" y="852" type="line" smooth="yes"/>
      <point x="426" y="874"/>
      <point x="440" y="895"/>
      <point x="465" y="897" type="curve" smooth="yes"/>
      <point x="559" y="903" type="line"/>
      <point x="559" y="999" type="line"/>
      <point x="20" y="999" type="line"/>
      <point x="20" y="903" type="line"/>
      <point x="141" y="891" type="line"/>
      <point x="506" y="-18" type="line"/>
      <point x="487" y="-88"/>
      <point x="428" y="-221"/>
      <point x="354" y="-291" type="curve"/>
      <point x="180" y="-158" type="line"/>
      <point x="121" y="-186"/>
      <point x="61" y="-233"/>
      <point x="61" y="-309" type="curve" smooth="yes"/>
      <point x="61" y="-410"/>
      <point x="162" y="-473"/>
    </contour>
  </outline>
</glyph>
<glyph name="LtnCapZStrk" format="2">
  <advance width="1190"/>
  <unicode hex="01B5"/>
  <anchor x="616" y="-100" name="L"/>
  <anchor x="616" y="1500" name="U"/>
  <outline>
    <contour>
      <point x="1114" y="0" type="line"/>
      <point x="1114" y="403" type="line"/>
      <point x="965" y="403" type="line"/>
      <point x="924" y="150" type="line"/>
      <point x="920" y="135"/>
      <point x="909" y="127"/>
      <point x="893" y="127" type="curve" smooth="yes"/>
      <point x="403" y="127" type="line"/>
      <point x="1104" y="1253" type="line"/>
      <point x="1104" y="1374" type="line"/>
      <point x="111" y="1374" type="line"/>
      <point x="111" y="1001" type="line"/>
      <point x="260" y="1001" type="line"/>
      <point x="297" y="1225" type="line"/>
      <point x="299" y="1241"/>
      <point x="309" y="1249"/>
      <point x="326" y="1249" type="curve" smooth="yes"/>
      <point x="778" y="1249" type="line"/>
      <point x="76" y="121" type="line"/>
      <point x="76" y="0" type="line"/>
    </contour>
    <contour>
      <point x="959" y="657" type="line"/>
      <point x="959" y="788" type="line"/>
      <point x="257" y="788" type="line"/>
      <point x="257" y="657" type="line"/>
    </contour>
  </outline>
</glyph>
<glyph name="LtnCapEzh" format="2">
  <advance width="1331"/>
  <unicode hex="01B7"/>
  <anchor x="655" y="-500" name="L"/>
  <anchor x="655" y="1500" name="U"/>
  <outline>
    <contour>
      <point x="596" y="-473" type="curve" smooth="yes"/>
      <point x="958" y="-473"/>
      <point x="1257" y="-182"/>
      <point x="1257" y="152" type="curve" smooth="yes"/>
      <point x="1257" y="375"/>
      <point x="1055" y="647"/>
      <point x="764" y="647" type="curve"/>
      <point x="1192" y="1266" type="line"/>
      <point x="1192" y="1374" type="line"/>
      <point x="143" y="1374" type="line"/>
      <point x="143" y="801" type="line"/>
      <point x="291" y="801" type="line"/>
      <point x="307" y="1059" type="line" smooth="yes"/>
      <point x="309" y="1081"/>
      <point x="332" y="1114"/>
      <point x="354" y="1114" type="curve" smooth="yes"/>
      <point x="872" y="1114" type="line"/>
      <point x="502" y="565" type="line"/>
      <point x="563" y="498" type="line"/>
      <point x="571" y="507"/>
      <point x="599" y="518"/>
      <point x="657" y="518" type="curve" smooth="yes"/>
      <point x="840" y="518"/>
      <point x="936" y="350"/>
      <point x="936" y="152" type="curve" smooth="yes"/>
      <point x="936" y="-51"/>
      <point x="772" y="-334"/>
      <point x="594" y="-334" type="curve" smooth="yes"/>
      <point x="530" y="-334"/>
      <point x="451" y="-295"/>
      <point x="401" y="-279" type="curve"/>
      <point x="326" y="14" type="line"/>
      <point x="301" y="29"/>
      <point x="264" y="47"/>
      <point x="223" y="45" type="curve"/>
      <point x="150" y="45"/>
      <point x="53" y="6"/>
      <point x="53" y="-139" type="curve" smooth="yes"/>
      <point x="53" y="-311"/>
      <point x="289" y="-473"/>
    </contour>
  </outline>
</glyph>
<glyph name="LtnSmEzhTail" format="2">
  <advance width="1042"/>
  <unicode hex="01BA"/>
  <anchor x="522" y="-500" name="L"/>
  <anchor x="522" y="1100" name="U"/>
  <outline>
    <contour>
      <point x="537" y="-473" type="curve" smooth="yes"/>
      <point x="817" y="-473"/>
      <point x="965" y="-371"/>
      <point x="965" y="-240" type="curve" smooth="yes"/>
      <point x="965" y="-168"/>
      <point x="920" y="-117"/>
      <point x="850" y="-117" type="curve" smooth="yes"/>
      <point x="831" y="-117"/>
      <point x="766" y="-139"/>
      <point x="754" y="-145" type="curve"/>
      <point x="694" y="-311" type="line"/>
      <point x="668" y="-344"/>
      <point x="621" y="-362"/>
      <point x="555" y="-362" type="curve" smooth="yes"/>
      <point x="461" y="-362"/>
      <point x="438" y="-287"/>
      <point x="438" y="-242" type="curve" smooth="yes"/>
      <point x="438" y="-55"/>
      <point x="956" y="-14"/>
      <point x="956" y="262" type="curve" smooth="yes"/>
      <point x="956" y="434"/>
      <point x="862" y="506"/>
      <point x="682" y="522" type="curve"/>
      <point x="979" y="905" type="line"/>
      <point x="979" y="999" type="line"/>
      <point x="66" y="999" type="line"/>
      <point x="66" y="541" type="line"/>
      <point x="211" y="541" type="line"/>
      <point x="223" y="723" type="line" smooth="yes"/>
      <point x="225" y="741"/>
      <point x="246" y="766"/>
      <point x="264" y="766" type="curve" smooth="yes"/>
      <point x="688" y="766" type="line"/>
      <point x="354" y="387" type="line"/>
      <point x="406" y="324" type="line"/>
      <point x="469" y="375"/>
      <point x="539" y="416"/>
      <point x="584" y="416" type="curve" smooth="yes"/>
      <point x="653" y="416"/>
      <point x="715" y="373"/>
      <point x="715" y="313" type="curve" smooth="yes"/>
      <point x="715" y="141"/>
      <point x="209" y="43"/>
      <point x="209" y="-186" type="curve" smooth="yes"/>
      <point x="209" y="-399"/>
      <point x="358" y="-473"/>
    </contour>
  </outline>
</glyph>
<glyph name="LtnSmTnFive" format="2">
  <advance width="1007"/>
  <unicode hex="01BD"/>
  <anchor x="497" y="-100" name="L"/>
  <anchor x="497" y="1100" name="U"/>
  <outline>
    <contour>
      <point x="457" y="-24" type="curve" smooth="yes"/>
      <point x="731" y="-24"/>
      <point x="944" y="120"/>
      <point x="944" y="323" type="curve" smooth="yes"/>
      <point x="944" y="564"/>
      <point x="675" y="674"/>
      <point x="409" y="674" type="curve"/>
      <point x="409" y="849" type="line" smooth="yes"/>
      <point x="409" y="862"/>
      <point x="421" y="881"/>
      <point x="444" y="881" type="curve" smooth="yes"/>
      <point x="709" y="881" type="line" smooth="yes"/>
      <point x="735" y="881"/>
      <point x="746" y="863"/>
      <point x="749" y="842" type="curve" smooth="yes"/>
      <point x="775" y="716" type="line"/>
      <point x="878" y="716" type="line"/>
      <point x="878" y="999" type="line"/>
      <point x="50" y="999" type="line"/>
      <point x="50" y="903" type="line"/>
      <point x="144" y="897" type="line"/>
      <point x="165" y="897"/>
      <point x="189" y="876"/>
      <point x="189" y="850" type="curve" smooth="yes"/>
      <point x="189" y="543" type="line"/>
      <point x="448" y="543"/>
      <point x="652" y="488"/>
      <point x="652" y="287" type="curve" smooth="yes"/>
      <point x="652" y="134"/>
      <point x="531" y="87"/>
      <point x="459" y="87" type="curve" smooth="yes"/>
      <point x="428" y="87"/>
      <point x="389" y="93"/>
      <point x="361" y="104" type="curve"/>
      <point x="250" y="262" type="line"/>
      <point x="243" y="264"/>
      <point x="201" y="271"/>
      <point x="183" y="271" type="curve" smooth="yes"/>
      <point x="122" y="271"/>
      <point x="69" y="214"/>
      <point x="69" y="147" type="curve" smooth="yes"/>
      <point x="69" y="30"/>
      <point x="239" y="-24"/>
    </contour>
  </outline>
</glyph>
<glyph name="LtnWynn" format="2">
  <advance width="1224"/>
  <unicode hex="01BF"/>
  <anchor x="603" y="-500" name="L"/>
  <anchor x="603" y="1100" name="U"/>
  <outline>
    <contour>
      <point x="49" y="-449" type="line"/>
      <point x="613" y="-449" type="line"/>
      <point x="613" y="-352" type="line"/>
      <point x="506" y="-346" type="line"/>
      <point x="478" y="-346"/>
      <point x="460" y="-326"/>
      <point x="460" y="-299" type="curve" smooth="yes"/>
      <point x="460" y="-168" type="line"/>
      <point x="808" y="13"/>
      <point x="1158" y="287"/>
      <point x="1158" y="660" type="curve" smooth="yes"/>
      <point x="1158" y="852"/>
      <point x="1075" y="1024"/>
      <point x="809" y="1024" type="curve" smooth="yes"/>
      <point x="678" y="1024"/>
      <point x="533" y="928"/>
      <point x="460" y="855" type="curve"/>
      <point x="460" y="1024" type="line"/>
      <point x="353" y="1024" type="line"/>
      <point x="49" y="920" type="line"/>
      <point x="49" y="836" type="line"/>
      <point x="185" y="836" type="line"/>
      <point x="185" y="-299" type="line" smooth="yes"/>
      <point x="185" y="-323"/>
      <point x="169" y="-345"/>
      <point x="140" y="-346" type="curve"/>
      <point x="49" y="-352" type="line"/>
    </contour>
    <contour>
      <point x="460" y="-19" type="curve"/>
      <point x="460" y="706" type="line"/>
      <point x="488" y="738"/>
      <point x="582" y="838"/>
      <point x="697" y="838" type="curve" smooth="yes"/>
      <point x="808" y="838"/>
      <point x="858" y="769"/>
      <point x="858" y="600" type="curve" smooth="yes"/>
      <point x="858" y="412"/>
      <point x="767" y="174"/>
    </contour>
  </outline>
</glyph>
<glyph name="LtnDentalClick" format="2">
  <advance width="453"/>
  <unicode hex="01C0"/>
  <anchor x="226" y="-500" name="L"/>
  <anchor x="226" y="1570" name="U"/>
  <outline>
    <contour>
      <point x="309" y="-440" type="line"/>
      <point x="309" y="1507" type="line"/>
      <point x="144" y="1507" type="line"/>
      <point x="144" y="-440" type="line"/>
    </contour>
  </outline>
</glyph>
<glyph name="LtnLateralClick" format="2">
  <advance width="753"/>
  <unicode hex="01C1"/>
  <anchor x="376" y="-500" name="L"/>
  <anchor x="376" y="1570" name="U"/>
  <outline>
    <contour>
      <point x="609" y="-440" type="line"/>
      <point x="609" y="1507" type="line"/>
      <point x="444" y="1507" type="line"/>
      <point x="444" y="-440" type="line"/>
    </contour>
    <contour>
      <point x="309" y="-440" type="line"/>
      <point x="309" y="1507" type="line"/>
      <point x="144" y="1507" type="line"/>
      <point x="144" y="-440" type="line"/>
    </contour>
  </outline>
</glyph>
<glyph name="LtnAlveolarClick" format="2">
  <advance width="853"/>
  <unicode hex="01C2"/>
  <anchor x="426" y="-500" name="L"/>
  <anchor x="426" y="1570" name="U"/>
  <outline>
    <component base="LtnDentalClick" xOffset="200"/>
    <contour>
      <point x="50" y="599" type="line"/>
      <point x="803" y="599" type="line"/>
      <point x="803" y="743" type="line"/>
      <point x="50" y="743" type="line"/>
    </contour>
    <contour>
      <point x="50" y="323" type="line"/>
      <point x="803" y="323" type="line"/>
      <point x="803" y="467" type="line"/>
      <point x="50" y="467" type="line"/>
    </contour>
  </outline>
</glyph>
<glyph name="LtnRetrClick" format="2">
  <advance width="424"/>
  <unicode hex="01C3"/>
  <anchor x="212" y="-100" name="L"/>
  <anchor x="212" y="1540" name="U"/>
  <outline>
    <contour>
      <point x="379" y="1241" type="line"/>
      <point x="379" y="1358"/>
      <point x="305" y="1407"/>
      <point x="213" y="1407" type="curve" smooth="yes"/>
      <point x="121" y="1407"/>
      <point x="45" y="1356"/>
      <point x="45" y="1241" type="curve"/>
      <point x="158" y="426" type="line"/>
      <point x="269" y="426" type="line"/>
    </contour>
    <contour>
      <point x="377" y="143" type="curve" smooth="yes"/>
      <point x="377" y="244"/>
      <point x="289" y="305"/>
      <point x="213" y="305" type="curve" smooth="yes"/>
      <point x="137" y="305"/>
      <point x="47" y="250"/>
      <point x="47" y="143" type="curve" smooth="yes"/>
      <point x="47" y="23"/>
      <point x="146" y="-25"/>
      <point x="213" y="-25" type="curve" smooth="yes"/>
      <point x="301" y="-25"/>
      <point x="377" y="49"/>
    </contour>
  </outline>
</glyph>
<glyph name="LtnSmOOgonekMacron" format="2">
  <advance width="1196"/>
  <unicode hex="01ED"/>
  <anchor x="599" y="0" name="H"/>
  <anchor x="670" y="-400" name="L"/>
  <anchor x="1196" y="1000" name="R"/>
  <anchor x="599" y="1470" name="U"/>
  <outline>
    <component base="LtnSmO"/>
    <component base="CombMacron" xOffset="1197"/>
    <contour>
      <point x="962" y="-362" type="curve"/>
      <point x="898" y="-256" type="line"/>
      <point x="886" y="-264"/>
      <point x="835" y="-307"/>
      <point x="808" y="-307" type="curve" smooth="yes"/>
      <point x="741" y="-307"/>
      <point x="706" y="-260"/>
      <point x="706" y="-201" type="curve" smooth="yes"/>
      <point x="706" y="-121"/>
      <point x="780" y="-21"/>
      <point x="895" y="49" type="curve"/>
      <point x="706" y="2" type="line"/>
      <point x="644" y="-41"/>
      <point x="540" y="-133"/>
      <point x="540" y="-254" type="curve" smooth="yes"/>
      <point x="540" y="-362"/>
      <point x="638" y="-426"/>
      <point x="767" y="-426" type="curve" smooth="yes"/>
      <point x="829" y="-426"/>
      <point x="962" y="-362"/>
    </contour>
  </outline>
</glyph>
<glyph name="LtnSmYogh" format="2">
  <advance width="979"/>
  <unicode hex="021D"/>
  <anchor x="490" y="-500" name="L"/>
  <anchor x="490" y="1100" name="U"/>
  <outline>
    <contour>
      <point x="100" y="-485" type="line"/>
      <point x="478" y="-377"/>
      <point x="909" y="-148"/>
      <point x="909" y="148" type="curve" smooth="yes"/>
      <point x="909" y="332"/>
      <point x="718" y="405"/>
      <point x="496" y="405" type="curve"/>
      <point x="453" y="314" type="line"/>
      <point x="565" y="314"/>
      <point x="605" y="245"/>
      <point x="605" y="126" type="curve" smooth="yes"/>
      <point x="605" y="-6"/>
      <point x="464" y="-187"/>
      <point x="100" y="-357" type="curve"/>
    </contour>
    <contour>
      <point x="237" y="222" type="line"/>
      <point x="577" y="329"/>
      <point x="886" y="496"/>
      <point x="886" y="773" type="curve" smooth="yes"/>
      <point x="886" y="954"/>
      <point x="695" y="1024"/>
      <point x="473" y="1024" type="curve" smooth="yes"/>
      <point x="351" y="1024"/>
      <point x="230" y="1011"/>
      <point x="71" y="949" type="curve"/>
      <point x="71" y="654" type="line"/>
      <point x="198" y="654" type="line"/>
      <point x="224" y="827" type="line"/>
      <point x="262" y="864"/>
      <point x="329" y="878"/>
      <point x="410" y="878" type="curve" smooth="yes"/>
      <point x="492" y="878"/>
      <point x="582" y="835"/>
      <point x="582" y="741" type="curve" smooth="yes"/>
      <point x="582" y="607"/>
      <point x="519" y="477"/>
      <point x="237" y="349" type="curve"/>
    </contour>
  </outline>
</glyph>
<glyph name="LtnCapNLngRtLeg" format="2">
  <advance width="1593"/>
  <unicode hex="0220"/>
  <anchor x="483" y="-100" name="L"/>
  <anchor x="791" y="1500" name="U"/>
  <outline>
    <contour>
      <point x="907" y="-449" type="line"/>
      <point x="1528" y="-449" type="line"/>
      <point x="1528" y="-345" type="line"/>
      <point x="1415" y="-334" type="line" smooth="yes"/>
      <point x="1392" y="-332"/>
      <point x="1368" y="-316"/>
      <point x="1368" y="-289" type="curve"/>
      <point x="1368" y="956" type="line"/>
      <point x="1368" y="1223"/>
      <point x="1239" y="1407"/>
      <point x="942" y="1407" type="curve" smooth="yes"/>
      <point x="772" y="1407"/>
      <point x="539" y="1303"/>
      <point x="508" y="1247" type="curve"/>
      <point x="508" y="1374" type="line"/>
      <point x="59" y="1374" type="line"/>
      <point x="59" y="1270" type="line"/>
      <point x="182" y="1260" type="line"/>
      <point x="197" y="1260"/>
      <point x="213" y="1245"/>
      <point x="213" y="1233" type="curve" smooth="yes"/>
      <point x="213" y="170" type="line" smooth="yes"/>
      <point x="213" y="143"/>
      <point x="190" y="117"/>
      <point x="168" y="115" type="curve" smooth="yes"/>
      <point x="55" y="104" type="line"/>
      <point x="55" y="0" type="line"/>
      <point x="666" y="0" type="line"/>
      <point x="666" y="104" type="line"/>
      <point x="553" y="127" type="line" smooth="yes"/>
      <point x="530" y="132"/>
      <point x="506" y="143"/>
      <point x="506" y="170" type="curve" smooth="yes"/>
      <point x="506" y="1108" type="line"/>
      <point x="535" y="1145"/>
      <point x="727" y="1223"/>
      <point x="852" y="1223" type="curve" smooth="yes"/>
      <point x="1001" y="1223"/>
      <point x="1075" y="1040"/>
      <point x="1075" y="946" type="curve" smooth="yes"/>
      <point x="1075" y="-289" type="line" smooth="yes"/>
      <point x="1075" y="-316"/>
      <point x="1052" y="-332"/>
      <point x="1030" y="-334" type="curve" smooth="yes"/>
      <point x="907" y="-345" type="line"/>
    </contour>
  </outline>
</glyph>
<glyph name="LtnSmLCurl" format="2">
  <advance width="872"/>
  <unicode hex="0234"/>
  <anchor x="372" y="-100" name="L"/>
  <anchor x="372" y="1540" name="U"/>
  <outline>
    <contour>
      <point x="872" y="248" type="curve" smooth="yes"/>
      <point x="872" y="377"/>
      <point x="801" y="436"/>
      <point x="657" y="436" type="curve" smooth="yes"/>
      <point x="592" y="436"/>
      <point x="532" y="418"/>
      <point x="477" y="399" type="curve"/>
      <point x="477" y="1516" type="line"/>
      <point x="373" y="1516" type="line"/>
      <point x="59" y="1413" type="line"/>
      <point x="59" y="1329" type="line"/>
      <point x="205" y="1329" type="line"/>
      <point x="205" y="203" type="line"/>
      <point x="129" y="113"/>
      <point x="41" y="-33"/>
      <point x="0" y="-150" type="curve"/>
      <point x="90" y="-229" type="line"/>
      <point x="125" y="-154"/>
      <point x="203" y="4"/>
      <point x="254" y="78" type="curve"/>
      <point x="324" y="4"/>
      <point x="455" y="-25"/>
      <point x="553" y="-25" type="curve" smooth="yes"/>
      <point x="682" y="-25"/>
      <point x="872" y="72"/>
    </contour>
    <contour>
      <point x="741" y="238" type="curve" smooth="yes"/>
      <point x="741" y="190"/>
      <point x="680" y="98"/>
      <point x="600" y="98" type="curve" smooth="yes"/>
      <point x="514" y="98"/>
      <point x="489" y="197"/>
      <point x="481" y="281" type="curve"/>
      <point x="528" y="301"/>
      <point x="580" y="322"/>
      <point x="637" y="322" type="curve" smooth="yes"/>
      <point x="705" y="322"/>
      <point x="741" y="299"/>
    </contour>
  </outline>
</glyph>
<glyph name="LtnSmDBDigraph" format="2">
  <advance width="1829"/>
  <unicode hex="0238"/>
  <anchor x="914" y="-100" name="L"/>
  <anchor x="914" y="1540" name="U"/>
  <outline>
    <contour>
      <point x="467" y="-25" type="curve" smooth="yes"/>
      <point x="616" y="-25"/>
      <point x="760" y="102"/>
      <point x="791" y="119" type="curve"/>
      <point x="791" y="0" type="line"/>
      <point x="1163" y="0" type="line" smooth="yes"/>
      <point x="1546" y="0"/>
      <point x="1763" y="246"/>
      <point x="1763" y="561" type="curve" smooth="yes"/>
      <point x="1763" y="854"/>
      <point x="1579" y="1024"/>
      <point x="1360" y="1024" type="curve" smooth="yes"/>
      <point x="1206" y="1024"/>
      <point x="1063" y="930"/>
      <point x="1063" y="930" type="curve"/>
      <point x="1063" y="1516" type="line"/>
      <point x="958" y="1516" type="line"/>
      <point x="639" y="1413" type="line"/>
      <point x="639" y="1329" type="line"/>
      <point x="791" y="1329" type="line"/>
      <point x="791" y="999" type="line"/>
      <point x="791" y="999"/>
      <point x="678" y="1024"/>
      <point x="600" y="1024" type="curve" smooth="yes"/>
      <point x="291" y="1024"/>
      <point x="66" y="829"/>
      <point x="66" y="477" type="curve" smooth="yes"/>
      <point x="66" y="188"/>
      <point x="217" y="-25"/>
    </contour>
    <contour>
      <point x="631" y="164" type="curve" smooth="yes"/>
      <point x="453" y="164"/>
      <point x="365" y="309"/>
      <point x="365" y="524" type="curve" smooth="yes"/>
      <point x="365" y="735"/>
      <point x="455" y="901"/>
      <point x="645" y="901" type="curve" smooth="yes"/>
      <point x="707" y="901"/>
      <point x="791" y="864"/>
      <point x="791" y="864" type="curve"/>
      <point x="791" y="203" type="line"/>
      <point x="791" y="203"/>
      <point x="705" y="164"/>
    </contour>
    <contour>
      <point x="1106" y="113" type="curve" smooth="yes"/>
      <point x="1093" y="113"/>
      <point x="1087" y="115"/>
      <point x="1063" y="115" type="curve"/>
      <point x="1063" y="842" type="line"/>
      <point x="1063" y="842"/>
      <point x="1122" y="854"/>
      <point x="1171" y="854" type="curve" smooth="yes"/>
      <point x="1364" y="854"/>
      <point x="1466" y="721"/>
      <point x="1466" y="500" type="curve" smooth="yes"/>
      <point x="1466" y="209"/>
      <point x="1333" y="113"/>
    </contour>
  </outline>
</glyph>
<glyph name="LtnCapCStrk" format="2">
  <advance width="1303"/>
  <unicode hex="023B"/>
  <anchor x="652" y="0" name="H"/>
  <anchor x="700" y="-100" name="L"/>
  <anchor x="700" y="1500" name="U"/>
  <outline>
    <component base="LtnCapC"/>
    <contour>
      <point x="124" y="-117" type="line"/>
      <point x="228" y="-178" type="line"/>
      <point x="1172" y="1473" type="line"/>
      <point x="1066" y="1532" type="line"/>
    </contour>
  </outline>
</glyph>
<glyph name="LtnCapLBar" format="2">
  <advance width="1135"/>
  <unicode hex="023D"/>
  <anchor x="551" y="-100" name="L"/>
  <anchor x="551" y="1500" name="U"/>
  <outline>
    <contour>
      <point x="1102" y="0" type="line"/>
      <point x="1102" y="408" type="line"/>
      <point x="938" y="408" type="line"/>
      <point x="911" y="172" type="line" smooth="yes"/>
      <point x="909" y="156"/>
      <point x="891" y="125"/>
      <point x="862" y="125" type="curve" smooth="yes"/>
      <point x="506" y="125" type="line"/>
      <point x="506" y="653" type="line"/>
      <point x="825" y="653" type="line"/>
      <point x="825" y="786" type="line"/>
      <point x="506" y="786" type="line"/>
      <point x="506" y="1214" type="line" smooth="yes"/>
      <point x="506" y="1241"/>
      <point x="526" y="1257"/>
      <point x="551" y="1260" type="curve" smooth="yes"/>
      <point x="666" y="1270" type="line"/>
      <point x="666" y="1374" type="line"/>
      <point x="55" y="1374" type="line"/>
      <point x="55" y="1270" type="line"/>
      <point x="168" y="1260" type="line" smooth="yes"/>
      <point x="193" y="1257"/>
      <point x="213" y="1241"/>
      <point x="213" y="1214" type="curve" smooth="yes"/>
      <point x="213" y="786" type="line"/>
      <point x="0" y="786" type="line"/>
      <point x="0" y="653" type="line"/>
      <point x="213" y="653" type="line"/>
      <point x="213" y="160" type="line" smooth="yes"/>
      <point x="213" y="133"/>
      <point x="193" y="117"/>
      <point x="168" y="115" type="curve" smooth="yes"/>
      <point x="55" y="104" type="line"/>
      <point x="55" y="0" type="line"/>
    </contour>
  </outline>
</glyph>
<glyph name="LtnCapTDiagStrk" format="2">
  <advance width="1247"/>
  <unicode hex="023E"/>
  <anchor x="623" y="0" name="H"/>
  <anchor x="623" y="-100" name="L"/>
  <anchor x="623" y="1500" name="U"/>
  <outline>
    <component base="LtnCapT"/>
    <contour>
      <point x="94" y="-117" type="line"/>
      <point x="198" y="-178" type="line"/>
      <point x="1142" y="1473" type="line"/>
      <point x="1036" y="1532" type="line"/>
    </contour>
  </outline>
</glyph>
<glyph name="LtnCapGlottalStop" format="2">
  <advance width="1042"/>
  <unicode hex="0241"/>
  <anchor x="533" y="-35" name="L"/>
  <anchor x="533" y="1435" name="U"/>
  <outline>
    <contour>
      <point x="967" y="1018" type="curve" smooth="yes"/>
      <point x="967" y="1231"/>
      <point x="782" y="1407"/>
      <point x="487" y="1407" type="curve" smooth="yes"/>
      <point x="232" y="1407"/>
      <point x="76" y="1280"/>
      <point x="76" y="1169" type="curve" smooth="yes"/>
      <point x="76" y="1094"/>
      <point x="137" y="1004"/>
      <point x="227" y="1004" type="curve" smooth="yes"/>
      <point x="271" y="1004"/>
      <point x="319" y="1022"/>
      <point x="360" y="1042" type="curve"/>
      <point x="416" y="1257" type="line"/>
      <point x="451" y="1284"/>
      <point x="483" y="1286"/>
      <point x="494" y="1286" type="curve" smooth="yes"/>
      <point x="598" y="1286"/>
      <point x="666" y="1188"/>
      <point x="666" y="1018" type="curve" smooth="yes"/>
      <point x="666" y="819"/>
      <point x="475" y="715"/>
      <point x="346" y="672" type="curve"/>
      <point x="346" y="150" type="line" smooth="yes"/>
      <point x="346" y="127"/>
      <point x="338" y="118"/>
      <point x="311" y="115" type="curve" smooth="yes"/>
      <point x="197" y="104" type="line"/>
      <point x="197" y="0" type="line"/>
      <point x="791" y="0" type="line"/>
      <point x="791" y="104" type="line"/>
      <point x="674" y="115" type="line" smooth="yes"/>
      <point x="647" y="118"/>
      <point x="639" y="125"/>
      <point x="639" y="150" type="curve" smooth="yes"/>
      <point x="639" y="633" type="line"/>
      <point x="817" y="713"/>
      <point x="967" y="795"/>
    </contour>
  </outline>
</glyph>
<glyph name="LtnSmGlottalStop" format="2">
  <advance width="868"/>
  <unicode hex="0242"/>
  <anchor x="435" y="-100" name="L"/>
  <anchor x="435" y="1100" name="U"/>
  <outline>
    <contour>
      <point x="135" y="0" type="line"/>
      <point x="686" y="0" type="line"/>
      <point x="686" y="96" type="line"/>
      <point x="573" y="102" type="line"/>
      <point x="555" y="102"/>
      <point x="549" y="111"/>
      <point x="549" y="127" type="curve" smooth="yes"/>
      <point x="549" y="426" type="line"/>
      <point x="686" y="473"/>
      <point x="805" y="539"/>
      <point x="805" y="709" type="curve" smooth="yes"/>
      <point x="805" y="877"/>
      <point x="682" y="1024"/>
      <point x="379" y="1024" type="curve" smooth="yes"/>
      <point x="188" y="1024"/>
      <point x="66" y="920"/>
      <point x="66" y="823" type="curve" smooth="yes"/>
      <point x="66" y="729"/>
      <point x="133" y="676"/>
      <point x="215" y="676" type="curve" smooth="yes"/>
      <point x="238" y="676"/>
      <point x="262" y="683"/>
      <point x="285" y="692" type="curve"/>
      <point x="362" y="899" type="line"/>
      <point x="375" y="911"/>
      <point x="393" y="920"/>
      <point x="422" y="920" type="curve" smooth="yes"/>
      <point x="489" y="920"/>
      <point x="520" y="850"/>
      <point x="520" y="709" type="curve" smooth="yes"/>
      <point x="520" y="561"/>
      <point x="410" y="489"/>
      <point x="274" y="457" type="curve"/>
      <point x="274" y="127" type="line" smooth="yes"/>
      <point x="274" y="111"/>
      <point x="266" y="102"/>
      <point x="250" y="102" type="curve"/>
      <point x="135" y="96" type="line"/>
    </contour>
  </outline>
</glyph>
<glyph name="LtnCapSmQHookTail" format="2">
  <advance width="1538"/>
  <unicode hex="024A"/>
  <anchor x="599" y="-100" name="L"/>
  <anchor x="914" y="1500" name="U"/>
  <outline>
    <contour>
      <point x="1753" y="-279" type="curve" smooth="yes"/>
      <point x="1753" y="-193"/>
      <point x="1669" y="-119"/>
      <point x="1577" y="-109" type="curve"/>
      <point x="1417" y="-342" type="line"/>
      <point x="1339" y="-317"/>
      <point x="1325" y="-197"/>
      <point x="1325" y="-66" type="curve" smooth="yes"/>
      <point x="1325" y="1309" type="line"/>
      <point x="1217" y="1366"/>
      <point x="1083" y="1407"/>
      <point x="829" y="1407" type="curve" smooth="yes"/>
      <point x="285" y="1407"/>
      <point x="76" y="1030"/>
      <point x="76" y="688" type="curve" smooth="yes"/>
      <point x="76" y="221"/>
      <point x="342" y="-33"/>
      <point x="827" y="-33" type="curve" smooth="yes"/>
      <point x="909" y="-33"/>
      <point x="977" y="-18"/>
      <point x="1032" y="10" type="curve"/>
      <point x="1032" y="-66" type="line" smooth="yes"/>
      <point x="1032" y="-305"/>
      <point x="1165" y="-473"/>
      <point x="1427" y="-473" type="curve" smooth="yes"/>
      <point x="1649" y="-473"/>
      <point x="1753" y="-354"/>
    </contour>
    <contour>
      <point x="1032" y="178" type="line"/>
      <point x="973" y="127"/>
      <point x="918" y="86"/>
      <point x="836" y="86" type="curve" smooth="yes"/>
      <point x="612" y="86"/>
      <point x="401" y="258"/>
      <point x="401" y="684" type="curve" smooth="yes"/>
      <point x="401" y="1116"/>
      <point x="631" y="1286"/>
      <point x="874" y="1286" type="curve" smooth="yes"/>
      <point x="963" y="1286"/>
      <point x="995" y="1255"/>
      <point x="1032" y="1219" type="curve"/>
    </contour>
  </outline>
</glyph>
<glyph name="LtnSmYStrk" format="2">
  <advance width="1159"/>
  <unicode hex="024F"/>
  <anchor x="870" y="-100" name="L"/>
  <anchor x="516" y="-390" name="O"/>
  <anchor x="621" y="1100" name="U"/>
  <outline>
    <contour>
      <point x="1091" y="627" type="line"/>
      <point x="1091" y="748" type="line"/>
      <point x="70" y="748" type="line"/>
      <point x="70" y="627" type="line"/>
    </contour>
    <contour>
      <point x="1141" y="903" type="line"/>
      <point x="1141" y="999" type="line"/>
      <point x="741" y="999" type="line"/>
      <point x="741" y="903" type="line"/>
      <point x="831" y="897" type="line" smooth="yes"/>
      <point x="854" y="895"/>
      <point x="870" y="872"/>
      <point x="862" y="852" type="curve" smooth="yes"/>
      <point x="645" y="326" type="line"/>
      <point x="434" y="852" type="line"/>
      <point x="426" y="874"/>
      <point x="440" y="895"/>
      <point x="465" y="897" type="curve" smooth="yes"/>
      <point x="559" y="903" type="line"/>
      <point x="559" y="999" type="line"/>
      <point x="20" y="999" type="line"/>
      <point x="20" y="903" type="line"/>
      <point x="141" y="891" type="line"/>
      <point x="506" y="-18" type="line"/>
      <point x="487" y="-88"/>
      <point x="428" y="-221"/>
      <point x="354" y="-291" type="curve"/>
      <point x="180" y="-158" type="line"/>
      <point x="121" y="-184"/>
      <point x="61" y="-233"/>
      <point x="61" y="-309" type="curve"/>
      <point x="59" y="-408"/>
      <point x="162" y="-473"/>
      <point x="242" y="-473" type="curve" smooth="yes"/>
      <point x="322" y="-473"/>
      <point x="388" y="-437"/>
      <point x="446" y="-383" type="curve" smooth="yes"/>
      <point x="556" y="-278"/>
      <point x="627" y="-102"/>
      <point x="678" y="20" type="curve"/>
      <point x="1032" y="889" type="line"/>
    </contour>
  </outline>
</glyph>
<glyph name="LtnSmTurnedAlpha" format="2">
  <advance width="1243"/>
  <unicode hex="0252"/>
  <anchor x="615" y="0" name="H"/>
  <anchor x="615" y="-100" name="L"/>
  <anchor x="673" y="0" name="O"/>
  <anchor x="1243" y="1000" name="R"/>
  <anchor x="615" y="1100" name="U"/>
  <outline>
    <contour>
      <point x="1180" y="530" type="curve" smooth="yes"/>
      <point x="1180" y="819"/>
      <point x="1026" y="1024"/>
      <point x="778" y="1024" type="curve" smooth="yes"/>
      <point x="629" y="1024"/>
      <point x="457" y="881"/>
      <point x="457" y="881" type="curve"/>
      <point x="457" y="999" type="line"/>
      <point x="51" y="999" type="line"/>
      <point x="51" y="903" type="line"/>
      <point x="137" y="897" type="line" smooth="yes"/>
      <point x="164" y="895"/>
      <point x="182" y="877"/>
      <point x="182" y="850" type="curve" smooth="yes"/>
      <point x="182" y="-25" type="line"/>
      <point x="297" y="-25" type="line"/>
      <point x="444" y="72" type="line"/>
      <point x="516" y="12"/>
      <point x="604" y="-25"/>
      <point x="682" y="-25" type="curve" smooth="yes"/>
      <point x="971" y="-25"/>
      <point x="1180" y="178"/>
    </contour>
    <contour>
      <point x="883" y="483" type="curve" smooth="yes"/>
      <point x="883" y="270"/>
      <point x="827" y="96"/>
      <point x="637" y="96" type="curve" smooth="yes"/>
      <point x="575" y="96"/>
      <point x="483" y="156"/>
      <point x="457" y="203" type="curve"/>
      <point x="457" y="797" type="line"/>
      <point x="457" y="797"/>
      <point x="543" y="838"/>
      <point x="616" y="838" type="curve" smooth="yes"/>
      <point x="793" y="838"/>
      <point x="883" y="698"/>
    </contour>
  </outline>
</glyph>
<glyph name="LtnSmBHook" format="2">
  <advance width="1204"/>
  <unicode hex="0253"/>
  <anchor x="650" y="-100" name="L"/>
  <anchor x="650" y="1540" name="U"/>
  <outline>
    <contour>
      <point x="1141" y="561" type="curve" smooth="yes"/>
      <point x="1141" y="854"/>
      <point x="954" y="1024"/>
      <point x="733" y="1024" type="curve" smooth="yes"/>
      <point x="582" y="1024"/>
      <point x="432" y="924"/>
      <point x="432" y="924" type="curve"/>
      <point x="432" y="1024" type="line" smooth="yes"/>
      <point x="432" y="1280"/>
      <point x="559" y="1389"/>
      <point x="674" y="1389" type="curve"/>
      <point x="846" y="1190" type="line"/>
      <point x="846" y="1190"/>
      <point x="971" y="1206"/>
      <point x="971" y="1329" type="curve" smooth="yes"/>
      <point x="971" y="1456"/>
      <point x="807" y="1516"/>
      <point x="629" y="1516" type="curve" smooth="yes"/>
      <point x="428" y="1516"/>
      <point x="299" y="1425"/>
      <point x="229" y="1303" type="curve" smooth="yes"/>
      <point x="180" y="1219"/>
      <point x="160" y="1120"/>
      <point x="160" y="1024" type="curve" smooth="yes"/>
      <point x="160" y="0" type="line"/>
      <point x="512" y="0" type="line" smooth="yes"/>
      <point x="932" y="0"/>
      <point x="1141" y="236"/>
    </contour>
    <contour>
      <point x="844" y="500" type="curve" smooth="yes"/>
      <point x="844" y="260"/>
      <point x="748" y="115"/>
      <point x="506" y="115" type="curve" smooth="yes"/>
      <point x="432" y="115" type="line"/>
      <point x="432" y="838" type="line"/>
      <point x="432" y="838"/>
      <point x="500" y="848"/>
      <point x="549" y="848" type="curve" smooth="yes"/>
      <point x="741" y="848"/>
      <point x="844" y="721"/>
    </contour>
  </outline>
</glyph>
<glyph name="LtnSmDHook" format="2">
  <advance width="1278"/>
  <unicode hex="0257"/>
  <anchor x="642" y="-100" name="L"/>
  <anchor x="642" y="1540" name="U"/>
  <outline>
    <contour>
      <point x="1479" y="1343" type="curve" smooth="yes"/>
      <point x="1479" y="1483"/>
      <point x="1311" y="1516"/>
      <point x="1188" y="1516" type="curve" smooth="yes"/>
      <point x="938" y="1516"/>
      <point x="791" y="1352"/>
      <point x="791" y="1083" type="curve" smooth="yes"/>
      <point x="791" y="1006" type="line"/>
      <point x="791" y="1006"/>
      <point x="678" y="1024"/>
      <point x="600" y="1024" type="curve" smooth="yes"/>
      <point x="291" y="1024"/>
      <point x="66" y="829"/>
      <point x="66" y="477" type="curve" smooth="yes"/>
      <point x="66" y="188"/>
      <point x="217" y="-25"/>
      <point x="467" y="-25" type="curve" smooth="yes"/>
      <point x="616" y="-25"/>
      <point x="760" y="102"/>
      <point x="791" y="119" type="curve"/>
      <point x="791" y="0" type="line"/>
      <point x="1194" y="0" type="line"/>
      <point x="1194" y="96" type="line"/>
      <point x="1108" y="102" type="line" smooth="yes"/>
      <point x="1083" y="104"/>
      <point x="1063" y="125"/>
      <point x="1063" y="150" type="curve" smooth="yes"/>
      <point x="1063" y="1083" type="line" smooth="yes"/>
      <point x="1063" y="1307"/>
      <point x="1087" y="1364"/>
      <point x="1178" y="1401" type="curve"/>
      <point x="1366" y="1180" type="line"/>
      <point x="1366" y="1180"/>
      <point x="1479" y="1247"/>
    </contour>
    <contour>
      <point x="791" y="203" type="line"/>
      <point x="791" y="203"/>
      <point x="705" y="164"/>
      <point x="631" y="164" type="curve" smooth="yes"/>
      <point x="453" y="164"/>
      <point x="365" y="309"/>
      <point x="365" y="524" type="curve" smooth="yes"/>
      <point x="365" y="735"/>
      <point x="455" y="901"/>
      <point x="645" y="901" type="curve" smooth="yes"/>
      <point x="707" y="901"/>
      <point x="791" y="870"/>
      <point x="791" y="870" type="curve"/>
    </contour>
  </outline>
</glyph>
<glyph name="LtnSmRevE" format="2">
  <advance width="1083"/>
  <unicode hex="0258"/>
  <anchor x="541" y="-100" name="L"/>
  <anchor x="1083" y="1000" name="R"/>
  <anchor x="541" y="1100" name="U"/>
  <outline>
    <contour>
      <point x="518" y="-25" type="curve" smooth="yes"/>
      <point x="797" y="-25"/>
      <point x="1020" y="184"/>
      <point x="1020" y="487" type="curve" smooth="yes"/>
      <point x="1020" y="817"/>
      <point x="807" y="1024"/>
      <point x="528" y="1024" type="curve" smooth="yes"/>
      <point x="205" y="1024"/>
      <point x="63" y="815"/>
      <point x="63" y="578" type="curve" smooth="yes"/>
      <point x="63" y="555"/>
      <point x="63" y="531"/>
      <point x="63" y="508" type="curve"/>
      <point x="717" y="508" type="line"/>
      <point x="717" y="276"/>
      <point x="653" y="88"/>
      <point x="494" y="88" type="curve" smooth="yes"/>
      <point x="311" y="88"/>
      <point x="170" y="180"/>
      <point x="82" y="272" type="curve"/>
      <point x="82" y="135" type="line"/>
      <point x="184" y="14"/>
      <point x="319" y="-25"/>
    </contour>
    <contour>
      <point x="317" y="623" type="line"/>
      <point x="328" y="741"/>
      <point x="393" y="907"/>
      <point x="512" y="907" type="curve" smooth="yes"/>
      <point x="618" y="907"/>
      <point x="692" y="784"/>
      <point x="707" y="623" type="curve"/>
    </contour>
  </outline>
</glyph>
<glyph name="LtnSmGHook" format="2">
  <advance width="1243"/>
  <unicode hex="0260"/>
  <anchor x="646" y="-500" name="L"/>
  <anchor x="646" y="1540" name="U"/>
  <outline>
    <contour>
      <point x="540" y="-473" type="curve" smooth="yes"/>
      <point x="973" y="-473"/>
      <point x="1061" y="-223"/>
      <point x="1061" y="20" type="curve"/>
      <point x="1061" y="1192" type="line"/>
      <point x="1061" y="1358"/>
      <point x="1092" y="1391"/>
      <point x="1141" y="1415" type="curve"/>
      <point x="1343" y="1225" type="line"/>
      <point x="1409" y="1247"/>
      <point x="1470" y="1296"/>
      <point x="1470" y="1360" type="curve" smooth="yes"/>
      <point x="1470" y="1477"/>
      <point x="1356" y="1516"/>
      <point x="1274" y="1516" type="curve" smooth="yes"/>
      <point x="913" y="1516"/>
      <point x="788" y="1231"/>
      <point x="788" y="928" type="curve"/>
      <point x="717" y="987"/>
      <point x="639" y="1024"/>
      <point x="563" y="1024" type="curve" smooth="yes"/>
      <point x="274" y="1024"/>
      <point x="66" y="825"/>
      <point x="66" y="473" type="curve" smooth="yes"/>
      <point x="66" y="186"/>
      <point x="217" y="-25"/>
      <point x="467" y="-25" type="curve" smooth="yes"/>
      <point x="616" y="-25"/>
      <point x="788" y="117"/>
      <point x="788" y="117" type="curve"/>
      <point x="788" y="85"/>
      <point x="788" y="52"/>
      <point x="788" y="20" type="curve" smooth="yes"/>
      <point x="788" y="-227"/>
      <point x="682" y="-365"/>
      <point x="566" y="-365" type="curve" smooth="yes"/>
      <point x="507" y="-365"/>
      <point x="471" y="-355"/>
      <point x="417" y="-319" type="curve"/>
      <point x="341" y="-127" type="line"/>
      <point x="341" y="-127"/>
      <point x="298" y="-117"/>
      <point x="269" y="-117" type="curve" smooth="yes"/>
      <point x="208" y="-117"/>
      <point x="136" y="-177"/>
      <point x="136" y="-238" type="curve" smooth="yes"/>
      <point x="136" y="-366"/>
      <point x="292" y="-473"/>
    </contour>
    <contour>
      <point x="629" y="162" type="curve" smooth="yes"/>
      <point x="451" y="162"/>
      <point x="362" y="307"/>
      <point x="362" y="520" type="curve" smooth="yes"/>
      <point x="362" y="733"/>
      <point x="416" y="901"/>
      <point x="608" y="901" type="curve" smooth="yes"/>
      <point x="668" y="901"/>
      <point x="760" y="844"/>
      <point x="788" y="797" type="curve"/>
      <point x="788" y="201" type="line"/>
      <point x="788" y="201"/>
      <point x="702" y="162"/>
    </contour>
  </outline>
</glyph>
<glyph name="LtnSmGamma" format="2">
  <advance width="1204"/>
  <unicode hex="0263"/>
  <anchor x="640" y="-500" name="L"/>
  <anchor x="640" y="1100" name="U"/>
  <outline>
    <contour>
      <point x="1186" y="903" type="line"/>
      <point x="1186" y="1001" type="line"/>
      <point x="811" y="1001" type="line"/>
      <point x="811" y="903" type="line"/>
      <point x="899" y="893" type="line" smooth="yes"/>
      <point x="915" y="891"/>
      <point x="926" y="879"/>
      <point x="918" y="860" type="curve" smooth="yes"/>
      <point x="666" y="324" type="line"/>
      <point x="414" y="860" type="line" smooth="yes"/>
      <point x="406" y="879"/>
      <point x="416" y="891"/>
      <point x="428" y="893" type="curve" smooth="yes"/>
      <point x="530" y="903" type="line"/>
      <point x="530" y="1001" type="line"/>
      <point x="20" y="1001" type="line"/>
      <point x="20" y="903" type="line"/>
      <point x="137" y="891" type="line"/>
      <point x="530" y="43" type="line"/>
      <point x="455" y="-115" type="line" smooth="yes"/>
      <point x="432" y="-158"/>
      <point x="416" y="-219"/>
      <point x="416" y="-254" type="curve" smooth="yes"/>
      <point x="416" y="-389"/>
      <point x="469" y="-473"/>
      <point x="662" y="-473" type="curve" smooth="yes"/>
      <point x="807" y="-473"/>
      <point x="883" y="-338"/>
      <point x="883" y="-217" type="curve" smooth="yes"/>
      <point x="883" y="-172"/>
      <point x="874" y="-129"/>
      <point x="856" y="-90" type="curve" smooth="yes"/>
      <point x="852" y="-80"/>
      <point x="783" y="67"/>
      <point x="733" y="174" type="curve"/>
      <point x="1073" y="891" type="line"/>
    </contour>
    <contour>
      <point x="668" y="-279" type="curve" smooth="yes"/>
      <point x="668" y="-326"/>
      <point x="639" y="-344"/>
      <point x="598" y="-344" type="curve" smooth="yes"/>
      <point x="573" y="-344"/>
      <point x="537" y="-315"/>
      <point x="537" y="-266" type="curve" smooth="yes"/>
      <point x="537" y="-252"/>
      <point x="541" y="-236"/>
      <point x="549" y="-219" type="curve" smooth="yes"/>
      <point x="550" y="-213"/>
      <point x="578" y="-151"/>
      <point x="598" y="-106" type="curve"/>
      <point x="619" y="-152"/>
      <point x="648" y="-215"/>
      <point x="651" y="-219" type="curve" smooth="yes"/>
      <point x="662" y="-242"/>
      <point x="668" y="-262"/>
    </contour>
  </outline>
</glyph>
<glyph name="LtnSmTurnedH" format="2">
  <advance width="1282"/>
  <unicode hex="0265"/>
  <anchor x="483" y="-100" name="L"/>
  <anchor x="648" y="1100" name="U"/>
  <outline>
    <contour>
      <point x="1243" y="-371" type="line"/>
      <point x="1243" y="-287" type="line"/>
      <point x="1098" y="-287" type="line"/>
      <point x="1098" y="850" type="line" smooth="yes"/>
      <point x="1098" y="874"/>
      <point x="1118" y="895"/>
      <point x="1143" y="897" type="curve" smooth="yes"/>
      <point x="1227" y="903" type="line"/>
      <point x="1227" y="999" type="line"/>
      <point x="707" y="999" type="line"/>
      <point x="707" y="903" type="line"/>
      <point x="778" y="897" type="line" smooth="yes"/>
      <point x="803" y="895"/>
      <point x="823" y="874"/>
      <point x="823" y="850" type="curve" smooth="yes"/>
      <point x="823" y="190" type="line"/>
      <point x="823" y="190"/>
      <point x="713" y="164"/>
      <point x="631" y="164" type="curve" smooth="yes"/>
      <point x="479" y="164"/>
      <point x="459" y="299"/>
      <point x="459" y="367" type="curve" smooth="yes"/>
      <point x="459" y="850" type="line" smooth="yes"/>
      <point x="459" y="874"/>
      <point x="479" y="895"/>
      <point x="504" y="897" type="curve" smooth="yes"/>
      <point x="569" y="903" type="line"/>
      <point x="569" y="999" type="line"/>
      <point x="53" y="999" type="line"/>
      <point x="53" y="903" type="line"/>
      <point x="139" y="897" type="line" smooth="yes"/>
      <point x="164" y="895"/>
      <point x="184" y="874"/>
      <point x="184" y="850" type="curve" smooth="yes"/>
      <point x="184" y="297" type="line" smooth="yes"/>
      <point x="184" y="174"/>
      <point x="223" y="-25"/>
      <point x="465" y="-25" type="curve" smooth="yes"/>
      <point x="625" y="-25"/>
      <point x="823" y="102"/>
      <point x="823" y="102" type="curve"/>
      <point x="823" y="-473" type="line"/>
      <point x="930" y="-473" type="line"/>
    </contour>
  </outline>
</glyph>
<glyph name="LtnSmIStrk" format="2">
  <advance width="682"/>
  <unicode hex="0268"/>
  <anchor x="342" y="0" name="H"/>
  <anchor x="342" y="-100" name="L"/>
  <anchor x="401" y="0" name="O"/>
  <anchor x="682" y="1000" name="R"/>
  <anchor x="344" y="1500" name="U"/>
  <outline>
    <contour>
      <point x="506" y="1358" type="curve" smooth="yes"/>
      <point x="506" y="1446"/>
      <point x="434" y="1516"/>
      <point x="346" y="1516" type="curve" smooth="yes"/>
      <point x="258" y="1516"/>
      <point x="188" y="1446"/>
      <point x="188" y="1358" type="curve" smooth="yes"/>
      <point x="188" y="1270"/>
      <point x="258" y="1198"/>
      <point x="346" y="1198" type="curve" smooth="yes"/>
      <point x="434" y="1198"/>
      <point x="506" y="1270"/>
    </contour>
    <contour>
      <point x="629" y="444" type="line"/>
      <point x="629" y="575" type="line"/>
      <point x="477" y="575" type="line"/>
      <point x="477" y="1024" type="line"/>
      <point x="373" y="1024" type="line"/>
      <point x="74" y="922" type="line"/>
      <point x="74" y="838" type="line"/>
      <point x="205" y="838" type="line"/>
      <point x="205" y="575" type="line"/>
      <point x="55" y="575" type="line"/>
      <point x="55" y="444" type="line"/>
      <point x="205" y="444" type="line"/>
      <point x="205" y="150" type="line" smooth="yes"/>
      <point x="205" y="125"/>
      <point x="184" y="104"/>
      <point x="160" y="102" type="curve" smooth="yes"/>
      <point x="66" y="96" type="line"/>
      <point x="66" y="0" type="line"/>
      <point x="623" y="0" type="line"/>
      <point x="623" y="96" type="line"/>
      <point x="524" y="102" type="line" smooth="yes"/>
      <point x="500" y="103"/>
      <point x="477" y="125"/>
      <point x="477" y="150" type="curve" smooth="yes"/>
      <point x="477" y="444" type="line"/>
    </contour>
  </outline>
</glyph>
<glyph name="LtnSmIota" format="2">
  <advance width="780"/>
  <unicode hex="0269"/>
  <anchor x="325" y="0" name="H"/>
  <anchor x="325" y="-100" name="L"/>
  <anchor x="479" y="0" name="O"/>
  <anchor x="780" y="1000" name="R"/>
  <anchor x="325" y="1100" name="U"/>
  <outline>
    <contour>
      <point x="780" y="258" type="curve"/>
      <point x="631" y="258" type="line"/>
      <point x="592" y="178"/>
      <point x="535" y="178"/>
      <point x="520" y="178" type="curve" smooth="yes"/>
      <point x="506" y="178"/>
      <point x="459" y="178"/>
      <point x="459" y="274" type="curve" smooth="yes"/>
      <point x="459" y="1024" type="line"/>
      <point x="356" y="1024" type="line"/>
      <point x="51" y="922" type="line"/>
      <point x="51" y="836" type="line"/>
      <point x="184" y="836" type="line"/>
      <point x="184" y="252" type="line" smooth="yes"/>
      <point x="184" y="33"/>
      <point x="319" y="-25"/>
      <point x="438" y="-25" type="curve" smooth="yes"/>
      <point x="545" y="-25"/>
      <point x="707" y="49"/>
    </contour>
  </outline>
</glyph>
<glyph name="LtnSmCapN" format="2">
  <advance width="1219"/>
  <unicode hex="0274"/>
  <anchor x="607" y="-100" name="L"/>
  <anchor x="607" y="1100" name="U"/>
  <outline>
    <contour>
      <point x="1171" y="903" type="line"/>
      <point x="1171" y="999" type="line"/>
      <point x="776" y="999" type="line"/>
      <point x="776" y="903" type="line"/>
      <point x="879" y="895" type="line" smooth="yes"/>
      <point x="895" y="893"/>
      <point x="903" y="885"/>
      <point x="903" y="874" type="curve" smooth="yes"/>
      <point x="903" y="328" type="line"/>
      <point x="465" y="952" type="line"/>
      <point x="465" y="999" type="line"/>
      <point x="45" y="999" type="line"/>
      <point x="45" y="903" type="line"/>
      <point x="143" y="895" type="line" smooth="yes"/>
      <point x="158" y="893"/>
      <point x="168" y="885"/>
      <point x="168" y="874" type="curve" smooth="yes"/>
      <point x="168" y="125" type="line" smooth="yes"/>
      <point x="168" y="115"/>
      <point x="158" y="106"/>
      <point x="141" y="104" type="curve" smooth="yes"/>
      <point x="43" y="96" type="line"/>
      <point x="43" y="0" type="line"/>
      <point x="436" y="0" type="line"/>
      <point x="436" y="96" type="line"/>
      <point x="338" y="104" type="line" smooth="yes"/>
      <point x="322" y="106"/>
      <point x="313" y="115"/>
      <point x="313" y="125" type="curve" smooth="yes"/>
      <point x="313" y="745" type="line"/>
      <point x="836" y="0" type="line"/>
      <point x="1049" y="0" type="line"/>
      <point x="1049" y="874" type="line" smooth="yes"/>
      <point x="1049" y="885"/>
      <point x="1059" y="893"/>
      <point x="1073" y="895" type="curve" smooth="yes"/>
    </contour>
  </outline>
</glyph>
<glyph name="LtnSmBarredO" format="2">
  <advance width="1196"/>
  <unicode hex="0275"/>
  <anchor x="599" y="-100" name="L"/>
  <anchor x="1196" y="1000" name="R"/>
  <anchor x="599" y="1100" name="U"/>
  <outline>
    <contour>
      <point x="1133" y="494" type="curve" smooth="yes"/>
      <point x="1133" y="805"/>
      <point x="944" y="1024"/>
      <point x="606" y="1024" type="curve" smooth="yes"/>
      <point x="289" y="1024"/>
      <point x="66" y="831"/>
      <point x="66" y="496" type="curve" smooth="yes"/>
      <point x="66" y="172"/>
      <point x="281" y="-25"/>
      <point x="592" y="-25" type="curve" smooth="yes"/>
      <point x="932" y="-25"/>
      <point x="1133" y="188"/>
    </contour>
    <contour>
      <point x="823" y="575" type="curve"/>
      <point x="375" y="575" type="line"/>
      <point x="385" y="735"/>
      <point x="438" y="907"/>
      <point x="598" y="907" type="curve" smooth="yes"/>
      <point x="760" y="907"/>
      <point x="811" y="735"/>
    </contour>
    <contour>
      <point x="825" y="444" type="line"/>
      <point x="819" y="274"/>
      <point x="770" y="90"/>
      <point x="600" y="90" type="curve" smooth="yes"/>
      <point x="430" y="90"/>
      <point x="381" y="281"/>
      <point x="373" y="444" type="curve"/>
    </contour>
  </outline>
</glyph>
<glyph name="LtnSmCapOe" format="2">
  <advance width="1700"/>
  <unicode hex="0276"/>
  <anchor x="850" y="-100" name="L"/>
  <anchor x="1700" y="1000" name="R"/>
  <anchor x="850" y="1100" name="U"/>
  <outline>
    <contour>
      <point x="614" y="-25" type="curve" smooth="yes"/>
      <point x="729" y="-25"/>
      <point x="809" y="4"/>
      <point x="891" y="53" type="curve"/>
      <point x="891" y="0" type="line"/>
      <point x="1634" y="0" type="line"/>
      <point x="1634" y="289" type="line"/>
      <point x="1497" y="289" type="line"/>
      <point x="1473" y="133" type="line" smooth="yes"/>
      <point x="1470" y="117"/>
      <point x="1460" y="109"/>
      <point x="1444" y="109" type="curve" smooth="yes"/>
      <point x="1137" y="109" type="line"/>
      <point x="1137" y="459" type="line"/>
      <point x="1286" y="459" type="line" smooth="yes"/>
      <point x="1305" y="459"/>
      <point x="1313" y="449"/>
      <point x="1315" y="430" type="curve"/>
      <point x="1329" y="334" type="line"/>
      <point x="1448" y="334" type="line"/>
      <point x="1448" y="698" type="line"/>
      <point x="1329" y="698" type="line"/>
      <point x="1315" y="600" type="line"/>
      <point x="1313" y="580"/>
      <point x="1303" y="573"/>
      <point x="1286" y="573" type="curve" smooth="yes"/>
      <point x="1137" y="573" type="line"/>
      <point x="1137" y="891" type="line"/>
      <point x="1403" y="891" type="line" smooth="yes"/>
      <point x="1411" y="891"/>
      <point x="1419" y="885"/>
      <point x="1421" y="874" type="curve" smooth="yes"/>
      <point x="1448" y="743" type="line"/>
      <point x="1583" y="743" type="line"/>
      <point x="1583" y="999" type="line"/>
      <point x="891" y="999" type="line"/>
      <point x="891" y="940" type="line"/>
      <point x="805" y="993"/>
      <point x="721" y="1024"/>
      <point x="600" y="1024" type="curve" smooth="yes"/>
      <point x="252" y="1024"/>
      <point x="66" y="801"/>
      <point x="66" y="506" type="curve" smooth="yes"/>
      <point x="66" y="168"/>
      <point x="287" y="-25"/>
    </contour>
    <contour>
      <point x="598" y="90" type="curve" smooth="yes"/>
      <point x="412" y="90"/>
      <point x="365" y="295"/>
      <point x="365" y="502" type="curve" smooth="yes"/>
      <point x="365" y="696"/>
      <point x="401" y="903"/>
      <point x="614" y="903" type="curve" smooth="yes"/>
      <point x="788" y="903"/>
      <point x="844" y="717"/>
      <point x="844" y="489" type="curve" smooth="yes"/>
      <point x="844" y="301"/>
      <point x="803" y="90"/>
    </contour>
  </outline>
</glyph>
<glyph name="LtnSmClosedOmega" format="2">
  <advance width="1499"/>
  <unicode hex="0277"/>
  <anchor x="750" y="-100" name="L"/>
  <anchor x="1499" y="1000" name="R"/>
  <anchor x="750" y="1100" name="U"/>
  <outline>
    <contour>
      <point x="1434" y="410" type="curve" smooth="yes"/>
      <point x="1434" y="739"/>
      <point x="1245" y="1024"/>
      <point x="756" y="1024" type="curve" smooth="yes"/>
      <point x="256" y="1024"/>
      <point x="66" y="739"/>
      <point x="66" y="410" type="curve" smooth="yes"/>
      <point x="66" y="150"/>
      <point x="217" y="-25"/>
      <point x="449" y="-25" type="curve" smooth="yes"/>
      <point x="606" y="-25"/>
      <point x="713" y="18"/>
      <point x="752" y="195" type="curve"/>
      <point x="786" y="20"/>
      <point x="893" y="-25"/>
      <point x="1053" y="-25" type="curve" smooth="yes"/>
      <point x="1284" y="-25"/>
      <point x="1434" y="147"/>
    </contour>
    <contour>
      <point x="1143" y="399" type="curve" smooth="yes"/>
      <point x="1143" y="217"/>
      <point x="1104" y="98"/>
      <point x="981" y="98" type="curve" smooth="yes"/>
      <point x="820" y="98"/>
      <point x="819" y="240"/>
      <point x="819" y="311" type="curve" smooth="yes"/>
      <point x="819" y="492"/>
      <point x="881" y="446"/>
      <point x="881" y="580" type="curve" smooth="yes"/>
      <point x="881" y="690"/>
      <point x="813" y="766"/>
      <point x="754" y="766" type="curve" smooth="yes"/>
      <point x="694" y="766"/>
      <point x="625" y="682"/>
      <point x="625" y="584" type="curve" smooth="yes"/>
      <point x="625" y="438"/>
      <point x="684" y="489"/>
      <point x="684" y="309" type="curve" smooth="yes"/>
      <point x="684" y="236"/>
      <point x="676" y="98"/>
      <point x="524" y="98" type="curve" smooth="yes"/>
      <point x="397" y="98"/>
      <point x="362" y="213"/>
      <point x="362" y="399" type="curve" smooth="yes"/>
      <point x="362" y="676"/>
      <point x="438" y="905"/>
      <point x="752" y="905" type="curve" smooth="yes"/>
      <point x="1069" y="905"/>
      <point x="1143" y="678"/>
    </contour>
  </outline>
</glyph>
<glyph name="LtnSmTurnedR" format="2">
  <advance width="885"/>
  <unicode hex="0279"/>
  <anchor x="435" y="-100" name="L"/>
  <anchor x="435" y="1100" name="U"/>
  <outline>
    <contour>
      <point x="850" y="80" type="line"/>
      <point x="850" y="164" type="line"/>
      <point x="700" y="164" type="line"/>
      <point x="700" y="850" type="line" smooth="yes"/>
      <point x="700" y="874"/>
      <point x="721" y="895"/>
      <point x="745" y="897" type="curve" smooth="yes"/>
      <point x="836" y="903" type="line"/>
      <point x="836" y="999" type="line"/>
      <point x="252" y="999" type="line"/>
      <point x="252" y="903" type="line"/>
      <point x="383" y="897" type="line" smooth="yes"/>
      <point x="408" y="896"/>
      <point x="426" y="874"/>
      <point x="426" y="850" type="curve" smooth="yes"/>
      <point x="426" y="279" type="line"/>
      <point x="388" y="255"/>
      <point x="339" y="242"/>
      <point x="295" y="242" type="curve" smooth="yes"/>
      <point x="213" y="242"/>
      <point x="178" y="297"/>
      <point x="162" y="324" type="curve"/>
      <point x="20" y="324" type="line"/>
      <point x="20" y="12" type="line"/>
      <point x="45" y="-6"/>
      <point x="102" y="-25"/>
      <point x="150" y="-25" type="curve" smooth="yes"/>
      <point x="244" y="-25"/>
      <point x="375" y="127"/>
      <point x="426" y="193" type="curve"/>
      <point x="426" y="-25" type="line"/>
      <point x="532" y="-25" type="line"/>
    </contour>
  </outline>
</glyph>
<glyph name="LtnSmTurnedRHook" format="2">
  <advance width="885"/>
  <unicode hex="027B"/>
  <anchor x="561" y="-500" name="L"/>
  <anchor x="561" y="1100" name="U"/>
  <outline>
    <contour>
      <point x="1102" y="-317" type="curve" smooth="yes"/>
      <point x="1102" y="-254"/>
      <point x="1040" y="-203"/>
      <point x="975" y="-182" type="curve"/>
      <point x="770" y="-373" type="line"/>
      <point x="729" y="-311"/>
      <point x="700" y="-246"/>
      <point x="700" y="-59" type="curve" smooth="yes"/>
      <point x="700" y="850" type="line" smooth="yes"/>
      <point x="700" y="874"/>
      <point x="721" y="895"/>
      <point x="745" y="897" type="curve" smooth="yes"/>
      <point x="836" y="903" type="line"/>
      <point x="836" y="999" type="line"/>
      <point x="252" y="999" type="line"/>
      <point x="252" y="903" type="line"/>
      <point x="383" y="897" type="line" smooth="yes"/>
      <point x="408" y="895"/>
      <point x="426" y="874"/>
      <point x="426" y="850" type="curve" smooth="yes"/>
      <point x="426" y="279" type="line"/>
      <point x="402" y="263"/>
      <point x="350" y="242"/>
      <point x="295" y="242" type="curve" smooth="yes"/>
      <point x="213" y="242"/>
      <point x="178" y="297"/>
      <point x="162" y="324" type="curve"/>
      <point x="20" y="324" type="line"/>
      <point x="20" y="12" type="line"/>
      <point x="45" y="-6"/>
      <point x="102" y="-25"/>
      <point x="150" y="-25" type="curve" smooth="yes"/>
      <point x="244" y="-25"/>
      <point x="375" y="127"/>
      <point x="426" y="193" type="curve"/>
      <point x="426" y="119" type="line" smooth="yes"/>
      <point x="426" y="-225"/>
      <point x="621" y="-473"/>
      <point x="905" y="-473" type="curve" smooth="yes"/>
      <point x="987" y="-473"/>
      <point x="1102" y="-434"/>
    </contour>
  </outline>
</glyph>
<glyph name="LtnSmRLngLeg" format="2">
  <advance width="885"/>
  <unicode hex="027C"/>
  <anchor x="309" y="-500" name="L"/>
  <anchor x="449" y="1100" name="U"/>
  <outline>
    <contour>
      <point x="864" y="676" type="line"/>
      <point x="864" y="987" type="line"/>
      <point x="840" y="1006"/>
      <point x="782" y="1024"/>
      <point x="735" y="1024" type="curve" smooth="yes"/>
      <point x="641" y="1024"/>
      <point x="510" y="872"/>
      <point x="459" y="807" type="curve"/>
      <point x="459" y="1024" type="line"/>
      <point x="352" y="1024" type="line"/>
      <point x="35" y="920" type="line"/>
      <point x="35" y="836" type="line"/>
      <point x="184" y="836" type="line"/>
      <point x="184" y="-299" type="line" smooth="yes"/>
      <point x="184" y="-324"/>
      <point x="164" y="-346"/>
      <point x="139" y="-346" type="curve"/>
      <point x="49" y="-352" type="line"/>
      <point x="49" y="-449" type="line"/>
      <point x="635" y="-449" type="line"/>
      <point x="635" y="-352" type="line"/>
      <point x="504" y="-346" type="line" smooth="yes"/>
      <point x="477" y="-345"/>
      <point x="459" y="-324"/>
      <point x="459" y="-299" type="curve" smooth="yes"/>
      <point x="459" y="721" type="line"/>
      <point x="483" y="737"/>
      <point x="535" y="758"/>
      <point x="592" y="758" type="curve" smooth="yes"/>
      <point x="672" y="758"/>
      <point x="709" y="702"/>
      <point x="725" y="676" type="curve"/>
    </contour>
  </outline>
</glyph>
<glyph name="LtnSmDotlessJStrkHook" format="2">
  <advance width="729"/>
  <unicode hex="0284"/>
  <anchor x="347" y="-500" name="L"/>
  <anchor x="372" y="-383" name="O"/>
  <anchor x="347" y="1540" name="U"/>
  <outline>
    <contour>
      <point x="12" y="-473" type="curve" smooth="yes"/>
      <point x="270" y="-473"/>
      <point x="481" y="-266"/>
      <point x="481" y="-66" type="curve" smooth="yes"/>
      <point x="481" y="469" type="line"/>
      <point x="686" y="469" type="line"/>
      <point x="686" y="598" type="line"/>
      <point x="483" y="598" type="line"/>
      <point x="483" y="1108" type="line" smooth="yes"/>
      <point x="483" y="1294"/>
      <point x="506" y="1354"/>
      <point x="549" y="1415" type="curve"/>
      <point x="752" y="1225" type="line"/>
      <point x="817" y="1247"/>
      <point x="879" y="1296"/>
      <point x="879" y="1360" type="curve" smooth="yes"/>
      <point x="879" y="1477"/>
      <point x="764" y="1516"/>
      <point x="682" y="1516" type="curve" smooth="yes"/>
      <point x="397" y="1516"/>
      <point x="211" y="1257"/>
      <point x="211" y="993" type="curve" smooth="yes"/>
      <point x="211" y="598" type="line"/>
      <point x="6" y="598" type="line"/>
      <point x="6" y="469" type="line"/>
      <point x="213" y="469" type="line"/>
      <point x="213" y="-66" type="line" smooth="yes"/>
      <point x="213" y="-252"/>
      <point x="186" y="-311"/>
      <point x="145" y="-373" type="curve"/>
      <point x="-57" y="-182" type="line"/>
      <point x="-123" y="-203"/>
      <point x="-184" y="-254"/>
      <point x="-184" y="-317" type="curve" smooth="yes"/>
      <point x="-184" y="-434"/>
      <point x="-70" y="-473"/>
    </contour>
  </outline>
</glyph>
<glyph name="LtnSmSquatRevEsh" format="2">
  <advance width="883"/>
  <unicode hex="0285"/>
  <anchor x="441" y="-500" name="L"/>
  <anchor x="441" y="1100" name="U"/>
  <outline>
    <contour>
      <point x="967" y="-317" type="curve" smooth="yes"/>
      <point x="967" y="-244"/>
      <point x="905" y="-180"/>
      <point x="836" y="-180" type="curve"/>
      <point x="635" y="-383" type="line"/>
      <point x="588" y="-307"/>
      <point x="578" y="-126"/>
      <point x="578" y="-10" type="curve" smooth="yes"/>
      <point x="578" y="453" type="line" smooth="yes"/>
      <point x="578" y="741"/>
      <point x="446" y="1024"/>
      <point x="121" y="1024" type="curve" smooth="yes"/>
      <point x="10" y="1024"/>
      <point x="-84" y="969"/>
      <point x="-84" y="866" type="curve" smooth="yes"/>
      <point x="-84" y="795"/>
      <point x="-23" y="729"/>
      <point x="47" y="729" type="curve"/>
      <point x="248" y="932" type="line"/>
      <point x="294" y="857"/>
      <point x="305" y="675"/>
      <point x="305" y="559" type="curve" smooth="yes"/>
      <point x="305" y="96" type="line" smooth="yes"/>
      <point x="305" y="-193"/>
      <point x="436" y="-473"/>
      <point x="762" y="-473" type="curve" smooth="yes"/>
      <point x="872" y="-473"/>
      <point x="967" y="-418"/>
    </contour>
  </outline>
</glyph>
<glyph name="LtnSmTRetrHook" format="2">
  <advance width="768"/>
  <unicode hex="0288"/>
  <anchor x="305" y="-500" name="L"/>
  <anchor x="768" y="1000" name="R"/>
  <anchor x="305" y="1363" name="U"/>
  <outline>
    <contour>
      <point x="760" y="-403" type="curve"/>
      <point x="760" y="-301" type="line"/>
      <point x="726" y="-307"/>
      <point x="671" y="-315"/>
      <point x="627" y="-315" type="curve" smooth="yes"/>
      <point x="518" y="-315"/>
      <point x="459" y="-268"/>
      <point x="459" y="-137" type="curve" smooth="yes"/>
      <point x="459" y="868" type="line"/>
      <point x="743" y="868" type="line"/>
      <point x="743" y="999" type="line"/>
      <point x="459" y="999" type="line"/>
      <point x="459" y="1262" type="line"/>
      <point x="317" y="1262" type="line"/>
      <point x="207" y="1044" type="line"/>
      <point x="49" y="950" type="line"/>
      <point x="49" y="868" type="line"/>
      <point x="184" y="868" type="line"/>
      <point x="184" y="-221" type="line" smooth="yes"/>
      <point x="184" y="-393"/>
      <point x="250" y="-473"/>
      <point x="432" y="-473" type="curve" smooth="yes"/>
      <point x="541" y="-473"/>
      <point x="682" y="-437"/>
    </contour>
  </outline>
</glyph>
<glyph name="LtnSmUBar" format="2">
  <advance width="1270"/>
  <unicode hex="0289"/>
  <anchor x="635" y="0" name="H"/>
  <anchor x="635" y="-100" name="L"/>
  <anchor x="694" y="0" name="O"/>
  <anchor x="1270" y="1000" name="R"/>
  <anchor x="635" y="1100" name="U"/>
  <outline>
    <contour>
      <point x="487" y="-25" type="curve" smooth="yes"/>
      <point x="637" y="-25"/>
      <point x="811" y="113"/>
      <point x="811" y="113" type="curve"/>
      <point x="811" y="0" type="line"/>
      <point x="1223" y="0" type="line"/>
      <point x="1223" y="96" type="line"/>
      <point x="1133" y="102" type="line" smooth="yes"/>
      <point x="1108" y="104"/>
      <point x="1085" y="125"/>
      <point x="1085" y="150" type="curve" smooth="yes"/>
      <point x="1085" y="444" type="line"/>
      <point x="1243" y="444" type="line"/>
      <point x="1243" y="575" type="line"/>
      <point x="1085" y="575" type="line"/>
      <point x="1085" y="1024" type="line"/>
      <point x="981" y="1024" type="line"/>
      <point x="682" y="922" type="line"/>
      <point x="682" y="838" type="line"/>
      <point x="811" y="838" type="line"/>
      <point x="811" y="575" type="line"/>
      <point x="459" y="575" type="line"/>
      <point x="459" y="1024" type="line"/>
      <point x="352" y="1024" type="line"/>
      <point x="51" y="922" type="line"/>
      <point x="51" y="838" type="line"/>
      <point x="184" y="838" type="line"/>
      <point x="184" y="575" type="line"/>
      <point x="27" y="575" type="line"/>
      <point x="27" y="444" type="line"/>
      <point x="184" y="444" type="line"/>
      <point x="184" y="309" type="line" smooth="yes"/>
      <point x="184" y="100"/>
      <point x="254" y="-25"/>
    </contour>
    <contour>
      <point x="647" y="162" type="curve" smooth="yes"/>
      <point x="473" y="162"/>
      <point x="459" y="289"/>
      <point x="459" y="389" type="curve" smooth="yes"/>
      <point x="459" y="444" type="line"/>
      <point x="811" y="444" type="line"/>
      <point x="811" y="197" type="line"/>
      <point x="811" y="197"/>
      <point x="733" y="162"/>
    </contour>
  </outline>
</glyph>
<glyph name="LtnSmUpsilon" format="2">
  <advance width="1227"/>
  <unicode hex="028A"/>
  <anchor x="613" y="0" name="H"/>
  <anchor x="613" y="-100" name="L"/>
  <anchor x="673" y="0" name="O"/>
  <anchor x="1227" y="1000" name="R"/>
  <anchor x="613" y="1100" name="U"/>
  <outline>
    <contour>
      <point x="1161" y="463" type="curve" smooth="yes"/>
      <point x="1161" y="633"/>
      <point x="1005" y="788"/>
      <point x="930" y="862" type="curve" smooth="yes"/>
      <point x="916" y="876"/>
      <point x="926" y="892"/>
      <point x="940" y="893" type="curve" smooth="yes"/>
      <point x="1059" y="903" type="line"/>
      <point x="1059" y="999" type="line"/>
      <point x="750" y="999" type="line"/>
      <point x="860" y="823"/>
      <point x="860" y="666"/>
      <point x="860" y="508" type="curve" smooth="yes"/>
      <point x="860" y="197"/>
      <point x="705" y="76"/>
      <point x="614" y="76" type="curve" smooth="yes"/>
      <point x="524" y="76"/>
      <point x="369" y="197"/>
      <point x="369" y="508" type="curve" smooth="yes"/>
      <point x="369" y="674"/>
      <point x="369" y="823"/>
      <point x="479" y="999" type="curve"/>
      <point x="170" y="999" type="line"/>
      <point x="170" y="903" type="line"/>
      <point x="289" y="893" type="line" smooth="yes"/>
      <point x="303" y="892"/>
      <point x="312" y="875"/>
      <point x="299" y="862" type="curve" smooth="yes"/>
      <point x="221" y="787"/>
      <point x="66" y="633"/>
      <point x="66" y="463" type="curve" smooth="yes"/>
      <point x="66" y="203"/>
      <point x="225" y="-25"/>
      <point x="614" y="-25" type="curve" smooth="yes"/>
      <point x="1010" y="-25"/>
      <point x="1161" y="203"/>
    </contour>
  </outline>
</glyph>
<glyph name="LtnSmVHook" format="2">
  <advance width="1135"/>
  <unicode hex="028B"/>
  <anchor x="560" y="0" name="H"/>
  <anchor x="560" y="-100" name="L"/>
  <anchor x="615" y="0" name="O"/>
  <anchor x="560" y="1100" name="U"/>
  <outline>
    <contour>
      <point x="1069" y="537" type="curve" smooth="yes"/>
      <point x="1069" y="743"/>
      <point x="950" y="1024"/>
      <point x="748" y="1024" type="curve" smooth="yes"/>
      <point x="686" y="1024"/>
      <point x="610" y="958"/>
      <point x="610" y="895" type="curve" smooth="yes"/>
      <point x="610" y="864"/>
      <point x="629" y="821"/>
      <point x="643" y="797" type="curve"/>
      <point x="840" y="797" type="line"/>
      <point x="907" y="752"/>
      <point x="928" y="651"/>
      <point x="928" y="559" type="curve" smooth="yes"/>
      <point x="928" y="311"/>
      <point x="842" y="127"/>
      <point x="682" y="127" type="curve" smooth="yes"/>
      <point x="545" y="127"/>
      <point x="459" y="174"/>
      <point x="459" y="332" type="curve" smooth="yes"/>
      <point x="459" y="1024" type="line"/>
      <point x="352" y="1024" type="line"/>
      <point x="51" y="922" type="line"/>
      <point x="51" y="838" type="line"/>
      <point x="184" y="838" type="line"/>
      <point x="184" y="377" type="line" smooth="yes"/>
      <point x="184" y="66"/>
      <point x="324" y="-25"/>
      <point x="598" y="-25" type="curve" smooth="yes"/>
      <point x="895" y="-25"/>
      <point x="1069" y="236"/>
    </contour>
  </outline>
</glyph>
<glyph name="LtnSmEzh" format="2">
  <advance width="1147"/>
  <unicode hex="0292"/>
  <anchor x="557" y="-500" name="L"/>
  <anchor x="557" y="1100" name="U"/>
  <outline>
    <contour>
      <point x="1081" y="49" type="curve" smooth="yes"/>
      <point x="1081" y="225"/>
      <point x="903" y="412"/>
      <point x="651" y="412" type="curve"/>
      <point x="1024" y="905" type="line"/>
      <point x="1024" y="999" type="line"/>
      <point x="111" y="999" type="line"/>
      <point x="111" y="541" type="line"/>
      <point x="256" y="541" type="line"/>
      <point x="270" y="723" type="line" smooth="yes"/>
      <point x="271" y="741"/>
      <point x="291" y="766"/>
      <point x="311" y="766" type="curve" smooth="yes"/>
      <point x="735" y="766" type="line"/>
      <point x="424" y="348" type="line"/>
      <point x="479" y="295" type="line"/>
      <point x="482" y="302"/>
      <point x="506" y="311"/>
      <point x="559" y="311" type="curve" smooth="yes"/>
      <point x="717" y="311"/>
      <point x="780" y="203"/>
      <point x="780" y="47" type="curve" smooth="yes"/>
      <point x="780" y="-113"/>
      <point x="678" y="-342"/>
      <point x="524" y="-342" type="curve" smooth="yes"/>
      <point x="469" y="-342"/>
      <point x="381" y="-311"/>
      <point x="338" y="-295" type="curve"/>
      <point x="270" y="-66" type="line"/>
      <point x="248" y="-55"/>
      <point x="219" y="-41"/>
      <point x="182" y="-41" type="curve" smooth="yes"/>
      <point x="119" y="-41"/>
      <point x="33" y="-72"/>
      <point x="33" y="-186" type="curve" smooth="yes"/>
      <point x="33" y="-322"/>
      <point x="240" y="-473"/>
      <point x="506" y="-473" type="curve" smooth="yes"/>
      <point x="821" y="-473"/>
      <point x="1081" y="-213"/>
    </contour>
  </outline>
</glyph>
<glyph name="LtnGlottalStop" format="2">
  <advance width="983"/>
  <unicode hex="0294"/>
  <anchor x="491" y="-100" name="L"/>
  <anchor x="983" y="1000" name="R"/>
  <anchor x="491" y="1540" name="U"/>
  <outline>
    <contour>
      <point x="907" y="1018" type="curve" smooth="yes"/>
      <point x="907" y="1255"/>
      <point x="709" y="1407"/>
      <point x="442" y="1407" type="curve" smooth="yes"/>
      <point x="276" y="1407"/>
      <point x="76" y="1356"/>
      <point x="76" y="1178" type="curve" smooth="yes"/>
      <point x="76" y="1090"/>
      <point x="143" y="1069"/>
      <point x="188" y="1069" type="curve" smooth="yes"/>
      <point x="218" y="1069"/>
      <point x="252" y="1076"/>
      <point x="279" y="1087" type="curve"/>
      <point x="350" y="1262" type="line"/>
      <point x="383" y="1282"/>
      <point x="403" y="1284"/>
      <point x="444" y="1284" type="curve" smooth="yes"/>
      <point x="573" y="1284"/>
      <point x="629" y="1137"/>
      <point x="629" y="1022" type="curve" smooth="yes"/>
      <point x="629" y="875"/>
      <point x="527" y="710"/>
      <point x="274" y="621" type="curve"/>
      <point x="274" y="162" type="line" smooth="yes"/>
      <point x="274" y="135"/>
      <point x="256" y="119"/>
      <point x="229" y="117" type="curve" smooth="yes"/>
      <point x="98" y="106" type="line"/>
      <point x="98" y="0" type="line"/>
      <point x="725" y="0" type="line"/>
      <point x="725" y="106" type="line"/>
      <point x="594" y="117" type="line" smooth="yes"/>
      <point x="567" y="119"/>
      <point x="549" y="135"/>
      <point x="549" y="162" type="curve" smooth="yes"/>
      <point x="549" y="590" type="line"/>
      <point x="803" y="666"/>
      <point x="907" y="832"/>
    </contour>
  </outline>
</glyph>
<glyph name="LtnSmCapB" format="2">
  <advance width="1069"/>
  <unicode hex="0299"/>
  <anchor x="533" y="-100" name="L"/>
  <anchor x="533" y="1100" name="U"/>
  <outline>
    <contour>
      <point x="63" y="0" type="line"/>
      <point x="623" y="0" type="line" smooth="yes"/>
      <point x="780" y="0"/>
      <point x="1004" y="10"/>
      <point x="1004" y="295" type="curve" smooth="yes"/>
      <point x="1004" y="465"/>
      <point x="877" y="522"/>
      <point x="766" y="537" type="curve"/>
      <point x="840" y="563"/>
      <point x="942" y="625"/>
      <point x="942" y="762" type="curve" smooth="yes"/>
      <point x="942" y="979"/>
      <point x="702" y="999"/>
      <point x="592" y="999" type="curve" smooth="yes"/>
      <point x="63" y="999" type="line"/>
      <point x="63" y="903" type="line"/>
      <point x="160" y="895" type="line" smooth="yes"/>
      <point x="176" y="893"/>
      <point x="184" y="885"/>
      <point x="184" y="874" type="curve" smooth="yes"/>
      <point x="184" y="125" type="line" smooth="yes"/>
      <point x="184" y="115"/>
      <point x="176" y="106"/>
      <point x="160" y="104" type="curve" smooth="yes"/>
      <point x="63" y="96" type="line"/>
    </contour>
    <contour>
      <point x="502" y="106" type="curve" smooth="yes"/>
      <point x="494" y="106"/>
      <point x="457" y="106"/>
      <point x="436" y="109" type="curve"/>
      <point x="436" y="457" type="line"/>
      <point x="473" y="459"/>
      <point x="489" y="459"/>
      <point x="506" y="459" type="curve" smooth="yes"/>
      <point x="674" y="459"/>
      <point x="741" y="401"/>
      <point x="741" y="285" type="curve" smooth="yes"/>
      <point x="741" y="156"/>
      <point x="664" y="106"/>
    </contour>
    <contour>
      <point x="436" y="567" type="curve"/>
      <point x="436" y="893" type="line"/>
      <point x="459" y="893"/>
      <point x="473" y="895"/>
      <point x="492" y="895" type="curve" smooth="yes"/>
      <point x="655" y="895"/>
      <point x="684" y="819"/>
      <point x="684" y="737" type="curve" smooth="yes"/>
      <point x="684" y="641"/>
      <point x="643" y="567"/>
      <point x="467" y="567" type="curve" smooth="yes"/>
      <point x="463" y="567"/>
      <point x="446" y="567"/>
    </contour>
  </outline>
</glyph>
<glyph name="LtnSmClosedOpnE" format="2">
  <advance width="1116"/>
  <unicode hex="029A"/>
  <anchor x="559" y="-100" name="L"/>
  <anchor x="559" y="1100" name="U"/>
  <outline>
    <contour>
      <point x="1053" y="496" type="curve" smooth="yes"/>
      <point x="1053" y="842"/>
      <point x="895" y="1024"/>
      <point x="545" y="1024" type="curve" smooth="yes"/>
      <point x="356" y="1024"/>
      <point x="113" y="956"/>
      <point x="113" y="723" type="curve" smooth="yes"/>
      <point x="113" y="653"/>
      <point x="150" y="573"/>
      <point x="211" y="512" type="curve"/>
      <point x="131" y="473"/>
      <point x="66" y="403"/>
      <point x="66" y="291" type="curve" smooth="yes"/>
      <point x="66" y="4"/>
      <point x="340" y="-25"/>
      <point x="561" y="-25" type="curve" smooth="yes"/>
      <point x="903" y="-25"/>
      <point x="1053" y="190"/>
    </contour>
    <contour>
      <point x="807" y="498" type="curve" smooth="yes"/>
      <point x="807" y="315"/>
      <point x="756" y="90"/>
      <point x="571" y="90" type="curve" smooth="yes"/>
      <point x="438" y="90"/>
      <point x="326" y="150"/>
      <point x="326" y="293" type="curve" smooth="yes"/>
      <point x="326" y="369"/>
      <point x="356" y="428"/>
      <point x="512" y="432" type="curve" smooth="yes"/>
      <point x="567" y="434" type="line"/>
      <point x="567" y="532" type="line"/>
      <point x="418" y="532"/>
      <point x="365" y="584"/>
      <point x="365" y="723" type="curve" smooth="yes"/>
      <point x="365" y="862"/>
      <point x="424" y="907"/>
      <point x="547" y="907" type="curve" smooth="yes"/>
      <point x="768" y="907"/>
      <point x="807" y="649"/>
    </contour>
  </outline>
</glyph>
<glyph name="LtnSmQHook" format="2">
  <advance width="1235"/>
  <unicode hex="02A0"/>
  <anchor x="349" y="-100" name="L"/>
  <anchor x="757" y="1540" name="U"/>
  <outline>
    <contour>
      <point x="618" y="-449" type="line"/>
      <point x="1180" y="-449" type="line"/>
      <point x="1180" y="-352" type="line"/>
      <point x="1096" y="-346" type="line"/>
      <point x="1071" y="-346"/>
      <point x="1051" y="-326"/>
      <point x="1051" y="-299" type="curve" smooth="yes"/>
      <point x="1051" y="1102" type="line" smooth="yes"/>
      <point x="1051" y="1161"/>
      <point x="1071" y="1348"/>
      <point x="1116" y="1421" type="curve"/>
      <point x="1321" y="1231" type="line"/>
      <point x="1386" y="1251"/>
      <point x="1448" y="1303"/>
      <point x="1448" y="1366" type="curve" smooth="yes"/>
      <point x="1448" y="1483"/>
      <point x="1333" y="1522"/>
      <point x="1251" y="1522" type="curve" smooth="yes"/>
      <point x="1022" y="1522"/>
      <point x="815" y="1339"/>
      <point x="780" y="1102" type="curve" smooth="yes"/>
      <point x="768" y="1020" type="line"/>
      <point x="741" y="1022"/>
      <point x="741" y="1024"/>
      <point x="727" y="1024" type="curve" smooth="yes"/>
      <point x="340" y="1024"/>
      <point x="66" y="856"/>
      <point x="66" y="469" type="curve" smooth="yes"/>
      <point x="66" y="205"/>
      <point x="221" y="-25"/>
      <point x="467" y="-25" type="curve" smooth="yes"/>
      <point x="588" y="-25"/>
      <point x="715" y="35"/>
      <point x="776" y="80" type="curve"/>
      <point x="776" y="-299" type="line" smooth="yes"/>
      <point x="776" y="-326"/>
      <point x="758" y="-346"/>
      <point x="731" y="-346" type="curve"/>
      <point x="618" y="-352" type="line"/>
    </contour>
    <contour>
      <point x="645" y="154" type="curve" smooth="yes"/>
      <point x="469" y="154"/>
      <point x="365" y="293"/>
      <point x="365" y="516" type="curve" smooth="yes"/>
      <point x="365" y="735"/>
      <point x="451" y="903"/>
      <point x="694" y="903" type="curve" smooth="yes"/>
      <point x="728" y="903"/>
      <point x="761" y="898"/>
      <point x="776" y="895" type="curve"/>
      <point x="776" y="162" type="line"/>
      <point x="745" y="159"/>
      <point x="689" y="154"/>
    </contour>
  </outline>
</glyph>
<glyph name="LtnSmDzDigraph" format="2">
  <advance width="1817"/>
  <unicode hex="02A3"/>
  <anchor x="908" y="-100" name="L"/>
  <anchor x="925" y="1580" name="U"/>
  <outline>
    <contour>
      <point x="1751" y="0" type="line"/>
      <point x="1751" y="344" type="line"/>
      <point x="1610" y="344" type="line"/>
      <point x="1583" y="170" type="line" smooth="yes"/>
      <point x="1581" y="150"/>
      <point x="1559" y="121"/>
      <point x="1538" y="121" type="curve" smooth="yes"/>
      <point x="1186" y="121" type="line"/>
      <point x="1722" y="885" type="line"/>
      <point x="1722" y="999" type="line"/>
      <point x="1063" y="999" type="line"/>
      <point x="1063" y="1516" type="line"/>
      <point x="958" y="1516" type="line"/>
      <point x="639" y="1413" type="line"/>
      <point x="639" y="1329" type="line"/>
      <point x="788" y="1329" type="line"/>
      <point x="788" y="999" type="line"/>
      <point x="788" y="999"/>
      <point x="678" y="1024"/>
      <point x="600" y="1024" type="curve" smooth="yes"/>
      <point x="291" y="1024"/>
      <point x="66" y="829"/>
      <point x="66" y="477" type="curve" smooth="yes"/>
      <point x="66" y="188"/>
      <point x="217" y="-25"/>
      <point x="467" y="-25" type="curve" smooth="yes"/>
      <point x="616" y="-25"/>
      <point x="788" y="119"/>
      <point x="788" y="119" type="curve"/>
      <point x="788" y="0" type="line"/>
    </contour>
    <contour>
      <point x="1411" y="883" type="line"/>
      <point x="1063" y="383" type="line"/>
      <point x="1063" y="883" type="line"/>
    </contour>
    <contour>
      <point x="788" y="203" type="line"/>
      <point x="788" y="203"/>
      <point x="705" y="162"/>
      <point x="631" y="162" type="curve" smooth="yes"/>
      <point x="453" y="162"/>
      <point x="365" y="309"/>
      <point x="365" y="524" type="curve" smooth="yes"/>
      <point x="365" y="735"/>
      <point x="455" y="901"/>
      <point x="645" y="901" type="curve" smooth="yes"/>
      <point x="707" y="901"/>
      <point x="788" y="864"/>
      <point x="788" y="864" type="curve"/>
    </contour>
  </outline>
</glyph>
<glyph name="LtnSmTeshDigraph" format="2">
  <advance width="1307"/>
  <unicode hex="02A7"/>
  <anchor x="683" y="-500" name="L"/>
  <anchor x="660" y="1580" name="U"/>
  <outline>
    <contour>
      <point x="1317" y="1343" type="curve" smooth="yes"/>
      <point x="1317" y="1413"/>
      <point x="1214" y="1516"/>
      <point x="1087" y="1516" type="curve" smooth="yes"/>
      <point x="844" y="1516"/>
      <point x="690" y="1365"/>
      <point x="690" y="1156" type="curve" smooth="yes"/>
      <point x="690" y="1138"/>
      <point x="691" y="1119"/>
      <point x="694" y="1100" type="curve" smooth="yes"/>
      <point x="709" y="999" type="line"/>
      <point x="459" y="999" type="line"/>
      <point x="459" y="1262" type="line"/>
      <point x="317" y="1262" type="line"/>
      <point x="207" y="1044" type="line"/>
      <point x="49" y="950" type="line"/>
      <point x="49" y="868" type="line"/>
      <point x="184" y="868" type="line"/>
      <point x="184" y="227" type="line" smooth="yes"/>
      <point x="184" y="55"/>
      <point x="250" y="-25"/>
      <point x="432" y="-25" type="curve" smooth="yes"/>
      <point x="553" y="-25"/>
      <point x="690" y="15"/>
      <point x="760" y="45" type="curve"/>
      <point x="760" y="147" type="line"/>
      <point x="731" y="141"/>
      <point x="674" y="133"/>
      <point x="627" y="133" type="curve" smooth="yes"/>
      <point x="518" y="133"/>
      <point x="459" y="180"/>
      <point x="459" y="311" type="curve" smooth="yes"/>
      <point x="459" y="868" type="line"/>
      <point x="725" y="868" type="line"/>
      <point x="848" y="-78" type="line" smooth="yes"/>
      <point x="854" y="-128"/>
      <point x="857" y="-167"/>
      <point x="857" y="-199" type="curve" smooth="yes"/>
      <point x="857" y="-289"/>
      <point x="834" y="-315"/>
      <point x="799" y="-332" type="curve"/>
      <point x="621" y="-143" type="line"/>
      <point x="566" y="-161"/>
      <point x="494" y="-217"/>
      <point x="494" y="-299" type="curve" smooth="yes"/>
      <point x="494" y="-369"/>
      <point x="596" y="-473"/>
      <point x="723" y="-473" type="curve" smooth="yes"/>
      <point x="967" y="-473"/>
      <point x="1120" y="-322"/>
      <point x="1120" y="-115" type="curve" smooth="yes"/>
      <point x="1120" y="-96"/>
      <point x="1119" y="-77"/>
      <point x="1116" y="-57" type="curve" smooth="yes"/>
      <point x="1049" y="441"/>
      <point x="967" y="1103"/>
      <point x="965" y="1120" type="curve" smooth="yes"/>
      <point x="958" y="1172"/>
      <point x="955" y="1213"/>
      <point x="955" y="1245" type="curve" smooth="yes"/>
      <point x="955" y="1333"/>
      <point x="978" y="1358"/>
      <point x="1014" y="1374" type="curve"/>
      <point x="1192" y="1186" type="line"/>
      <point x="1246" y="1205"/>
      <point x="1317" y="1261"/>
    </contour>
  </outline>
</glyph>
